M48
; DRILL file {KiCad 7.0.6} date Fri Feb  2 16:23:34 2024
; FORMAT={-:-/ absolute / inch / decimal}
; #@! TF.CreationDate,2024-02-02T16:23:34-05:00
; #@! TF.GenerationSoftware,Kicad,Pcbnew,7.0.6
; #@! TF.FileFunction,NonPlated,1,2,NPTH
FMAT,2
INCH
; #@! TA.AperFunction,NonPlated,NPTH,ComponentDrill
T1C0.0669
; #@! TA.AperFunction,NonPlated,NPTH,ComponentDrill
T2C0.1201
; #@! TA.AperFunction,NonPlated,NPTH,ComponentDrill
T3C0.1575
; #@! TA.AperFunction,NonPlated,NPTH,ComponentDrill
T4C0.2008
%
G90
G05
T1
X1.775Y-3.1875
X1.9447Y-3.9375
X2.15Y-2.4375
X2.175Y-3.1875
X2.25Y-4.6875
X2.3447Y-3.9375
X2.525Y-3.1875
X2.55Y-2.4375
X2.65Y-4.6875
X2.6947Y-3.9375
X2.9Y-2.4375
X2.925Y-3.1875
X3.0875Y-4.6875
X3.0947Y-3.9375
X3.275Y-3.1875
X3.3Y-2.4375
X3.4447Y-3.9375
X3.4875Y-4.6875
X3.65Y-2.4375
X3.675Y-3.1875
X3.8375Y-4.6875
X3.8447Y-3.9375
X4.025Y-3.1875
X4.05Y-2.4375
X4.1947Y-3.9375
X4.2375Y-4.6875
X4.4Y-2.4375
X4.425Y-3.1875
X4.5875Y-4.6875
X4.5947Y-3.9375
X4.775Y-3.1875
X4.8Y-2.4375
X4.9447Y-3.9375
X4.9875Y-4.6875
X5.15Y-2.4375
X5.175Y-3.1875
X5.3375Y-4.6875
X5.3447Y-3.9375
X5.525Y-3.1875
X5.55Y-2.4375
X5.6947Y-3.9375
X5.7375Y-4.6875
X5.9Y-2.4375
X5.925Y-3.1875
X6.0875Y-4.6875
X6.0947Y-3.9375
X6.275Y-3.1875
X6.3Y-2.4375
X6.4447Y-3.9375
X6.4875Y-4.6875
X6.65Y-2.4375
X6.675Y-3.1875
X6.75Y-5.4375
X6.8375Y-4.6875
X6.8447Y-3.9375
X7.025Y-3.1875
X7.05Y-2.4375
X7.15Y-5.4375
X7.1947Y-3.9375
X7.2375Y-4.6875
X7.4Y-2.4375
X7.425Y-3.1875
X7.5875Y-4.6875
X7.5947Y-3.9375
X7.775Y-3.1875
X7.8Y-2.4375
X7.9447Y-3.9375
X7.9875Y-4.6875
X8.15Y-2.4375
X8.175Y-3.1875
X8.3375Y-4.6875
X8.3447Y-3.9375
X8.525Y-3.1875
X8.55Y-2.4375
X8.7054Y-3.9375
X8.7375Y-4.6875
X8.9Y-2.4375
X8.925Y-3.1875
X9.0875Y-4.6875
X9.1054Y-3.9375
X9.275Y-3.1875
X9.3Y-2.4375
X9.4554Y-3.9375
X9.4875Y-4.6875
X9.65Y-2.4375
X9.675Y-3.1875
X9.8375Y-4.6875
X9.8375Y-5.4375
X9.8554Y-3.9375
X10.0125Y-3.1875
X10.05Y-2.4375
X10.2054Y-3.9375
X10.2375Y-4.6875
X10.2375Y-5.4375
X10.4Y-2.4375
X10.4125Y-3.1875
X10.5875Y-4.6875
X10.5875Y-5.4375
X10.6054Y-3.9375
X10.775Y-3.1875
X10.8Y-2.4375
X10.9875Y-4.6875
X10.9875Y-5.4375
X11.15Y-2.4375
X11.175Y-3.1875
X11.3375Y-5.4375
X11.425Y-3.9375
X11.4375Y-4.6875
X11.55Y-2.4375
X11.7125Y-3.1875
X11.7375Y-5.4375
X11.825Y-3.9375
X11.8375Y-4.6875
X11.9Y-2.4375
X12.1125Y-3.1875
X12.3Y-2.4375
T2
X4.9815Y-5.1619
X8.9185Y-5.1619
X11.1565Y-3.6619
X12.0935Y-3.6619
T3
X4.9815Y-5.7619
X8.9185Y-5.7619
X11.1565Y-4.2619
X12.0935Y-4.2619
T4
X1.975Y-3.1875
X2.1447Y-3.9375
X2.35Y-2.4375
X2.45Y-4.6875
X2.725Y-3.1875
X2.8947Y-3.9375
X3.1Y-2.4375
X3.2875Y-4.6875
X3.475Y-3.1875
X3.6447Y-3.9375
X3.85Y-2.4375
X4.0375Y-4.6875
X4.225Y-3.1875
X4.3947Y-3.9375
X4.6Y-2.4375
X4.7875Y-4.6875
X4.975Y-3.1875
X5.1447Y-3.9375
X5.35Y-2.4375
X5.5375Y-4.6875
X5.725Y-3.1875
X5.8947Y-3.9375
X6.1Y-2.4375
X6.2875Y-4.6875
X6.475Y-3.1875
X6.6447Y-3.9375
X6.85Y-2.4375
X6.95Y-5.4375
X7.0375Y-4.6875
X7.225Y-3.1875
X7.3947Y-3.9375
X7.6Y-2.4375
X7.7875Y-4.6875
X7.975Y-3.1875
X8.1447Y-3.9375
X8.35Y-2.4375
X8.5375Y-4.6875
X8.725Y-3.1875
X8.9054Y-3.9375
X9.1Y-2.4375
X9.2875Y-4.6875
X9.475Y-3.1875
X9.6554Y-3.9375
X9.85Y-2.4375
X10.0375Y-4.6875
X10.0375Y-5.4375
X10.2125Y-3.1875
X10.4054Y-3.9375
X10.6Y-2.4375
X10.7875Y-4.6875
X10.7875Y-5.4375
X10.975Y-3.1875
X11.35Y-2.4375
X11.5375Y-5.4375
X11.625Y-3.9375
X11.6375Y-4.6875
X11.9125Y-3.1875
X12.1Y-2.4375
T0
M30
