G04 #@! TF.GenerationSoftware,KiCad,Pcbnew,7.0.6*
G04 #@! TF.CreationDate,2024-02-02T16:23:30-05:00*
G04 #@! TF.ProjectId,Galaksija-mx,47616c61-6b73-4696-9a61-2d6d782e6b69,1.0*
G04 #@! TF.SameCoordinates,Original*
G04 #@! TF.FileFunction,Copper,L2,Bot*
G04 #@! TF.FilePolarity,Positive*
%FSLAX46Y46*%
G04 Gerber Fmt 4.6, Leading zero omitted, Abs format (unit mm)*
G04 Created by KiCad (PCBNEW 7.0.6) date 2024-02-02 16:23:30*
%MOMM*%
%LPD*%
G01*
G04 APERTURE LIST*
G04 Aperture macros list*
%AMFreePoly0*
4,1,19,0.550000,-0.750000,0.000000,-0.750000,0.000000,-0.744911,-0.071157,-0.744911,-0.207708,-0.704816,-0.327430,-0.627875,-0.420627,-0.520320,-0.479746,-0.390866,-0.500000,-0.250000,-0.500000,0.250000,-0.479746,0.390866,-0.420627,0.520320,-0.327430,0.627875,-0.207708,0.704816,-0.071157,0.744911,0.000000,0.744911,0.000000,0.750000,0.550000,0.750000,0.550000,-0.750000,0.550000,-0.750000,
$1*%
%AMFreePoly1*
4,1,19,0.000000,0.744911,0.071157,0.744911,0.207708,0.704816,0.327430,0.627875,0.420627,0.520320,0.479746,0.390866,0.500000,0.250000,0.500000,-0.250000,0.479746,-0.390866,0.420627,-0.520320,0.327430,-0.627875,0.207708,-0.704816,0.071157,-0.744911,0.000000,-0.744911,0.000000,-0.750000,-0.550000,-0.750000,-0.550000,0.750000,0.000000,0.750000,0.000000,0.744911,0.000000,0.744911,
$1*%
G04 Aperture macros list end*
G04 #@! TA.AperFunction,ComponentPad*
%ADD10C,2.200000*%
G04 #@! TD*
G04 #@! TA.AperFunction,ComponentPad*
%ADD11O,1.900000X2.450000*%
G04 #@! TD*
G04 #@! TA.AperFunction,ComponentPad*
%ADD12O,2.450000X1.900000*%
G04 #@! TD*
G04 #@! TA.AperFunction,ComponentPad*
%ADD13R,1.700000X1.700000*%
G04 #@! TD*
G04 #@! TA.AperFunction,ComponentPad*
%ADD14O,1.700000X1.700000*%
G04 #@! TD*
G04 #@! TA.AperFunction,SMDPad,CuDef*
%ADD15FreePoly0,180.000000*%
G04 #@! TD*
G04 #@! TA.AperFunction,SMDPad,CuDef*
%ADD16R,1.000000X1.500000*%
G04 #@! TD*
G04 #@! TA.AperFunction,SMDPad,CuDef*
%ADD17FreePoly1,180.000000*%
G04 #@! TD*
G04 #@! TA.AperFunction,ViaPad*
%ADD18C,0.800000*%
G04 #@! TD*
G04 #@! TA.AperFunction,Conductor*
%ADD19C,0.250000*%
G04 #@! TD*
G04 APERTURE END LIST*
D10*
X179070000Y-133032500D03*
D11*
X180930000Y-133412500D03*
D10*
X172720000Y-135572500D03*
D12*
X173930000Y-132362500D03*
D10*
X295592500Y-133032500D03*
D11*
X297452500Y-133412500D03*
D10*
X289242500Y-135572500D03*
D12*
X290452500Y-132362500D03*
D10*
X152265000Y-94932500D03*
D11*
X154125000Y-95312500D03*
D10*
X145915000Y-97472500D03*
D12*
X147125000Y-94262500D03*
D10*
X281305000Y-75882500D03*
D11*
X283165000Y-76262500D03*
D10*
X274955000Y-78422500D03*
D12*
X276165000Y-75212500D03*
D10*
X128905000Y-75882500D03*
D11*
X130765000Y-76262500D03*
D10*
X122555000Y-78422500D03*
D12*
X123765000Y-75212500D03*
D10*
X305117500Y-75882500D03*
D11*
X306977500Y-76262500D03*
D10*
X298767500Y-78422500D03*
D12*
X299977500Y-75212500D03*
D10*
X124142500Y-113982500D03*
D11*
X126002500Y-114362500D03*
D10*
X117792500Y-116522500D03*
D12*
X119002500Y-113312500D03*
D10*
X228737500Y-94932500D03*
D11*
X230597500Y-95312500D03*
D10*
X222387500Y-97472500D03*
D12*
X223597500Y-94262500D03*
D10*
X143192500Y-113982500D03*
D11*
X145052500Y-114362500D03*
D10*
X136842500Y-116522500D03*
D12*
X138052500Y-113312500D03*
D10*
X64770000Y-113982500D03*
D11*
X66630000Y-114362500D03*
D10*
X58420000Y-116522500D03*
D12*
X59630000Y-113312500D03*
D10*
X271780000Y-56832500D03*
D11*
X273640000Y-57212500D03*
D10*
X265430000Y-59372500D03*
D12*
X266640000Y-56162500D03*
D10*
X157480000Y-56832500D03*
D11*
X159340000Y-57212500D03*
D10*
X151130000Y-59372500D03*
D12*
X152340000Y-56162500D03*
D10*
X109855000Y-75882500D03*
D11*
X111715000Y-76262500D03*
D10*
X103505000Y-78422500D03*
D12*
X104715000Y-75212500D03*
D10*
X81280000Y-56832500D03*
D11*
X83140000Y-57212500D03*
D10*
X74930000Y-59372500D03*
D12*
X76140000Y-56162500D03*
D10*
X86042500Y-113982500D03*
D11*
X87902500Y-114362500D03*
D10*
X79692500Y-116522500D03*
D12*
X80902500Y-113312500D03*
D10*
X186055000Y-75882500D03*
D11*
X187915000Y-76262500D03*
D10*
X179705000Y-78422500D03*
D12*
X180915000Y-75212500D03*
D10*
X266837500Y-94932500D03*
D11*
X268697500Y-95312500D03*
D10*
X260487500Y-97472500D03*
D12*
X261697500Y-94262500D03*
D10*
X247787500Y-94932500D03*
D11*
X249647500Y-95312500D03*
D10*
X241437500Y-97472500D03*
D12*
X242647500Y-94262500D03*
D10*
X162242500Y-113982500D03*
D11*
X164102500Y-114362500D03*
D10*
X155892500Y-116522500D03*
D12*
X157102500Y-113312500D03*
D10*
X290830000Y-56832500D03*
D11*
X292690000Y-57212500D03*
D10*
X284480000Y-59372500D03*
D12*
X285690000Y-56162500D03*
D10*
X100330000Y-56832500D03*
D11*
X102190000Y-57212500D03*
D10*
X93980000Y-59372500D03*
D12*
X95190000Y-56162500D03*
D10*
X205105000Y-75882500D03*
D11*
X206965000Y-76262500D03*
D10*
X198755000Y-78422500D03*
D12*
X199965000Y-75212500D03*
D10*
X219392500Y-113982500D03*
D11*
X221252500Y-114362500D03*
D10*
X213042500Y-116522500D03*
D12*
X214252500Y-113312500D03*
D10*
X200342500Y-113982500D03*
D11*
X202202500Y-114362500D03*
D10*
X193992500Y-116522500D03*
D12*
X195202500Y-113312500D03*
D10*
X95115000Y-94932500D03*
D11*
X96975000Y-95312500D03*
D10*
X88765000Y-97472500D03*
D12*
X89975000Y-94262500D03*
D10*
X243205000Y-75882500D03*
D11*
X245065000Y-76262500D03*
D10*
X236855000Y-78422500D03*
D12*
X238065000Y-75212500D03*
D10*
X52705000Y-75882500D03*
D11*
X54565000Y-76262500D03*
D10*
X46355000Y-78422500D03*
D12*
X47565000Y-75212500D03*
D10*
X76065000Y-94932500D03*
D11*
X77925000Y-95312500D03*
D10*
X69715000Y-97472500D03*
D12*
X70925000Y-94262500D03*
D10*
X119380000Y-56832500D03*
D11*
X121240000Y-57212500D03*
D10*
X113030000Y-59372500D03*
D12*
X114240000Y-56162500D03*
D10*
X257492500Y-113982500D03*
D11*
X259352500Y-114362500D03*
D10*
X251142500Y-116522500D03*
D12*
X252352500Y-113312500D03*
D10*
X209415000Y-94932500D03*
D11*
X211275000Y-95312500D03*
D10*
X203065000Y-97472500D03*
D12*
X204275000Y-94262500D03*
D10*
X276542500Y-133032500D03*
D11*
X278402500Y-133412500D03*
D10*
X270192500Y-135572500D03*
D12*
X271402500Y-132362500D03*
D10*
X190365000Y-94932500D03*
D11*
X192225000Y-95312500D03*
D10*
X184015000Y-97472500D03*
D12*
X185225000Y-94262500D03*
D13*
X64890000Y-48112500D03*
D14*
X67430000Y-48112500D03*
X69970000Y-48112500D03*
X72510000Y-48112500D03*
X75050000Y-48112500D03*
X77590000Y-48112500D03*
X80130000Y-48112500D03*
X82670000Y-48112500D03*
D10*
X167005000Y-75882500D03*
D11*
X168865000Y-76262500D03*
D10*
X160655000Y-78422500D03*
D12*
X161865000Y-75212500D03*
D10*
X147955000Y-75882500D03*
D11*
X149815000Y-76262500D03*
D10*
X141605000Y-78422500D03*
D12*
X142815000Y-75212500D03*
D10*
X298132500Y-113982500D03*
D11*
X299992500Y-114362500D03*
D10*
X291782500Y-116522500D03*
D12*
X292992500Y-113312500D03*
D10*
X297815000Y-94932500D03*
D11*
X299675000Y-95312500D03*
D10*
X291465000Y-97472500D03*
D12*
X292675000Y-94262500D03*
D10*
X214630000Y-56832500D03*
D11*
X216490000Y-57212500D03*
D10*
X208280000Y-59372500D03*
D12*
X209490000Y-56162500D03*
D10*
X224155000Y-75882500D03*
D11*
X226015000Y-76262500D03*
D10*
X217805000Y-78422500D03*
D12*
X219015000Y-75212500D03*
D10*
X176530000Y-56832500D03*
D11*
X178390000Y-57212500D03*
D10*
X170180000Y-59372500D03*
D12*
X171390000Y-56162500D03*
D10*
X238442500Y-113982500D03*
D11*
X240302500Y-114362500D03*
D10*
X232092500Y-116522500D03*
D12*
X233302500Y-113312500D03*
D10*
X133215000Y-94932500D03*
D11*
X135075000Y-95312500D03*
D10*
X126865000Y-97472500D03*
D12*
X128075000Y-94262500D03*
D13*
X91890000Y-48112500D03*
D14*
X94430000Y-48112500D03*
X96970000Y-48112500D03*
X99510000Y-48112500D03*
X102050000Y-48112500D03*
X104590000Y-48112500D03*
X107130000Y-48112500D03*
X109670000Y-48112500D03*
D10*
X261937500Y-75882500D03*
D11*
X263797500Y-76262500D03*
D10*
X255587500Y-78422500D03*
D12*
X256797500Y-75212500D03*
D10*
X138430000Y-56832500D03*
D11*
X140290000Y-57212500D03*
D10*
X132080000Y-59372500D03*
D12*
X133290000Y-56162500D03*
D10*
X233680000Y-56832500D03*
D11*
X235540000Y-57212500D03*
D10*
X227330000Y-59372500D03*
D12*
X228540000Y-56162500D03*
D10*
X57015000Y-94932500D03*
D11*
X58875000Y-95312500D03*
D10*
X50665000Y-97472500D03*
D12*
X51875000Y-94262500D03*
D10*
X309880000Y-56832500D03*
D11*
X311740000Y-57212500D03*
D10*
X303530000Y-59372500D03*
D12*
X304740000Y-56162500D03*
D10*
X195580000Y-56832500D03*
D11*
X197440000Y-57212500D03*
D10*
X189230000Y-59372500D03*
D12*
X190440000Y-56162500D03*
D10*
X105092500Y-113982500D03*
D11*
X106952500Y-114362500D03*
D10*
X98742500Y-116522500D03*
D12*
X99952500Y-113312500D03*
D10*
X114165000Y-94932500D03*
D11*
X116025000Y-95312500D03*
D10*
X107815000Y-97472500D03*
D12*
X109025000Y-94262500D03*
D10*
X90805000Y-75882500D03*
D11*
X92665000Y-76262500D03*
D10*
X84455000Y-78422500D03*
D12*
X85665000Y-75212500D03*
D10*
X276542500Y-113982500D03*
D11*
X278402500Y-114362500D03*
D10*
X270192500Y-116522500D03*
D12*
X271402500Y-113312500D03*
D10*
X252730000Y-56832500D03*
D11*
X254590000Y-57212500D03*
D10*
X246380000Y-59372500D03*
D12*
X247590000Y-56162500D03*
D10*
X171315000Y-94932500D03*
D11*
X173175000Y-95312500D03*
D10*
X164965000Y-97472500D03*
D12*
X166175000Y-94262500D03*
D10*
X62230000Y-56832500D03*
D11*
X64090000Y-57212500D03*
D10*
X55880000Y-59372500D03*
D12*
X57090000Y-56162500D03*
D10*
X71755000Y-75882500D03*
D11*
X73615000Y-76262500D03*
D10*
X65405000Y-78422500D03*
D12*
X66615000Y-75212500D03*
D10*
X181292500Y-113982500D03*
D11*
X183152500Y-114362500D03*
D10*
X174942500Y-116522500D03*
D12*
X176152500Y-113312500D03*
D10*
X257492500Y-133032500D03*
D11*
X259352500Y-133412500D03*
D10*
X251142500Y-135572500D03*
D12*
X252352500Y-132362500D03*
D15*
X307930000Y-130772500D03*
D16*
X306630000Y-130772500D03*
D17*
X305330000Y-130772500D03*
D15*
X307960000Y-133252500D03*
D16*
X306660000Y-133252500D03*
D17*
X305360000Y-133252500D03*
D18*
X213230000Y-92932500D03*
X88830000Y-111512500D03*
X177830000Y-111512500D03*
X285490000Y-51512500D03*
X216490000Y-51512500D03*
X172690000Y-85662500D03*
X206540000Y-85662500D03*
X64090000Y-53282500D03*
X94290000Y-51512500D03*
X76390000Y-73612500D03*
X82490000Y-73512500D03*
X180090000Y-88912500D03*
X90090000Y-88912500D03*
X122890000Y-88912500D03*
X141490000Y-88912500D03*
X298860000Y-130692500D03*
X77490000Y-72312500D03*
X161890000Y-72312500D03*
X75050000Y-54312500D03*
X235190000Y-70012500D03*
X81180000Y-53588000D03*
X211670000Y-70312500D03*
X91290000Y-57112500D03*
X153590000Y-73312500D03*
X131090000Y-73188000D03*
X100890000Y-73312500D03*
X160940000Y-92332500D03*
X260970000Y-52332500D03*
X79590000Y-79462500D03*
X254862500Y-92112500D03*
X305280000Y-124102500D03*
X117094000Y-89887500D03*
X254490000Y-50712500D03*
X89290000Y-50387500D03*
X211330000Y-89887500D03*
X251690000Y-88912500D03*
X58240000Y-50387500D03*
X99510000Y-50712500D03*
X267830000Y-91437000D03*
X101730000Y-92512500D03*
X149690000Y-70112500D03*
X156830000Y-91437000D03*
X105890000Y-70112500D03*
X125090000Y-70112500D03*
X229630000Y-91437000D03*
X278520000Y-104012500D03*
X218030000Y-91437500D03*
X107790000Y-71412500D03*
X263890000Y-71312500D03*
X202230000Y-109787500D03*
X143490000Y-71312500D03*
X186090000Y-71312500D03*
X267090000Y-109787500D03*
X155680000Y-67712500D03*
X107490000Y-67312500D03*
X292705000Y-127507500D03*
X122130000Y-92282500D03*
X167360000Y-108262500D03*
X121590000Y-86512500D03*
X250690000Y-107132500D03*
X182090000Y-72912500D03*
X154130000Y-86512500D03*
X234530000Y-107132500D03*
X227530000Y-86512500D03*
X172040000Y-52342500D03*
X109670000Y-52342500D03*
X174480000Y-69312500D03*
X201490000Y-69512500D03*
X98530000Y-90732500D03*
X90290000Y-64512500D03*
X243090000Y-62712500D03*
X243205000Y-69312500D03*
X248230000Y-90588000D03*
X73130000Y-91732500D03*
X128070000Y-91437000D03*
X79130000Y-91712500D03*
X109025000Y-91437000D03*
X296480000Y-126542500D03*
X309420000Y-128302500D03*
X82400000Y-52863500D03*
X306630000Y-126502500D03*
X293320000Y-126512500D03*
D19*
X176152500Y-113190000D02*
X177830000Y-111512500D01*
X213200000Y-92902500D02*
X213230000Y-92932500D01*
X176152500Y-113312500D02*
X176152500Y-113190000D01*
X67890000Y-48572500D02*
X67890000Y-66512500D01*
X177830000Y-101532500D02*
X181030000Y-98332500D01*
X67890000Y-66512500D02*
X80490000Y-79112500D01*
X83730000Y-92232500D02*
X83730000Y-99032500D01*
X80490000Y-88992500D02*
X83730000Y-92232500D01*
X86230000Y-108932500D02*
X88810000Y-111512500D01*
X184015000Y-97472500D02*
X181890000Y-97472500D01*
X213200000Y-81002500D02*
X213200000Y-92902500D01*
X201509366Y-97472500D02*
X195202500Y-103779366D01*
X67430000Y-48112500D02*
X67890000Y-48572500D01*
X80490000Y-79112500D02*
X80490000Y-88992500D01*
X181890000Y-97472500D02*
X181030000Y-98332500D01*
X83730000Y-106432500D02*
X83730000Y-99032500D01*
X86230000Y-108932500D02*
X83730000Y-106432500D01*
X217805000Y-78422500D02*
X215780000Y-78422500D01*
X177830000Y-111512500D02*
X177830000Y-101532500D01*
X203065000Y-97472500D02*
X201509366Y-97472500D01*
X88810000Y-111512500D02*
X88830000Y-111512500D01*
X195202500Y-103779366D02*
X195202500Y-113312500D01*
X215780000Y-78422500D02*
X213200000Y-81002500D01*
X210340000Y-81762500D02*
X208990000Y-83112500D01*
X73615000Y-76262500D02*
X74390000Y-76262500D01*
X168865000Y-76262500D02*
X169440000Y-76262500D01*
X66290000Y-59412500D02*
X66290000Y-68362500D01*
X216490000Y-57212500D02*
X216490000Y-51512500D01*
X94430000Y-51372500D02*
X94290000Y-51512500D01*
X210340000Y-76262500D02*
X210340000Y-81762500D01*
X290830000Y-56832500D02*
X285510000Y-51512500D01*
X64090000Y-53282500D02*
X64090000Y-57212500D01*
X210340000Y-76262500D02*
X219090000Y-67512500D01*
X285510000Y-51512500D02*
X285490000Y-51512500D01*
X219090000Y-59812500D02*
X216490000Y-57212500D01*
X206540000Y-85562500D02*
X206540000Y-85662500D01*
X208990000Y-83112500D02*
X206540000Y-85562500D01*
X71755000Y-73827500D02*
X71755000Y-75882500D01*
X94430000Y-48112500D02*
X94430000Y-51372500D01*
X219090000Y-67512500D02*
X219090000Y-59812500D01*
X74390000Y-76262500D02*
X76690000Y-78562500D01*
X76690000Y-78562500D02*
X76690000Y-91697500D01*
X172690000Y-79512500D02*
X172690000Y-85662500D01*
X76690000Y-91697500D02*
X77925000Y-92932500D01*
X64090000Y-57212500D02*
X66290000Y-59412500D01*
X169440000Y-76262500D02*
X172690000Y-79512500D01*
X206965000Y-76262500D02*
X210340000Y-76262500D01*
X77925000Y-92932500D02*
X77925000Y-95312500D01*
X66290000Y-68362500D02*
X71755000Y-73827500D01*
X122890000Y-80512500D02*
X122555000Y-80177500D01*
X134690000Y-113312500D02*
X138052500Y-113312500D01*
X122890000Y-88912500D02*
X122910000Y-88932500D01*
X180090000Y-80112500D02*
X180090000Y-88912500D01*
X89975000Y-89027500D02*
X89975000Y-94262500D01*
X179705000Y-79727500D02*
X180090000Y-80112500D01*
X122555000Y-80177500D02*
X122555000Y-78422500D01*
X141605000Y-88797500D02*
X141490000Y-88912500D01*
X82490000Y-73512500D02*
X84190000Y-75212500D01*
X84890000Y-80112500D02*
X84890000Y-83712500D01*
X122910000Y-88932500D02*
X122910000Y-101532500D01*
X122910000Y-101532500D02*
X134690000Y-113312500D01*
X84890000Y-83712500D02*
X90090000Y-88912500D01*
X122890000Y-88912500D02*
X122890000Y-80512500D01*
X69970000Y-67192500D02*
X76390000Y-73612500D01*
X84890000Y-78857500D02*
X84890000Y-80112500D01*
X69970000Y-48112500D02*
X69970000Y-67192500D01*
X141605000Y-78422500D02*
X141605000Y-88797500D01*
X90090000Y-88912500D02*
X89975000Y-89027500D01*
X84190000Y-75212500D02*
X85665000Y-75212500D01*
X84455000Y-78422500D02*
X84890000Y-78857500D01*
X179705000Y-78422500D02*
X179705000Y-79727500D01*
X282130000Y-121132500D02*
X271402500Y-131860000D01*
X274955000Y-78422500D02*
X275290000Y-78757500D01*
X301430000Y-133262500D02*
X298860000Y-130692500D01*
X305360000Y-133252500D02*
X305350000Y-133262500D01*
X72510000Y-54492500D02*
X70890000Y-56112500D01*
X70890000Y-65912500D02*
X77290000Y-72312500D01*
X161865000Y-72337500D02*
X161890000Y-72312500D01*
X94210000Y-113312500D02*
X99952500Y-113312500D01*
X81090000Y-87892500D02*
X84630000Y-91432500D01*
X72510000Y-48112500D02*
X72510000Y-54492500D01*
X282130000Y-114032500D02*
X282130000Y-121132500D01*
X305350000Y-133262500D02*
X301430000Y-133262500D01*
X81090000Y-75912500D02*
X81090000Y-87892500D01*
X271402500Y-131860000D02*
X271402500Y-132362500D01*
X84630000Y-91432500D02*
X84630000Y-103732500D01*
X84630000Y-103732500D02*
X94210000Y-113312500D01*
X275290000Y-78757500D02*
X275290000Y-107192500D01*
X275290000Y-107192500D02*
X282130000Y-114032500D01*
X70890000Y-56112500D02*
X70890000Y-65912500D01*
X77290000Y-72312500D02*
X77490000Y-72312500D01*
X77490000Y-72312500D02*
X81090000Y-75912500D01*
X161865000Y-75212500D02*
X161865000Y-72337500D01*
X75050000Y-48112500D02*
X75050000Y-55072500D01*
X75050000Y-55072500D02*
X76140000Y-56162500D01*
X238390000Y-97472500D02*
X241437500Y-97472500D01*
X235930000Y-108232500D02*
X235930000Y-99932500D01*
X235930000Y-99932500D02*
X238390000Y-97472500D01*
X208890000Y-64852500D02*
X208890000Y-59982500D01*
X77590000Y-48112500D02*
X77590000Y-49998000D01*
X208890000Y-64852500D02*
X208890000Y-67532500D01*
X208890000Y-67532500D02*
X211670000Y-70312500D01*
X243430000Y-59372500D02*
X241490000Y-61312500D01*
X241490000Y-61312500D02*
X241490000Y-63712500D01*
X246380000Y-59372500D02*
X243430000Y-59372500D01*
X77590000Y-49998000D02*
X81180000Y-53588000D01*
X233090000Y-82692500D02*
X242647500Y-92250000D01*
X208890000Y-59982500D02*
X208280000Y-59372500D01*
X233302500Y-113312500D02*
X233302500Y-110860000D01*
X241490000Y-63712500D02*
X233090000Y-72112500D01*
X233302500Y-110860000D02*
X235930000Y-108232500D01*
X242647500Y-92250000D02*
X242647500Y-94262500D01*
X233090000Y-72112500D02*
X233090000Y-82692500D01*
X130765000Y-73513000D02*
X131090000Y-73188000D01*
X307930000Y-120692500D02*
X310670000Y-117952500D01*
X249647500Y-95312500D02*
X251662500Y-95312500D01*
X160940000Y-96582500D02*
X160940000Y-92332500D01*
X83230000Y-107532500D02*
X86042500Y-110345000D01*
X310670000Y-117952500D02*
X310670000Y-73512500D01*
X254862500Y-92112500D02*
X254862500Y-86085000D01*
X257490000Y-56882500D02*
X257490000Y-55812500D01*
X100880000Y-73312500D02*
X100890000Y-73312500D01*
X252690000Y-73912500D02*
X257490000Y-69112500D01*
X307930000Y-130772500D02*
X307930000Y-120692500D01*
X86042500Y-110345000D02*
X86042500Y-113982500D01*
X83230000Y-93532500D02*
X83230000Y-107532500D01*
X162242500Y-113982500D02*
X162242500Y-108045000D01*
X162242500Y-108045000D02*
X160930000Y-106732500D01*
X160930000Y-106732500D02*
X160930000Y-96592500D01*
X96970000Y-48112500D02*
X96970000Y-50632500D01*
X96970000Y-50632500D02*
X91290000Y-56312500D01*
X257490000Y-55812500D02*
X260970000Y-52332500D01*
X156870000Y-76592500D02*
X153590000Y-73312500D01*
X79690000Y-79562500D02*
X79690000Y-89992500D01*
X91290000Y-57112500D02*
X91290000Y-63722500D01*
X252690000Y-83912500D02*
X252690000Y-73912500D01*
X130765000Y-76262500D02*
X130765000Y-73513000D01*
X310670000Y-73512500D02*
X314790000Y-69392500D01*
X314790000Y-69392500D02*
X314790000Y-60472500D01*
X91290000Y-63722500D02*
X100880000Y-73312500D01*
X156870000Y-88262500D02*
X156870000Y-76592500D01*
X251662500Y-95312500D02*
X254862500Y-92112500D01*
X314790000Y-60472500D02*
X314895000Y-60367500D01*
X254862500Y-86085000D02*
X252690000Y-83912500D01*
X257490000Y-69112500D02*
X257490000Y-56882500D01*
X314895000Y-60367500D02*
X311740000Y-57212500D01*
X160930000Y-96592500D02*
X160940000Y-96582500D01*
X156870000Y-88262500D02*
X160940000Y-92332500D01*
X91290000Y-56312500D02*
X91290000Y-57112500D01*
X79690000Y-89992500D02*
X83230000Y-93532500D01*
X79590000Y-79462500D02*
X79690000Y-79562500D01*
X254590000Y-57212500D02*
X256890000Y-59512500D01*
X120365000Y-105747500D02*
X120365000Y-93158500D01*
X305330000Y-130772500D02*
X305330000Y-124152500D01*
X251690000Y-73532500D02*
X251690000Y-88912500D01*
X254590000Y-50812500D02*
X254490000Y-50712500D01*
X95490000Y-92657500D02*
X95115000Y-93032500D01*
X99510000Y-50712500D02*
X99510000Y-48112500D01*
X211275000Y-89942500D02*
X211330000Y-89887500D01*
X256890000Y-59512500D02*
X256890000Y-68332500D01*
X89290000Y-65912500D02*
X95490000Y-72112500D01*
X124142500Y-113982500D02*
X124142500Y-109525000D01*
X99490000Y-55992500D02*
X100330000Y-56832500D01*
X99490000Y-50732500D02*
X99490000Y-55992500D01*
X89290000Y-50387500D02*
X89290000Y-65912500D01*
X99510000Y-50712500D02*
X99490000Y-50732500D01*
X254590000Y-57212500D02*
X254590000Y-50812500D01*
X305330000Y-124152500D02*
X305280000Y-124102500D01*
X95490000Y-72112500D02*
X95490000Y-92657500D01*
X52705000Y-75882500D02*
X52705000Y-55922500D01*
X256890000Y-68332500D02*
X251690000Y-73532500D01*
X95115000Y-93032500D02*
X95115000Y-94932500D01*
X211275000Y-95312500D02*
X211275000Y-89942500D01*
X120365000Y-93158500D02*
X117094000Y-89887500D01*
X124142500Y-109525000D02*
X120365000Y-105747500D01*
X52705000Y-55922500D02*
X58240000Y-50387500D01*
X105890000Y-54512500D02*
X105890000Y-70112500D01*
X283200000Y-113422500D02*
X278580000Y-108802500D01*
X155840000Y-90447000D02*
X156830000Y-91437000D01*
X268697500Y-95312500D02*
X268697500Y-92304500D01*
X221252500Y-109055000D02*
X217530000Y-105332500D01*
X125090000Y-61062500D02*
X125090000Y-70112500D01*
X121240000Y-57212500D02*
X125090000Y-61062500D01*
X278580000Y-108802500D02*
X278520000Y-108802500D01*
X101010000Y-86832500D02*
X101010000Y-91792500D01*
X101010000Y-74992500D02*
X101010000Y-86832500D01*
X149815000Y-76262500D02*
X155840000Y-82287500D01*
X101010000Y-91792500D02*
X101730000Y-92512500D01*
X278402500Y-126580000D02*
X281580000Y-123402500D01*
X101490000Y-74512500D02*
X101010000Y-74992500D01*
X155840000Y-82287500D02*
X155840000Y-90447000D01*
X278520000Y-108802500D02*
X278520000Y-104012500D01*
X102050000Y-50672500D02*
X105890000Y-54512500D01*
X217530000Y-91937500D02*
X218030000Y-91437500D01*
X228737500Y-94932500D02*
X228737500Y-92329500D01*
X228737500Y-92329500D02*
X229630000Y-91437000D01*
X268697500Y-92304500D02*
X267830000Y-91437000D01*
X283200000Y-121782500D02*
X283200000Y-113422500D01*
X278402500Y-133412500D02*
X278402500Y-126580000D01*
X281580000Y-123402500D02*
X283200000Y-121782500D01*
X149690000Y-70112500D02*
X149815000Y-70237500D01*
X221252500Y-114362500D02*
X221252500Y-109055000D01*
X102050000Y-48112500D02*
X102050000Y-50672500D01*
X217530000Y-105332500D02*
X217530000Y-91937500D01*
X149815000Y-70237500D02*
X149815000Y-76262500D01*
X105890000Y-70112500D02*
X101490000Y-74512500D01*
X270550000Y-71312500D02*
X276130000Y-65732500D01*
X276130000Y-59702500D02*
X273640000Y-57212500D01*
X202202500Y-114362500D02*
X202202500Y-109815000D01*
X106690000Y-53972500D02*
X106690000Y-70312500D01*
X276130000Y-65732500D02*
X276130000Y-59702500D01*
X267090000Y-127312500D02*
X260990000Y-133412500D01*
X104590000Y-48112500D02*
X104590000Y-51872500D01*
X140290000Y-57212500D02*
X143490000Y-60412500D01*
X202202500Y-109815000D02*
X202230000Y-109787500D01*
X104590000Y-51872500D02*
X106690000Y-53972500D01*
X271730000Y-84195000D02*
X271730000Y-105147500D01*
X109855000Y-73477500D02*
X109855000Y-75882500D01*
X260990000Y-133412500D02*
X259352500Y-133412500D01*
X186090000Y-71312500D02*
X186055000Y-71347500D01*
X271730000Y-105147500D02*
X267090000Y-109787500D01*
X263797500Y-76262500D02*
X271730000Y-84195000D01*
X263797500Y-71405000D02*
X263890000Y-71312500D01*
X106690000Y-70312500D02*
X107790000Y-71412500D01*
X186055000Y-71347500D02*
X186055000Y-75882500D01*
X263890000Y-71312500D02*
X270550000Y-71312500D01*
X143490000Y-60412500D02*
X143490000Y-71312500D01*
X263797500Y-76262500D02*
X263797500Y-71405000D01*
X107790000Y-71412500D02*
X109855000Y-73477500D01*
X267090000Y-109787500D02*
X267090000Y-127312500D01*
X157480000Y-56832500D02*
X158579999Y-57932499D01*
X297452500Y-132255000D02*
X294310000Y-129112500D01*
X158579999Y-64242500D02*
X158579999Y-64812501D01*
X297452500Y-133412500D02*
X297452500Y-132255000D01*
X292705000Y-127507500D02*
X294310000Y-129112500D01*
X136830000Y-95312500D02*
X140940000Y-99422500D01*
X117540000Y-77362500D02*
X107490000Y-67312500D01*
X283165000Y-76262500D02*
X283165000Y-76287500D01*
X143192500Y-108325000D02*
X143192500Y-113982500D01*
X140940000Y-99422500D02*
X140940000Y-106072500D01*
X117540000Y-87912500D02*
X117540000Y-77362500D01*
X135075000Y-95312500D02*
X136830000Y-95312500D01*
X158579999Y-57932499D02*
X158579999Y-64242500D01*
X283165000Y-76287500D02*
X288020000Y-81142500D01*
X158579999Y-64812501D02*
X155680000Y-67712500D01*
X140940000Y-106072500D02*
X143192500Y-108325000D01*
X117540000Y-87912500D02*
X121910000Y-92282500D01*
X121910000Y-92282500D02*
X122130000Y-92282500D01*
X107490000Y-65112500D02*
X107490000Y-67312500D01*
X288020000Y-81142500D02*
X288020000Y-122822500D01*
X107130000Y-48112500D02*
X107490000Y-48472500D01*
X107490000Y-48472500D02*
X107490000Y-65112500D01*
X288020000Y-122822500D02*
X292705000Y-127507500D01*
X234530000Y-93512500D02*
X234530000Y-107132500D01*
X154125000Y-86517500D02*
X154130000Y-86512500D01*
X179070000Y-129452500D02*
X167360000Y-117742500D01*
X118440000Y-76385088D02*
X118440000Y-83362500D01*
X250690000Y-107180000D02*
X250690000Y-107132500D01*
X109670000Y-67615088D02*
X118440000Y-76385088D01*
X179070000Y-133032500D02*
X179070000Y-129452500D01*
X227530000Y-86512500D02*
X234530000Y-93512500D01*
X178390000Y-57212500D02*
X182090000Y-60912500D01*
X118440000Y-83362500D02*
X121590000Y-86512500D01*
X176530000Y-56832500D02*
X172040000Y-52342500D01*
X257492500Y-113982500D02*
X250690000Y-107180000D01*
X182090000Y-60912500D02*
X182090000Y-72912500D01*
X154125000Y-95312500D02*
X154125000Y-86517500D01*
X228807500Y-79055000D02*
X228807500Y-85235000D01*
X228807500Y-85235000D02*
X227530000Y-86512500D01*
X167360000Y-108262500D02*
X167360000Y-117742500D01*
X226015000Y-76262500D02*
X228807500Y-79055000D01*
X109670000Y-48112500D02*
X109670000Y-67615088D01*
X90290000Y-64512500D02*
X90290000Y-64712500D01*
X102230000Y-104870000D02*
X105092500Y-107732500D01*
X102230000Y-94432500D02*
X102230000Y-104870000D01*
X96090000Y-88292500D02*
X98530000Y-90732500D01*
X173175000Y-95312500D02*
X173175000Y-89607500D01*
X201490000Y-61262500D02*
X201490000Y-69512500D01*
X173175000Y-89607500D02*
X174480000Y-88302500D01*
X243205000Y-75882500D02*
X243205000Y-69312500D01*
X248230000Y-79427500D02*
X245065000Y-76262500D01*
X90290000Y-64712500D02*
X96090000Y-70512500D01*
X248230000Y-90588000D02*
X248230000Y-79427500D01*
X96090000Y-83532500D02*
X96090000Y-88292500D01*
X96090000Y-70512500D02*
X96090000Y-83532500D01*
X243205000Y-62827500D02*
X243090000Y-62712500D01*
X197440000Y-57212500D02*
X201490000Y-61262500D01*
X243205000Y-69312500D02*
X243205000Y-62827500D01*
X98530000Y-90732500D02*
X102230000Y-94432500D01*
X105092500Y-107732500D02*
X105092500Y-113982500D01*
X91890000Y-53432500D02*
X90290000Y-55032500D01*
X90290000Y-55032500D02*
X90290000Y-64512500D01*
X174480000Y-88302500D02*
X174480000Y-69312500D01*
X91890000Y-48112500D02*
X91890000Y-53432500D01*
X103505000Y-79727500D02*
X103890000Y-80112500D01*
X145915000Y-97472500D02*
X145915000Y-99017500D01*
X109025000Y-88867500D02*
X109025000Y-91342500D01*
X145915000Y-99017500D02*
X146230000Y-99332500D01*
X109025000Y-91342500D02*
X109025000Y-91437000D01*
X115110000Y-113312500D02*
X119002500Y-113312500D01*
X73130000Y-92057500D02*
X70925000Y-94262500D01*
X109025000Y-94262500D02*
X106500000Y-94262500D01*
X103505000Y-78422500D02*
X103505000Y-79727500D01*
X73130000Y-91732500D02*
X73130000Y-92057500D01*
X67090000Y-67162500D02*
X77830000Y-77902500D01*
X103830000Y-102032500D02*
X115110000Y-113312500D01*
X64890000Y-51522500D02*
X67090000Y-53722500D01*
X77950000Y-90532500D02*
X79130000Y-91712500D01*
X109025000Y-91342500D02*
X109025000Y-94262500D01*
X103830000Y-96932500D02*
X103830000Y-102032500D01*
X128075000Y-91442000D02*
X128070000Y-91437000D01*
X146230000Y-99332500D02*
X146230000Y-102440000D01*
X128075000Y-94262500D02*
X128075000Y-91442000D01*
X106500000Y-94262500D02*
X103830000Y-96932500D01*
X67090000Y-53722500D02*
X67090000Y-67162500D01*
X103890000Y-80112500D02*
X103890000Y-83732500D01*
X77830000Y-90532500D02*
X77950000Y-90532500D01*
X77830000Y-77902500D02*
X77830000Y-90532500D01*
X146230000Y-102440000D02*
X157102500Y-113312500D01*
X64890000Y-48112500D02*
X64890000Y-51522500D01*
X103890000Y-83732500D02*
X109025000Y-88867500D01*
X309300000Y-131912500D02*
X309300000Y-128302500D01*
X309300000Y-128302500D02*
X309420000Y-128302500D01*
X291830000Y-110142500D02*
X292992500Y-111305000D01*
X292992500Y-111305000D02*
X292992500Y-113312500D01*
X80130000Y-48112500D02*
X80130000Y-50593500D01*
X292675000Y-82959366D02*
X292675000Y-94262500D01*
X298767500Y-78422500D02*
X297211866Y-78422500D01*
X291782500Y-117915000D02*
X292210000Y-118342500D01*
X291782500Y-116522500D02*
X291782500Y-117915000D01*
X297211866Y-78422500D02*
X292675000Y-82959366D01*
X291465000Y-97472500D02*
X291830000Y-97837500D01*
X292210000Y-122272500D02*
X296480000Y-126542500D01*
X292210000Y-118342500D02*
X292210000Y-122272500D01*
X307960000Y-133252500D02*
X309300000Y-131912500D01*
X291830000Y-97837500D02*
X291830000Y-110142500D01*
X80130000Y-50593500D02*
X82400000Y-52863500D01*
X306630000Y-130772500D02*
X306630000Y-126502500D01*
X306660000Y-133252500D02*
X306660000Y-134702500D01*
X301820000Y-135012500D02*
X293320000Y-126512500D01*
X306660000Y-134702500D02*
X306350000Y-135012500D01*
X306350000Y-135012500D02*
X301820000Y-135012500D01*
M02*
