G04 #@! TF.GenerationSoftware,KiCad,Pcbnew,7.0.6*
G04 #@! TF.CreationDate,2024-02-02T16:23:30-05:00*
G04 #@! TF.ProjectId,Galaksija-mx,47616c61-6b73-4696-9a61-2d6d782e6b69,1.0*
G04 #@! TF.SameCoordinates,Original*
G04 #@! TF.FileFunction,Legend,Bot*
G04 #@! TF.FilePolarity,Positive*
%FSLAX46Y46*%
G04 Gerber Fmt 4.6, Leading zero omitted, Abs format (unit mm)*
G04 Created by KiCad (PCBNEW 7.0.6) date 2024-02-02 16:23:30*
%MOMM*%
%LPD*%
G01*
G04 APERTURE LIST*
%ADD10C,0.120000*%
%ADD11C,0.200000*%
%ADD12C,0.400000*%
%ADD13C,0.150000*%
G04 APERTURE END LIST*
D10*
X300610000Y-130522500D02*
X300610000Y-145682500D01*
X300610000Y-130272500D02*
X300610000Y-130522500D01*
X247420000Y-130312500D02*
X300610000Y-130272500D01*
X247420000Y-130312500D02*
X247420000Y-145712500D01*
X247420000Y-145712500D02*
X299510000Y-145682500D01*
X297760000Y-52362500D02*
X316820000Y-52362500D01*
X316820000Y-73372500D01*
X297760000Y-73372500D01*
X297760000Y-52362500D01*
X300610000Y-145682500D02*
X299510000Y-145682500D01*
D11*
X260808571Y-86538528D02*
X261522857Y-86538528D01*
X261522857Y-86538528D02*
X261522857Y-85038528D01*
X260308571Y-85752814D02*
X259808571Y-85752814D01*
X259594285Y-86538528D02*
X260308571Y-86538528D01*
X260308571Y-86538528D02*
X260308571Y-85038528D01*
X260308571Y-85038528D02*
X259594285Y-85038528D01*
X258451428Y-85752814D02*
X258951428Y-85752814D01*
X258951428Y-86538528D02*
X258951428Y-85038528D01*
X258951428Y-85038528D02*
X258237142Y-85038528D01*
X257879999Y-85038528D02*
X257022857Y-85038528D01*
X257451428Y-86538528D02*
X257451428Y-85038528D01*
X179869999Y-143627100D02*
X179655714Y-143698528D01*
X179655714Y-143698528D02*
X179298571Y-143698528D01*
X179298571Y-143698528D02*
X179155714Y-143627100D01*
X179155714Y-143627100D02*
X179084285Y-143555671D01*
X179084285Y-143555671D02*
X179012856Y-143412814D01*
X179012856Y-143412814D02*
X179012856Y-143269957D01*
X179012856Y-143269957D02*
X179084285Y-143127100D01*
X179084285Y-143127100D02*
X179155714Y-143055671D01*
X179155714Y-143055671D02*
X179298571Y-142984242D01*
X179298571Y-142984242D02*
X179584285Y-142912814D01*
X179584285Y-142912814D02*
X179727142Y-142841385D01*
X179727142Y-142841385D02*
X179798571Y-142769957D01*
X179798571Y-142769957D02*
X179869999Y-142627100D01*
X179869999Y-142627100D02*
X179869999Y-142484242D01*
X179869999Y-142484242D02*
X179798571Y-142341385D01*
X179798571Y-142341385D02*
X179727142Y-142269957D01*
X179727142Y-142269957D02*
X179584285Y-142198528D01*
X179584285Y-142198528D02*
X179227142Y-142198528D01*
X179227142Y-142198528D02*
X179012856Y-142269957D01*
X178370000Y-143698528D02*
X178370000Y-142198528D01*
X178370000Y-142198528D02*
X177798571Y-142198528D01*
X177798571Y-142198528D02*
X177655714Y-142269957D01*
X177655714Y-142269957D02*
X177584285Y-142341385D01*
X177584285Y-142341385D02*
X177512857Y-142484242D01*
X177512857Y-142484242D02*
X177512857Y-142698528D01*
X177512857Y-142698528D02*
X177584285Y-142841385D01*
X177584285Y-142841385D02*
X177655714Y-142912814D01*
X177655714Y-142912814D02*
X177798571Y-142984242D01*
X177798571Y-142984242D02*
X178370000Y-142984242D01*
X176941428Y-143269957D02*
X176227143Y-143269957D01*
X177084285Y-143698528D02*
X176584285Y-142198528D01*
X176584285Y-142198528D02*
X176084285Y-143698528D01*
X174727143Y-143555671D02*
X174798571Y-143627100D01*
X174798571Y-143627100D02*
X175012857Y-143698528D01*
X175012857Y-143698528D02*
X175155714Y-143698528D01*
X175155714Y-143698528D02*
X175370000Y-143627100D01*
X175370000Y-143627100D02*
X175512857Y-143484242D01*
X175512857Y-143484242D02*
X175584286Y-143341385D01*
X175584286Y-143341385D02*
X175655714Y-143055671D01*
X175655714Y-143055671D02*
X175655714Y-142841385D01*
X175655714Y-142841385D02*
X175584286Y-142555671D01*
X175584286Y-142555671D02*
X175512857Y-142412814D01*
X175512857Y-142412814D02*
X175370000Y-142269957D01*
X175370000Y-142269957D02*
X175155714Y-142198528D01*
X175155714Y-142198528D02*
X175012857Y-142198528D01*
X175012857Y-142198528D02*
X174798571Y-142269957D01*
X174798571Y-142269957D02*
X174727143Y-142341385D01*
X174084286Y-142912814D02*
X173584286Y-142912814D01*
X173370000Y-143698528D02*
X174084286Y-143698528D01*
X174084286Y-143698528D02*
X174084286Y-142198528D01*
X174084286Y-142198528D02*
X173370000Y-142198528D01*
X65015713Y-124577100D02*
X64801428Y-124648528D01*
X64801428Y-124648528D02*
X64444285Y-124648528D01*
X64444285Y-124648528D02*
X64301428Y-124577100D01*
X64301428Y-124577100D02*
X64229999Y-124505671D01*
X64229999Y-124505671D02*
X64158570Y-124362814D01*
X64158570Y-124362814D02*
X64158570Y-124219957D01*
X64158570Y-124219957D02*
X64229999Y-124077100D01*
X64229999Y-124077100D02*
X64301428Y-124005671D01*
X64301428Y-124005671D02*
X64444285Y-123934242D01*
X64444285Y-123934242D02*
X64729999Y-123862814D01*
X64729999Y-123862814D02*
X64872856Y-123791385D01*
X64872856Y-123791385D02*
X64944285Y-123719957D01*
X64944285Y-123719957D02*
X65015713Y-123577100D01*
X65015713Y-123577100D02*
X65015713Y-123434242D01*
X65015713Y-123434242D02*
X64944285Y-123291385D01*
X64944285Y-123291385D02*
X64872856Y-123219957D01*
X64872856Y-123219957D02*
X64729999Y-123148528D01*
X64729999Y-123148528D02*
X64372856Y-123148528D01*
X64372856Y-123148528D02*
X64158570Y-123219957D01*
X63515714Y-124648528D02*
X63515714Y-123148528D01*
X63515714Y-123862814D02*
X62658571Y-123862814D01*
X62658571Y-124648528D02*
X62658571Y-123148528D01*
X61944285Y-124648528D02*
X61944285Y-123148528D01*
X60729999Y-123862814D02*
X61229999Y-123862814D01*
X61229999Y-124648528D02*
X61229999Y-123148528D01*
X61229999Y-123148528D02*
X60515713Y-123148528D01*
X60158570Y-123148528D02*
X59301428Y-123148528D01*
X59729999Y-124648528D02*
X59729999Y-123148528D01*
X187765713Y-103988528D02*
X187765713Y-105059957D01*
X187765713Y-105059957D02*
X187837142Y-105274242D01*
X187837142Y-105274242D02*
X187979999Y-105417100D01*
X187979999Y-105417100D02*
X188194285Y-105488528D01*
X188194285Y-105488528D02*
X188337142Y-105488528D01*
X245358571Y-105517100D02*
X245358571Y-105588528D01*
X245358571Y-105588528D02*
X245430000Y-105731385D01*
X245430000Y-105731385D02*
X245501428Y-105802814D01*
X245430000Y-104659957D02*
X245358571Y-104731385D01*
X245358571Y-104731385D02*
X245430000Y-104802814D01*
X245430000Y-104802814D02*
X245501428Y-104731385D01*
X245501428Y-104731385D02*
X245430000Y-104659957D01*
X245430000Y-104659957D02*
X245430000Y-104802814D01*
X130515714Y-104652814D02*
X131015714Y-104652814D01*
X131015714Y-105438528D02*
X131015714Y-103938528D01*
X131015714Y-103938528D02*
X130301428Y-103938528D01*
X159491279Y-124052814D02*
X159276993Y-124124242D01*
X159276993Y-124124242D02*
X159205564Y-124195671D01*
X159205564Y-124195671D02*
X159134136Y-124338528D01*
X159134136Y-124338528D02*
X159134136Y-124552814D01*
X159134136Y-124552814D02*
X159205564Y-124695671D01*
X159205564Y-124695671D02*
X159276993Y-124767100D01*
X159276993Y-124767100D02*
X159419850Y-124838528D01*
X159419850Y-124838528D02*
X159991279Y-124838528D01*
X159991279Y-124838528D02*
X159991279Y-123338528D01*
X159991279Y-123338528D02*
X159491279Y-123338528D01*
X159491279Y-123338528D02*
X159348422Y-123409957D01*
X159348422Y-123409957D02*
X159276993Y-123481385D01*
X159276993Y-123481385D02*
X159205564Y-123624242D01*
X159205564Y-123624242D02*
X159205564Y-123767100D01*
X159205564Y-123767100D02*
X159276993Y-123909957D01*
X159276993Y-123909957D02*
X159348422Y-123981385D01*
X159348422Y-123981385D02*
X159491279Y-124052814D01*
X159491279Y-124052814D02*
X159991279Y-124052814D01*
D12*
X157145890Y-139301700D02*
X156860176Y-139396938D01*
X156860176Y-139396938D02*
X156383985Y-139396938D01*
X156383985Y-139396938D02*
X156193509Y-139301700D01*
X156193509Y-139301700D02*
X156098271Y-139206461D01*
X156098271Y-139206461D02*
X156003033Y-139015985D01*
X156003033Y-139015985D02*
X156003033Y-138825509D01*
X156003033Y-138825509D02*
X156098271Y-138635033D01*
X156098271Y-138635033D02*
X156193509Y-138539795D01*
X156193509Y-138539795D02*
X156383985Y-138444557D01*
X156383985Y-138444557D02*
X156764938Y-138349319D01*
X156764938Y-138349319D02*
X156955414Y-138254080D01*
X156955414Y-138254080D02*
X157050652Y-138158842D01*
X157050652Y-138158842D02*
X157145890Y-137968366D01*
X157145890Y-137968366D02*
X157145890Y-137777890D01*
X157145890Y-137777890D02*
X157050652Y-137587414D01*
X157050652Y-137587414D02*
X156955414Y-137492176D01*
X156955414Y-137492176D02*
X156764938Y-137396938D01*
X156764938Y-137396938D02*
X156288747Y-137396938D01*
X156288747Y-137396938D02*
X156003033Y-137492176D01*
X154764938Y-137396938D02*
X154383985Y-137396938D01*
X154383985Y-137396938D02*
X154193509Y-137492176D01*
X154193509Y-137492176D02*
X154003033Y-137682652D01*
X154003033Y-137682652D02*
X153907795Y-138063604D01*
X153907795Y-138063604D02*
X153907795Y-138730271D01*
X153907795Y-138730271D02*
X154003033Y-139111223D01*
X154003033Y-139111223D02*
X154193509Y-139301700D01*
X154193509Y-139301700D02*
X154383985Y-139396938D01*
X154383985Y-139396938D02*
X154764938Y-139396938D01*
X154764938Y-139396938D02*
X154955414Y-139301700D01*
X154955414Y-139301700D02*
X155145890Y-139111223D01*
X155145890Y-139111223D02*
X155241128Y-138730271D01*
X155241128Y-138730271D02*
X155241128Y-138063604D01*
X155241128Y-138063604D02*
X155145890Y-137682652D01*
X155145890Y-137682652D02*
X154955414Y-137492176D01*
X154955414Y-137492176D02*
X154764938Y-137396938D01*
X152098271Y-139396938D02*
X153050652Y-139396938D01*
X153050652Y-139396938D02*
X153050652Y-137396938D01*
X151431604Y-139396938D02*
X151431604Y-137396938D01*
X151431604Y-137396938D02*
X150955414Y-137396938D01*
X150955414Y-137396938D02*
X150669699Y-137492176D01*
X150669699Y-137492176D02*
X150479223Y-137682652D01*
X150479223Y-137682652D02*
X150383985Y-137873128D01*
X150383985Y-137873128D02*
X150288747Y-138254080D01*
X150288747Y-138254080D02*
X150288747Y-138539795D01*
X150288747Y-138539795D02*
X150383985Y-138920747D01*
X150383985Y-138920747D02*
X150479223Y-139111223D01*
X150479223Y-139111223D02*
X150669699Y-139301700D01*
X150669699Y-139301700D02*
X150955414Y-139396938D01*
X150955414Y-139396938D02*
X151431604Y-139396938D01*
X149431604Y-138349319D02*
X148764937Y-138349319D01*
X148479223Y-139396938D02*
X149431604Y-139396938D01*
X149431604Y-139396938D02*
X149431604Y-137396938D01*
X149431604Y-137396938D02*
X148479223Y-137396938D01*
X146479223Y-139396938D02*
X147145890Y-138444557D01*
X147622080Y-139396938D02*
X147622080Y-137396938D01*
X147622080Y-137396938D02*
X146860175Y-137396938D01*
X146860175Y-137396938D02*
X146669699Y-137492176D01*
X146669699Y-137492176D02*
X146574461Y-137587414D01*
X146574461Y-137587414D02*
X146479223Y-137777890D01*
X146479223Y-137777890D02*
X146479223Y-138063604D01*
X146479223Y-138063604D02*
X146574461Y-138254080D01*
X146574461Y-138254080D02*
X146669699Y-138349319D01*
X146669699Y-138349319D02*
X146860175Y-138444557D01*
X146860175Y-138444557D02*
X147622080Y-138444557D01*
X144193508Y-139301700D02*
X143907794Y-139396938D01*
X143907794Y-139396938D02*
X143431603Y-139396938D01*
X143431603Y-139396938D02*
X143241127Y-139301700D01*
X143241127Y-139301700D02*
X143145889Y-139206461D01*
X143145889Y-139206461D02*
X143050651Y-139015985D01*
X143050651Y-139015985D02*
X143050651Y-138825509D01*
X143050651Y-138825509D02*
X143145889Y-138635033D01*
X143145889Y-138635033D02*
X143241127Y-138539795D01*
X143241127Y-138539795D02*
X143431603Y-138444557D01*
X143431603Y-138444557D02*
X143812556Y-138349319D01*
X143812556Y-138349319D02*
X144003032Y-138254080D01*
X144003032Y-138254080D02*
X144098270Y-138158842D01*
X144098270Y-138158842D02*
X144193508Y-137968366D01*
X144193508Y-137968366D02*
X144193508Y-137777890D01*
X144193508Y-137777890D02*
X144098270Y-137587414D01*
X144098270Y-137587414D02*
X144003032Y-137492176D01*
X144003032Y-137492176D02*
X143812556Y-137396938D01*
X143812556Y-137396938D02*
X143336365Y-137396938D01*
X143336365Y-137396938D02*
X143050651Y-137492176D01*
X142193508Y-139396938D02*
X142193508Y-137396938D01*
X141241127Y-139396938D02*
X141241127Y-137396938D01*
X141241127Y-137396938D02*
X140764937Y-137396938D01*
X140764937Y-137396938D02*
X140479222Y-137492176D01*
X140479222Y-137492176D02*
X140288746Y-137682652D01*
X140288746Y-137682652D02*
X140193508Y-137873128D01*
X140193508Y-137873128D02*
X140098270Y-138254080D01*
X140098270Y-138254080D02*
X140098270Y-138539795D01*
X140098270Y-138539795D02*
X140193508Y-138920747D01*
X140193508Y-138920747D02*
X140288746Y-139111223D01*
X140288746Y-139111223D02*
X140479222Y-139301700D01*
X140479222Y-139301700D02*
X140764937Y-139396938D01*
X140764937Y-139396938D02*
X141241127Y-139396938D01*
X139241127Y-138349319D02*
X138574460Y-138349319D01*
X138288746Y-139396938D02*
X139241127Y-139396938D01*
X139241127Y-139396938D02*
X139241127Y-137396938D01*
X139241127Y-137396938D02*
X138288746Y-137396938D01*
D11*
X107651428Y-85702814D02*
X107151428Y-85702814D01*
X106937142Y-86488528D02*
X107651428Y-86488528D01*
X107651428Y-86488528D02*
X107651428Y-84988528D01*
X107651428Y-84988528D02*
X106937142Y-84988528D01*
X79168570Y-66181385D02*
X79097142Y-66109957D01*
X79097142Y-66109957D02*
X78954285Y-66038528D01*
X78954285Y-66038528D02*
X78597142Y-66038528D01*
X78597142Y-66038528D02*
X78454285Y-66109957D01*
X78454285Y-66109957D02*
X78382856Y-66181385D01*
X78382856Y-66181385D02*
X78311427Y-66324242D01*
X78311427Y-66324242D02*
X78311427Y-66467100D01*
X78311427Y-66467100D02*
X78382856Y-66681385D01*
X78382856Y-66681385D02*
X79239999Y-67538528D01*
X79239999Y-67538528D02*
X78311427Y-67538528D01*
X57351429Y-105288528D02*
X57351429Y-103788528D01*
X57351429Y-103788528D02*
X56994286Y-103788528D01*
X56994286Y-103788528D02*
X56780000Y-103859957D01*
X56780000Y-103859957D02*
X56637143Y-104002814D01*
X56637143Y-104002814D02*
X56565714Y-104145671D01*
X56565714Y-104145671D02*
X56494286Y-104431385D01*
X56494286Y-104431385D02*
X56494286Y-104645671D01*
X56494286Y-104645671D02*
X56565714Y-104931385D01*
X56565714Y-104931385D02*
X56637143Y-105074242D01*
X56637143Y-105074242D02*
X56780000Y-105217100D01*
X56780000Y-105217100D02*
X56994286Y-105288528D01*
X56994286Y-105288528D02*
X57351429Y-105288528D01*
X55565714Y-103788528D02*
X55280000Y-103788528D01*
X55280000Y-103788528D02*
X55137143Y-103859957D01*
X55137143Y-103859957D02*
X54994286Y-104002814D01*
X54994286Y-104002814D02*
X54922857Y-104288528D01*
X54922857Y-104288528D02*
X54922857Y-104788528D01*
X54922857Y-104788528D02*
X54994286Y-105074242D01*
X54994286Y-105074242D02*
X55137143Y-105217100D01*
X55137143Y-105217100D02*
X55280000Y-105288528D01*
X55280000Y-105288528D02*
X55565714Y-105288528D01*
X55565714Y-105288528D02*
X55708572Y-105217100D01*
X55708572Y-105217100D02*
X55851429Y-105074242D01*
X55851429Y-105074242D02*
X55922857Y-104788528D01*
X55922857Y-104788528D02*
X55922857Y-104288528D01*
X55922857Y-104288528D02*
X55851429Y-104002814D01*
X55851429Y-104002814D02*
X55708572Y-103859957D01*
X55708572Y-103859957D02*
X55565714Y-103788528D01*
X54422857Y-103788528D02*
X54065714Y-105288528D01*
X54065714Y-105288528D02*
X53780000Y-104217100D01*
X53780000Y-104217100D02*
X53494285Y-105288528D01*
X53494285Y-105288528D02*
X53137143Y-103788528D01*
X52565714Y-105288528D02*
X52565714Y-103788528D01*
X52565714Y-103788528D02*
X51708571Y-105288528D01*
X51708571Y-105288528D02*
X51708571Y-103788528D01*
X207222857Y-105538528D02*
X207222857Y-104038528D01*
X206365714Y-105538528D02*
X207008571Y-104681385D01*
X206365714Y-104038528D02*
X207222857Y-104895671D01*
X179208571Y-124788528D02*
X179208571Y-123288528D01*
X179208571Y-123288528D02*
X178351428Y-124788528D01*
X178351428Y-124788528D02*
X178351428Y-123288528D01*
X310197142Y-67568528D02*
X310697142Y-66854242D01*
X311054285Y-67568528D02*
X311054285Y-66068528D01*
X311054285Y-66068528D02*
X310482856Y-66068528D01*
X310482856Y-66068528D02*
X310339999Y-66139957D01*
X310339999Y-66139957D02*
X310268570Y-66211385D01*
X310268570Y-66211385D02*
X310197142Y-66354242D01*
X310197142Y-66354242D02*
X310197142Y-66568528D01*
X310197142Y-66568528D02*
X310268570Y-66711385D01*
X310268570Y-66711385D02*
X310339999Y-66782814D01*
X310339999Y-66782814D02*
X310482856Y-66854242D01*
X310482856Y-66854242D02*
X311054285Y-66854242D01*
X309554285Y-66782814D02*
X309054285Y-66782814D01*
X308839999Y-67568528D02*
X309554285Y-67568528D01*
X309554285Y-67568528D02*
X309554285Y-66068528D01*
X309554285Y-66068528D02*
X308839999Y-66068528D01*
X308197142Y-67568528D02*
X308197142Y-66068528D01*
X308197142Y-66068528D02*
X307625713Y-66068528D01*
X307625713Y-66068528D02*
X307482856Y-66139957D01*
X307482856Y-66139957D02*
X307411427Y-66211385D01*
X307411427Y-66211385D02*
X307339999Y-66354242D01*
X307339999Y-66354242D02*
X307339999Y-66568528D01*
X307339999Y-66568528D02*
X307411427Y-66711385D01*
X307411427Y-66711385D02*
X307482856Y-66782814D01*
X307482856Y-66782814D02*
X307625713Y-66854242D01*
X307625713Y-66854242D02*
X308197142Y-66854242D01*
X306697142Y-66782814D02*
X306197142Y-66782814D01*
X305982856Y-67568528D02*
X306697142Y-67568528D01*
X306697142Y-67568528D02*
X306697142Y-66068528D01*
X306697142Y-66068528D02*
X305982856Y-66068528D01*
X305411427Y-67139957D02*
X304697142Y-67139957D01*
X305554284Y-67568528D02*
X305054284Y-66068528D01*
X305054284Y-66068528D02*
X304554284Y-67568528D01*
X304268570Y-66068528D02*
X303411428Y-66068528D01*
X303839999Y-67568528D02*
X303839999Y-66068528D01*
X291054285Y-66752814D02*
X290839999Y-66824242D01*
X290839999Y-66824242D02*
X290768570Y-66895671D01*
X290768570Y-66895671D02*
X290697142Y-67038528D01*
X290697142Y-67038528D02*
X290697142Y-67252814D01*
X290697142Y-67252814D02*
X290768570Y-67395671D01*
X290768570Y-67395671D02*
X290839999Y-67467100D01*
X290839999Y-67467100D02*
X290982856Y-67538528D01*
X290982856Y-67538528D02*
X291554285Y-67538528D01*
X291554285Y-67538528D02*
X291554285Y-66038528D01*
X291554285Y-66038528D02*
X291054285Y-66038528D01*
X291054285Y-66038528D02*
X290911428Y-66109957D01*
X290911428Y-66109957D02*
X290839999Y-66181385D01*
X290839999Y-66181385D02*
X290768570Y-66324242D01*
X290768570Y-66324242D02*
X290768570Y-66467100D01*
X290768570Y-66467100D02*
X290839999Y-66609957D01*
X290839999Y-66609957D02*
X290911428Y-66681385D01*
X290911428Y-66681385D02*
X291054285Y-66752814D01*
X291054285Y-66752814D02*
X291554285Y-66752814D01*
X289197142Y-67538528D02*
X289697142Y-66824242D01*
X290054285Y-67538528D02*
X290054285Y-66038528D01*
X290054285Y-66038528D02*
X289482856Y-66038528D01*
X289482856Y-66038528D02*
X289339999Y-66109957D01*
X289339999Y-66109957D02*
X289268570Y-66181385D01*
X289268570Y-66181385D02*
X289197142Y-66324242D01*
X289197142Y-66324242D02*
X289197142Y-66538528D01*
X289197142Y-66538528D02*
X289268570Y-66681385D01*
X289268570Y-66681385D02*
X289339999Y-66752814D01*
X289339999Y-66752814D02*
X289482856Y-66824242D01*
X289482856Y-66824242D02*
X290054285Y-66824242D01*
X288554285Y-66752814D02*
X288054285Y-66752814D01*
X287839999Y-67538528D02*
X288554285Y-67538528D01*
X288554285Y-67538528D02*
X288554285Y-66038528D01*
X288554285Y-66038528D02*
X287839999Y-66038528D01*
X287268570Y-67109957D02*
X286554285Y-67109957D01*
X287411427Y-67538528D02*
X286911427Y-66038528D01*
X286911427Y-66038528D02*
X286411427Y-67538528D01*
X285911428Y-67538528D02*
X285911428Y-66038528D01*
X285054285Y-67538528D02*
X285697142Y-66681385D01*
X285054285Y-66038528D02*
X285911428Y-66895671D01*
X298437143Y-104852814D02*
X297937143Y-104852814D01*
X297722857Y-105638528D02*
X298437143Y-105638528D01*
X298437143Y-105638528D02*
X298437143Y-104138528D01*
X298437143Y-104138528D02*
X297722857Y-104138528D01*
X297080000Y-105638528D02*
X297080000Y-104138528D01*
X297080000Y-104138528D02*
X296222857Y-105638528D01*
X296222857Y-105638528D02*
X296222857Y-104138528D01*
X295722856Y-104138528D02*
X294865714Y-104138528D01*
X295294285Y-105638528D02*
X295294285Y-104138528D01*
X294365714Y-104852814D02*
X293865714Y-104852814D01*
X293651428Y-105638528D02*
X294365714Y-105638528D01*
X294365714Y-105638528D02*
X294365714Y-104138528D01*
X294365714Y-104138528D02*
X293651428Y-104138528D01*
X292151428Y-105638528D02*
X292651428Y-104924242D01*
X293008571Y-105638528D02*
X293008571Y-104138528D01*
X293008571Y-104138528D02*
X292437142Y-104138528D01*
X292437142Y-104138528D02*
X292294285Y-104209957D01*
X292294285Y-104209957D02*
X292222856Y-104281385D01*
X292222856Y-104281385D02*
X292151428Y-104424242D01*
X292151428Y-104424242D02*
X292151428Y-104638528D01*
X292151428Y-104638528D02*
X292222856Y-104781385D01*
X292222856Y-104781385D02*
X292294285Y-104852814D01*
X292294285Y-104852814D02*
X292437142Y-104924242D01*
X292437142Y-104924242D02*
X293008571Y-104924242D01*
X216808571Y-124517100D02*
X216808571Y-124588528D01*
X216808571Y-124588528D02*
X216880000Y-124731385D01*
X216880000Y-124731385D02*
X216951428Y-124802814D01*
X68658571Y-86631385D02*
X68801428Y-86559957D01*
X68801428Y-86559957D02*
X68944285Y-86417100D01*
X68944285Y-86417100D02*
X69158571Y-86202814D01*
X69158571Y-86202814D02*
X69301428Y-86131385D01*
X69301428Y-86131385D02*
X69444285Y-86131385D01*
X69372856Y-86488528D02*
X69515714Y-86417100D01*
X69515714Y-86417100D02*
X69658571Y-86274242D01*
X69658571Y-86274242D02*
X69729999Y-85988528D01*
X69729999Y-85988528D02*
X69729999Y-85488528D01*
X69729999Y-85488528D02*
X69658571Y-85202814D01*
X69658571Y-85202814D02*
X69515714Y-85059957D01*
X69515714Y-85059957D02*
X69372856Y-84988528D01*
X69372856Y-84988528D02*
X69087142Y-84988528D01*
X69087142Y-84988528D02*
X68944285Y-85059957D01*
X68944285Y-85059957D02*
X68801428Y-85202814D01*
X68801428Y-85202814D02*
X68729999Y-85488528D01*
X68729999Y-85488528D02*
X68729999Y-85988528D01*
X68729999Y-85988528D02*
X68801428Y-86274242D01*
X68801428Y-86274242D02*
X68944285Y-86417100D01*
X68944285Y-86417100D02*
X69087142Y-86488528D01*
X69087142Y-86488528D02*
X69372856Y-86488528D01*
X98289999Y-65988528D02*
X97361427Y-65988528D01*
X97361427Y-65988528D02*
X97861427Y-66559957D01*
X97861427Y-66559957D02*
X97647142Y-66559957D01*
X97647142Y-66559957D02*
X97504285Y-66631385D01*
X97504285Y-66631385D02*
X97432856Y-66702814D01*
X97432856Y-66702814D02*
X97361427Y-66845671D01*
X97361427Y-66845671D02*
X97361427Y-67202814D01*
X97361427Y-67202814D02*
X97432856Y-67345671D01*
X97432856Y-67345671D02*
X97504285Y-67417100D01*
X97504285Y-67417100D02*
X97647142Y-67488528D01*
X97647142Y-67488528D02*
X98075713Y-67488528D01*
X98075713Y-67488528D02*
X98218570Y-67417100D01*
X98218570Y-67417100D02*
X98289999Y-67345671D01*
X225815714Y-105638528D02*
X226530000Y-105638528D01*
X226530000Y-105638528D02*
X226530000Y-104138528D01*
X241072857Y-86488528D02*
X241072857Y-84988528D01*
X241072857Y-84988528D02*
X240501428Y-84988528D01*
X240501428Y-84988528D02*
X240358571Y-85059957D01*
X240358571Y-85059957D02*
X240287142Y-85131385D01*
X240287142Y-85131385D02*
X240215714Y-85274242D01*
X240215714Y-85274242D02*
X240215714Y-85488528D01*
X240215714Y-85488528D02*
X240287142Y-85631385D01*
X240287142Y-85631385D02*
X240358571Y-85702814D01*
X240358571Y-85702814D02*
X240501428Y-85774242D01*
X240501428Y-85774242D02*
X241072857Y-85774242D01*
X141079999Y-123288528D02*
X140579999Y-124788528D01*
X140579999Y-124788528D02*
X140079999Y-123288528D01*
X202530000Y-86488528D02*
X202530000Y-84988528D01*
X231211427Y-65988528D02*
X231068570Y-65988528D01*
X231068570Y-65988528D02*
X230925713Y-66059957D01*
X230925713Y-66059957D02*
X230854285Y-66131385D01*
X230854285Y-66131385D02*
X230782856Y-66274242D01*
X230782856Y-66274242D02*
X230711427Y-66559957D01*
X230711427Y-66559957D02*
X230711427Y-66917100D01*
X230711427Y-66917100D02*
X230782856Y-67202814D01*
X230782856Y-67202814D02*
X230854285Y-67345671D01*
X230854285Y-67345671D02*
X230925713Y-67417100D01*
X230925713Y-67417100D02*
X231068570Y-67488528D01*
X231068570Y-67488528D02*
X231211427Y-67488528D01*
X231211427Y-67488528D02*
X231354285Y-67417100D01*
X231354285Y-67417100D02*
X231425713Y-67345671D01*
X231425713Y-67345671D02*
X231497142Y-67202814D01*
X231497142Y-67202814D02*
X231568570Y-66917100D01*
X231568570Y-66917100D02*
X231568570Y-66559957D01*
X231568570Y-66559957D02*
X231497142Y-66274242D01*
X231497142Y-66274242D02*
X231425713Y-66131385D01*
X231425713Y-66131385D02*
X231354285Y-66059957D01*
X231354285Y-66059957D02*
X231211427Y-65988528D01*
X276821429Y-143808528D02*
X276821429Y-142308528D01*
X276821429Y-142308528D02*
X276464286Y-142308528D01*
X276464286Y-142308528D02*
X276250000Y-142379957D01*
X276250000Y-142379957D02*
X276107143Y-142522814D01*
X276107143Y-142522814D02*
X276035714Y-142665671D01*
X276035714Y-142665671D02*
X275964286Y-142951385D01*
X275964286Y-142951385D02*
X275964286Y-143165671D01*
X275964286Y-143165671D02*
X276035714Y-143451385D01*
X276035714Y-143451385D02*
X276107143Y-143594242D01*
X276107143Y-143594242D02*
X276250000Y-143737100D01*
X276250000Y-143737100D02*
X276464286Y-143808528D01*
X276464286Y-143808528D02*
X276821429Y-143808528D01*
X275035714Y-142308528D02*
X274750000Y-142308528D01*
X274750000Y-142308528D02*
X274607143Y-142379957D01*
X274607143Y-142379957D02*
X274464286Y-142522814D01*
X274464286Y-142522814D02*
X274392857Y-142808528D01*
X274392857Y-142808528D02*
X274392857Y-143308528D01*
X274392857Y-143308528D02*
X274464286Y-143594242D01*
X274464286Y-143594242D02*
X274607143Y-143737100D01*
X274607143Y-143737100D02*
X274750000Y-143808528D01*
X274750000Y-143808528D02*
X275035714Y-143808528D01*
X275035714Y-143808528D02*
X275178572Y-143737100D01*
X275178572Y-143737100D02*
X275321429Y-143594242D01*
X275321429Y-143594242D02*
X275392857Y-143308528D01*
X275392857Y-143308528D02*
X275392857Y-142808528D01*
X275392857Y-142808528D02*
X275321429Y-142522814D01*
X275321429Y-142522814D02*
X275178572Y-142379957D01*
X275178572Y-142379957D02*
X275035714Y-142308528D01*
X273892857Y-142308528D02*
X273535714Y-143808528D01*
X273535714Y-143808528D02*
X273250000Y-142737100D01*
X273250000Y-142737100D02*
X272964285Y-143808528D01*
X272964285Y-143808528D02*
X272607143Y-142308528D01*
X272035714Y-143808528D02*
X272035714Y-142308528D01*
X272035714Y-142308528D02*
X271178571Y-143808528D01*
X271178571Y-143808528D02*
X271178571Y-142308528D01*
D13*
X316905827Y-137115842D02*
X316905827Y-135915842D01*
X316905827Y-135915842D02*
X316220113Y-137115842D01*
X316220113Y-137115842D02*
X316220113Y-135915842D01*
X315420113Y-135915842D02*
X315191541Y-135915842D01*
X315191541Y-135915842D02*
X315077256Y-135972985D01*
X315077256Y-135972985D02*
X314962970Y-136087271D01*
X314962970Y-136087271D02*
X314905827Y-136315842D01*
X314905827Y-136315842D02*
X314905827Y-136715842D01*
X314905827Y-136715842D02*
X314962970Y-136944414D01*
X314962970Y-136944414D02*
X315077256Y-137058700D01*
X315077256Y-137058700D02*
X315191541Y-137115842D01*
X315191541Y-137115842D02*
X315420113Y-137115842D01*
X315420113Y-137115842D02*
X315534399Y-137058700D01*
X315534399Y-137058700D02*
X315648684Y-136944414D01*
X315648684Y-136944414D02*
X315705827Y-136715842D01*
X315705827Y-136715842D02*
X315705827Y-136315842D01*
X315705827Y-136315842D02*
X315648684Y-136087271D01*
X315648684Y-136087271D02*
X315534399Y-135972985D01*
X315534399Y-135972985D02*
X315420113Y-135915842D01*
X313705827Y-137115842D02*
X314105827Y-136544414D01*
X314391541Y-137115842D02*
X314391541Y-135915842D01*
X314391541Y-135915842D02*
X313934398Y-135915842D01*
X313934398Y-135915842D02*
X313820113Y-135972985D01*
X313820113Y-135972985D02*
X313762970Y-136030128D01*
X313762970Y-136030128D02*
X313705827Y-136144414D01*
X313705827Y-136144414D02*
X313705827Y-136315842D01*
X313705827Y-136315842D02*
X313762970Y-136430128D01*
X313762970Y-136430128D02*
X313820113Y-136487271D01*
X313820113Y-136487271D02*
X313934398Y-136544414D01*
X313934398Y-136544414D02*
X314391541Y-136544414D01*
X313191541Y-137115842D02*
X313191541Y-135915842D01*
X313191541Y-135915842D02*
X312791541Y-136772985D01*
X312791541Y-136772985D02*
X312391541Y-135915842D01*
X312391541Y-135915842D02*
X312391541Y-137115842D01*
X311877255Y-136772985D02*
X311305827Y-136772985D01*
X311991541Y-137115842D02*
X311591541Y-135915842D01*
X311591541Y-135915842D02*
X311191541Y-137115842D01*
X310220113Y-137115842D02*
X310791541Y-137115842D01*
X310791541Y-137115842D02*
X310791541Y-135915842D01*
X309820112Y-137001557D02*
X309762969Y-137058700D01*
X309762969Y-137058700D02*
X309820112Y-137115842D01*
X309820112Y-137115842D02*
X309877255Y-137058700D01*
X309877255Y-137058700D02*
X309820112Y-137001557D01*
X309820112Y-137001557D02*
X309820112Y-137115842D01*
X309820112Y-136372985D02*
X309762969Y-136430128D01*
X309762969Y-136430128D02*
X309820112Y-136487271D01*
X309820112Y-136487271D02*
X309877255Y-136430128D01*
X309877255Y-136430128D02*
X309820112Y-136372985D01*
X309820112Y-136372985D02*
X309820112Y-136487271D01*
X307705826Y-137115842D02*
X308391540Y-137115842D01*
X308048683Y-137115842D02*
X308048683Y-135915842D01*
X308048683Y-135915842D02*
X308162969Y-136087271D01*
X308162969Y-136087271D02*
X308277254Y-136201557D01*
X308277254Y-136201557D02*
X308391540Y-136258700D01*
X307191540Y-136658700D02*
X306277255Y-136658700D01*
X305762969Y-136030128D02*
X305705826Y-135972985D01*
X305705826Y-135972985D02*
X305591541Y-135915842D01*
X305591541Y-135915842D02*
X305305826Y-135915842D01*
X305305826Y-135915842D02*
X305191541Y-135972985D01*
X305191541Y-135972985D02*
X305134398Y-136030128D01*
X305134398Y-136030128D02*
X305077255Y-136144414D01*
X305077255Y-136144414D02*
X305077255Y-136258700D01*
X305077255Y-136258700D02*
X305134398Y-136430128D01*
X305134398Y-136430128D02*
X305820112Y-137115842D01*
X305820112Y-137115842D02*
X305077255Y-137115842D01*
X315077255Y-139047842D02*
X315077255Y-137847842D01*
X314505826Y-139047842D02*
X314505826Y-137847842D01*
X314505826Y-137847842D02*
X313820112Y-139047842D01*
X313820112Y-139047842D02*
X313820112Y-137847842D01*
X313420112Y-137847842D02*
X313020112Y-139047842D01*
X313020112Y-139047842D02*
X312620112Y-137847842D01*
X312220112Y-138590700D02*
X311305827Y-138590700D01*
X310905827Y-137847842D02*
X310220113Y-137847842D01*
X310562970Y-139047842D02*
X310562970Y-137847842D01*
X309820112Y-138933557D02*
X309762969Y-138990700D01*
X309762969Y-138990700D02*
X309820112Y-139047842D01*
X309820112Y-139047842D02*
X309877255Y-138990700D01*
X309877255Y-138990700D02*
X309820112Y-138933557D01*
X309820112Y-138933557D02*
X309820112Y-139047842D01*
X309820112Y-138304985D02*
X309762969Y-138362128D01*
X309762969Y-138362128D02*
X309820112Y-138419271D01*
X309820112Y-138419271D02*
X309877255Y-138362128D01*
X309877255Y-138362128D02*
X309820112Y-138304985D01*
X309820112Y-138304985D02*
X309820112Y-138419271D01*
X308391540Y-137962128D02*
X308334397Y-137904985D01*
X308334397Y-137904985D02*
X308220112Y-137847842D01*
X308220112Y-137847842D02*
X307934397Y-137847842D01*
X307934397Y-137847842D02*
X307820112Y-137904985D01*
X307820112Y-137904985D02*
X307762969Y-137962128D01*
X307762969Y-137962128D02*
X307705826Y-138076414D01*
X307705826Y-138076414D02*
X307705826Y-138190700D01*
X307705826Y-138190700D02*
X307762969Y-138362128D01*
X307762969Y-138362128D02*
X308448683Y-139047842D01*
X308448683Y-139047842D02*
X307705826Y-139047842D01*
X307191540Y-138590700D02*
X306277255Y-138590700D01*
X305820112Y-137847842D02*
X305077255Y-137847842D01*
X305077255Y-137847842D02*
X305477255Y-138304985D01*
X305477255Y-138304985D02*
X305305826Y-138304985D01*
X305305826Y-138304985D02*
X305191541Y-138362128D01*
X305191541Y-138362128D02*
X305134398Y-138419271D01*
X305134398Y-138419271D02*
X305077255Y-138533557D01*
X305077255Y-138533557D02*
X305077255Y-138819271D01*
X305077255Y-138819271D02*
X305134398Y-138933557D01*
X305134398Y-138933557D02*
X305191541Y-138990700D01*
X305191541Y-138990700D02*
X305305826Y-139047842D01*
X305305826Y-139047842D02*
X305648683Y-139047842D01*
X305648683Y-139047842D02*
X305762969Y-138990700D01*
X305762969Y-138990700D02*
X305820112Y-138933557D01*
D11*
X164479999Y-85774242D02*
X164479999Y-86488528D01*
X164979999Y-84988528D02*
X164479999Y-85774242D01*
X164479999Y-85774242D02*
X163979999Y-84988528D01*
X121165714Y-124595671D02*
X121237142Y-124667100D01*
X121237142Y-124667100D02*
X121451428Y-124738528D01*
X121451428Y-124738528D02*
X121594285Y-124738528D01*
X121594285Y-124738528D02*
X121808571Y-124667100D01*
X121808571Y-124667100D02*
X121951428Y-124524242D01*
X121951428Y-124524242D02*
X122022857Y-124381385D01*
X122022857Y-124381385D02*
X122094285Y-124095671D01*
X122094285Y-124095671D02*
X122094285Y-123881385D01*
X122094285Y-123881385D02*
X122022857Y-123595671D01*
X122022857Y-123595671D02*
X121951428Y-123452814D01*
X121951428Y-123452814D02*
X121808571Y-123309957D01*
X121808571Y-123309957D02*
X121594285Y-123238528D01*
X121594285Y-123238528D02*
X121451428Y-123238528D01*
X121451428Y-123238528D02*
X121237142Y-123309957D01*
X121237142Y-123309957D02*
X121165714Y-123381385D01*
X116554285Y-66588528D02*
X116554285Y-67588528D01*
X116911427Y-66017100D02*
X117268570Y-67088528D01*
X117268570Y-67088528D02*
X116339999Y-67088528D01*
X73837142Y-104909957D02*
X73122857Y-104909957D01*
X73979999Y-105338528D02*
X73479999Y-103838528D01*
X73479999Y-103838528D02*
X72979999Y-105338528D01*
X269811428Y-66702814D02*
X268668571Y-66702814D01*
X268668571Y-67131385D02*
X269811428Y-67131385D01*
X254337142Y-123367100D02*
X255622856Y-125295671D01*
X198330000Y-124688528D02*
X198330000Y-123188528D01*
X198330000Y-123188528D02*
X197830000Y-124259957D01*
X197830000Y-124259957D02*
X197330000Y-123188528D01*
X197330000Y-123188528D02*
X197330000Y-124688528D01*
X221722856Y-85088528D02*
X221437142Y-85088528D01*
X221437142Y-85088528D02*
X221294285Y-85159957D01*
X221294285Y-85159957D02*
X221151428Y-85302814D01*
X221151428Y-85302814D02*
X221079999Y-85588528D01*
X221079999Y-85588528D02*
X221079999Y-86088528D01*
X221079999Y-86088528D02*
X221151428Y-86374242D01*
X221151428Y-86374242D02*
X221294285Y-86517100D01*
X221294285Y-86517100D02*
X221437142Y-86588528D01*
X221437142Y-86588528D02*
X221722856Y-86588528D01*
X221722856Y-86588528D02*
X221865714Y-86517100D01*
X221865714Y-86517100D02*
X222008571Y-86374242D01*
X222008571Y-86374242D02*
X222079999Y-86088528D01*
X222079999Y-86088528D02*
X222079999Y-85588528D01*
X222079999Y-85588528D02*
X222008571Y-85302814D01*
X222008571Y-85302814D02*
X221865714Y-85159957D01*
X221865714Y-85159957D02*
X221722856Y-85088528D01*
X174489999Y-66188528D02*
X173489999Y-66188528D01*
X173489999Y-66188528D02*
X174132856Y-67688528D01*
X212475713Y-67538528D02*
X212189999Y-67538528D01*
X212189999Y-67538528D02*
X212047142Y-67467100D01*
X212047142Y-67467100D02*
X211975713Y-67395671D01*
X211975713Y-67395671D02*
X211832856Y-67181385D01*
X211832856Y-67181385D02*
X211761427Y-66895671D01*
X211761427Y-66895671D02*
X211761427Y-66324242D01*
X211761427Y-66324242D02*
X211832856Y-66181385D01*
X211832856Y-66181385D02*
X211904285Y-66109957D01*
X211904285Y-66109957D02*
X212047142Y-66038528D01*
X212047142Y-66038528D02*
X212332856Y-66038528D01*
X212332856Y-66038528D02*
X212475713Y-66109957D01*
X212475713Y-66109957D02*
X212547142Y-66181385D01*
X212547142Y-66181385D02*
X212618570Y-66324242D01*
X212618570Y-66324242D02*
X212618570Y-66681385D01*
X212618570Y-66681385D02*
X212547142Y-66824242D01*
X212547142Y-66824242D02*
X212475713Y-66895671D01*
X212475713Y-66895671D02*
X212332856Y-66967100D01*
X212332856Y-66967100D02*
X212047142Y-66967100D01*
X212047142Y-66967100D02*
X211904285Y-66895671D01*
X211904285Y-66895671D02*
X211832856Y-66824242D01*
X211832856Y-66824242D02*
X211761427Y-66681385D01*
X51308571Y-84988528D02*
X51308571Y-86202814D01*
X51308571Y-86202814D02*
X51237142Y-86345671D01*
X51237142Y-86345671D02*
X51165714Y-86417100D01*
X51165714Y-86417100D02*
X51022856Y-86488528D01*
X51022856Y-86488528D02*
X50737142Y-86488528D01*
X50737142Y-86488528D02*
X50594285Y-86417100D01*
X50594285Y-86417100D02*
X50522856Y-86345671D01*
X50522856Y-86345671D02*
X50451428Y-86202814D01*
X50451428Y-86202814D02*
X50451428Y-84988528D01*
X49737142Y-86488528D02*
X49737142Y-84988528D01*
X49737142Y-84988528D02*
X49165713Y-84988528D01*
X49165713Y-84988528D02*
X49022856Y-85059957D01*
X49022856Y-85059957D02*
X48951427Y-85131385D01*
X48951427Y-85131385D02*
X48879999Y-85274242D01*
X48879999Y-85274242D02*
X48879999Y-85488528D01*
X48879999Y-85488528D02*
X48951427Y-85631385D01*
X48951427Y-85631385D02*
X49022856Y-85702814D01*
X49022856Y-85702814D02*
X49165713Y-85774242D01*
X49165713Y-85774242D02*
X49737142Y-85774242D01*
X135532856Y-66038528D02*
X136247142Y-66038528D01*
X136247142Y-66038528D02*
X136318570Y-66752814D01*
X136318570Y-66752814D02*
X136247142Y-66681385D01*
X136247142Y-66681385D02*
X136104285Y-66609957D01*
X136104285Y-66609957D02*
X135747142Y-66609957D01*
X135747142Y-66609957D02*
X135604285Y-66681385D01*
X135604285Y-66681385D02*
X135532856Y-66752814D01*
X135532856Y-66752814D02*
X135461427Y-66895671D01*
X135461427Y-66895671D02*
X135461427Y-67252814D01*
X135461427Y-67252814D02*
X135532856Y-67395671D01*
X135532856Y-67395671D02*
X135604285Y-67467100D01*
X135604285Y-67467100D02*
X135747142Y-67538528D01*
X135747142Y-67538528D02*
X136104285Y-67538528D01*
X136104285Y-67538528D02*
X136247142Y-67467100D01*
X136247142Y-67467100D02*
X136318570Y-67395671D01*
X93008570Y-105267100D02*
X92794285Y-105338528D01*
X92794285Y-105338528D02*
X92437142Y-105338528D01*
X92437142Y-105338528D02*
X92294285Y-105267100D01*
X92294285Y-105267100D02*
X92222856Y-105195671D01*
X92222856Y-105195671D02*
X92151427Y-105052814D01*
X92151427Y-105052814D02*
X92151427Y-104909957D01*
X92151427Y-104909957D02*
X92222856Y-104767100D01*
X92222856Y-104767100D02*
X92294285Y-104695671D01*
X92294285Y-104695671D02*
X92437142Y-104624242D01*
X92437142Y-104624242D02*
X92722856Y-104552814D01*
X92722856Y-104552814D02*
X92865713Y-104481385D01*
X92865713Y-104481385D02*
X92937142Y-104409957D01*
X92937142Y-104409957D02*
X93008570Y-104267100D01*
X93008570Y-104267100D02*
X93008570Y-104124242D01*
X93008570Y-104124242D02*
X92937142Y-103981385D01*
X92937142Y-103981385D02*
X92865713Y-103909957D01*
X92865713Y-103909957D02*
X92722856Y-103838528D01*
X92722856Y-103838528D02*
X92365713Y-103838528D01*
X92365713Y-103838528D02*
X92151427Y-103909957D01*
X306237143Y-86538528D02*
X306237143Y-85038528D01*
X306237143Y-85038528D02*
X305880000Y-85038528D01*
X305880000Y-85038528D02*
X305665714Y-85109957D01*
X305665714Y-85109957D02*
X305522857Y-85252814D01*
X305522857Y-85252814D02*
X305451428Y-85395671D01*
X305451428Y-85395671D02*
X305380000Y-85681385D01*
X305380000Y-85681385D02*
X305380000Y-85895671D01*
X305380000Y-85895671D02*
X305451428Y-86181385D01*
X305451428Y-86181385D02*
X305522857Y-86324242D01*
X305522857Y-86324242D02*
X305665714Y-86467100D01*
X305665714Y-86467100D02*
X305880000Y-86538528D01*
X305880000Y-86538528D02*
X306237143Y-86538528D01*
X304737143Y-85752814D02*
X304237143Y-85752814D01*
X304022857Y-86538528D02*
X304737143Y-86538528D01*
X304737143Y-86538528D02*
X304737143Y-85038528D01*
X304737143Y-85038528D02*
X304022857Y-85038528D01*
X302665714Y-86538528D02*
X303380000Y-86538528D01*
X303380000Y-86538528D02*
X303380000Y-85038528D01*
X302165714Y-85752814D02*
X301665714Y-85752814D01*
X301451428Y-86538528D02*
X302165714Y-86538528D01*
X302165714Y-86538528D02*
X302165714Y-85038528D01*
X302165714Y-85038528D02*
X301451428Y-85038528D01*
X301022856Y-85038528D02*
X300165714Y-85038528D01*
X300594285Y-86538528D02*
X300594285Y-85038528D01*
X299665714Y-85752814D02*
X299165714Y-85752814D01*
X298951428Y-86538528D02*
X299665714Y-86538528D01*
X299665714Y-86538528D02*
X299665714Y-85038528D01*
X299665714Y-85038528D02*
X298951428Y-85038528D01*
X302412854Y-147697100D02*
X302198569Y-147768528D01*
X302198569Y-147768528D02*
X301841426Y-147768528D01*
X301841426Y-147768528D02*
X301698569Y-147697100D01*
X301698569Y-147697100D02*
X301627140Y-147625671D01*
X301627140Y-147625671D02*
X301555711Y-147482814D01*
X301555711Y-147482814D02*
X301555711Y-147339957D01*
X301555711Y-147339957D02*
X301627140Y-147197100D01*
X301627140Y-147197100D02*
X301698569Y-147125671D01*
X301698569Y-147125671D02*
X301841426Y-147054242D01*
X301841426Y-147054242D02*
X302127140Y-146982814D01*
X302127140Y-146982814D02*
X302269997Y-146911385D01*
X302269997Y-146911385D02*
X302341426Y-146839957D01*
X302341426Y-146839957D02*
X302412854Y-146697100D01*
X302412854Y-146697100D02*
X302412854Y-146554242D01*
X302412854Y-146554242D02*
X302341426Y-146411385D01*
X302341426Y-146411385D02*
X302269997Y-146339957D01*
X302269997Y-146339957D02*
X302127140Y-146268528D01*
X302127140Y-146268528D02*
X301769997Y-146268528D01*
X301769997Y-146268528D02*
X301555711Y-146339957D01*
X300341426Y-147697100D02*
X300484283Y-147768528D01*
X300484283Y-147768528D02*
X300769998Y-147768528D01*
X300769998Y-147768528D02*
X300912855Y-147697100D01*
X300912855Y-147697100D02*
X300984283Y-147554242D01*
X300984283Y-147554242D02*
X300984283Y-146982814D01*
X300984283Y-146982814D02*
X300912855Y-146839957D01*
X300912855Y-146839957D02*
X300769998Y-146768528D01*
X300769998Y-146768528D02*
X300484283Y-146768528D01*
X300484283Y-146768528D02*
X300341426Y-146839957D01*
X300341426Y-146839957D02*
X300269998Y-146982814D01*
X300269998Y-146982814D02*
X300269998Y-147125671D01*
X300269998Y-147125671D02*
X300984283Y-147268528D01*
X299841426Y-146768528D02*
X299269998Y-146768528D01*
X299627141Y-146268528D02*
X299627141Y-147554242D01*
X299627141Y-147554242D02*
X299555712Y-147697100D01*
X299555712Y-147697100D02*
X299412855Y-147768528D01*
X299412855Y-147768528D02*
X299269998Y-147768528D01*
X297198569Y-146268528D02*
X297198569Y-147339957D01*
X297198569Y-147339957D02*
X297269998Y-147554242D01*
X297269998Y-147554242D02*
X297412855Y-147697100D01*
X297412855Y-147697100D02*
X297627141Y-147768528D01*
X297627141Y-147768528D02*
X297769998Y-147768528D01*
X296484284Y-147768528D02*
X296484284Y-146268528D01*
X296484284Y-146268528D02*
X295912855Y-146268528D01*
X295912855Y-146268528D02*
X295769998Y-146339957D01*
X295769998Y-146339957D02*
X295698569Y-146411385D01*
X295698569Y-146411385D02*
X295627141Y-146554242D01*
X295627141Y-146554242D02*
X295627141Y-146768528D01*
X295627141Y-146768528D02*
X295698569Y-146911385D01*
X295698569Y-146911385D02*
X295769998Y-146982814D01*
X295769998Y-146982814D02*
X295912855Y-147054242D01*
X295912855Y-147054242D02*
X296484284Y-147054242D01*
X294198569Y-147768528D02*
X295055712Y-147768528D01*
X294627141Y-147768528D02*
X294627141Y-146268528D01*
X294627141Y-146268528D02*
X294769998Y-146482814D01*
X294769998Y-146482814D02*
X294912855Y-146625671D01*
X294912855Y-146625671D02*
X295055712Y-146697100D01*
X291769999Y-147768528D02*
X291769999Y-146982814D01*
X291769999Y-146982814D02*
X291841427Y-146839957D01*
X291841427Y-146839957D02*
X291984284Y-146768528D01*
X291984284Y-146768528D02*
X292269999Y-146768528D01*
X292269999Y-146768528D02*
X292412856Y-146839957D01*
X291769999Y-147697100D02*
X291912856Y-147768528D01*
X291912856Y-147768528D02*
X292269999Y-147768528D01*
X292269999Y-147768528D02*
X292412856Y-147697100D01*
X292412856Y-147697100D02*
X292484284Y-147554242D01*
X292484284Y-147554242D02*
X292484284Y-147411385D01*
X292484284Y-147411385D02*
X292412856Y-147268528D01*
X292412856Y-147268528D02*
X292269999Y-147197100D01*
X292269999Y-147197100D02*
X291912856Y-147197100D01*
X291912856Y-147197100D02*
X291769999Y-147125671D01*
X291055713Y-146768528D02*
X291055713Y-147768528D01*
X291055713Y-146911385D02*
X290984284Y-146839957D01*
X290984284Y-146839957D02*
X290841427Y-146768528D01*
X290841427Y-146768528D02*
X290627141Y-146768528D01*
X290627141Y-146768528D02*
X290484284Y-146839957D01*
X290484284Y-146839957D02*
X290412856Y-146982814D01*
X290412856Y-146982814D02*
X290412856Y-147768528D01*
X289055713Y-147768528D02*
X289055713Y-146268528D01*
X289055713Y-147697100D02*
X289198570Y-147768528D01*
X289198570Y-147768528D02*
X289484284Y-147768528D01*
X289484284Y-147768528D02*
X289627141Y-147697100D01*
X289627141Y-147697100D02*
X289698570Y-147625671D01*
X289698570Y-147625671D02*
X289769998Y-147482814D01*
X289769998Y-147482814D02*
X289769998Y-147054242D01*
X289769998Y-147054242D02*
X289698570Y-146911385D01*
X289698570Y-146911385D02*
X289627141Y-146839957D01*
X289627141Y-146839957D02*
X289484284Y-146768528D01*
X289484284Y-146768528D02*
X289198570Y-146768528D01*
X289198570Y-146768528D02*
X289055713Y-146839957D01*
X286769998Y-146268528D02*
X286769998Y-147339957D01*
X286769998Y-147339957D02*
X286841427Y-147554242D01*
X286841427Y-147554242D02*
X286984284Y-147697100D01*
X286984284Y-147697100D02*
X287198570Y-147768528D01*
X287198570Y-147768528D02*
X287341427Y-147768528D01*
X286055713Y-147768528D02*
X286055713Y-146268528D01*
X286055713Y-146268528D02*
X285484284Y-146268528D01*
X285484284Y-146268528D02*
X285341427Y-146339957D01*
X285341427Y-146339957D02*
X285269998Y-146411385D01*
X285269998Y-146411385D02*
X285198570Y-146554242D01*
X285198570Y-146554242D02*
X285198570Y-146768528D01*
X285198570Y-146768528D02*
X285269998Y-146911385D01*
X285269998Y-146911385D02*
X285341427Y-146982814D01*
X285341427Y-146982814D02*
X285484284Y-147054242D01*
X285484284Y-147054242D02*
X286055713Y-147054242D01*
X284627141Y-146411385D02*
X284555713Y-146339957D01*
X284555713Y-146339957D02*
X284412856Y-146268528D01*
X284412856Y-146268528D02*
X284055713Y-146268528D01*
X284055713Y-146268528D02*
X283912856Y-146339957D01*
X283912856Y-146339957D02*
X283841427Y-146411385D01*
X283841427Y-146411385D02*
X283769998Y-146554242D01*
X283769998Y-146554242D02*
X283769998Y-146697100D01*
X283769998Y-146697100D02*
X283841427Y-146911385D01*
X283841427Y-146911385D02*
X284698570Y-147768528D01*
X284698570Y-147768528D02*
X283769998Y-147768528D01*
X282198570Y-146768528D02*
X281627142Y-146768528D01*
X281984285Y-147768528D02*
X281984285Y-146482814D01*
X281984285Y-146482814D02*
X281912856Y-146339957D01*
X281912856Y-146339957D02*
X281769999Y-146268528D01*
X281769999Y-146268528D02*
X281627142Y-146268528D01*
X280912856Y-147768528D02*
X281055713Y-147697100D01*
X281055713Y-147697100D02*
X281127142Y-147625671D01*
X281127142Y-147625671D02*
X281198570Y-147482814D01*
X281198570Y-147482814D02*
X281198570Y-147054242D01*
X281198570Y-147054242D02*
X281127142Y-146911385D01*
X281127142Y-146911385D02*
X281055713Y-146839957D01*
X281055713Y-146839957D02*
X280912856Y-146768528D01*
X280912856Y-146768528D02*
X280698570Y-146768528D01*
X280698570Y-146768528D02*
X280555713Y-146839957D01*
X280555713Y-146839957D02*
X280484285Y-146911385D01*
X280484285Y-146911385D02*
X280412856Y-147054242D01*
X280412856Y-147054242D02*
X280412856Y-147482814D01*
X280412856Y-147482814D02*
X280484285Y-147625671D01*
X280484285Y-147625671D02*
X280555713Y-147697100D01*
X280555713Y-147697100D02*
X280698570Y-147768528D01*
X280698570Y-147768528D02*
X280912856Y-147768528D01*
X279769999Y-147768528D02*
X279769999Y-146768528D01*
X279769999Y-147054242D02*
X279698570Y-146911385D01*
X279698570Y-146911385D02*
X279627142Y-146839957D01*
X279627142Y-146839957D02*
X279484284Y-146768528D01*
X279484284Y-146768528D02*
X279341427Y-146768528D01*
X277698571Y-146768528D02*
X277698571Y-147768528D01*
X277698571Y-146911385D02*
X277627142Y-146839957D01*
X277627142Y-146839957D02*
X277484285Y-146768528D01*
X277484285Y-146768528D02*
X277269999Y-146768528D01*
X277269999Y-146768528D02*
X277127142Y-146839957D01*
X277127142Y-146839957D02*
X277055714Y-146982814D01*
X277055714Y-146982814D02*
X277055714Y-147768528D01*
X276127142Y-147768528D02*
X276269999Y-147697100D01*
X276269999Y-147697100D02*
X276341428Y-147625671D01*
X276341428Y-147625671D02*
X276412856Y-147482814D01*
X276412856Y-147482814D02*
X276412856Y-147054242D01*
X276412856Y-147054242D02*
X276341428Y-146911385D01*
X276341428Y-146911385D02*
X276269999Y-146839957D01*
X276269999Y-146839957D02*
X276127142Y-146768528D01*
X276127142Y-146768528D02*
X275912856Y-146768528D01*
X275912856Y-146768528D02*
X275769999Y-146839957D01*
X275769999Y-146839957D02*
X275698571Y-146911385D01*
X275698571Y-146911385D02*
X275627142Y-147054242D01*
X275627142Y-147054242D02*
X275627142Y-147482814D01*
X275627142Y-147482814D02*
X275698571Y-147625671D01*
X275698571Y-147625671D02*
X275769999Y-147697100D01*
X275769999Y-147697100D02*
X275912856Y-147768528D01*
X275912856Y-147768528D02*
X276127142Y-147768528D01*
X274984285Y-147768528D02*
X274984285Y-146768528D01*
X274984285Y-147054242D02*
X274912856Y-146911385D01*
X274912856Y-146911385D02*
X274841428Y-146839957D01*
X274841428Y-146839957D02*
X274698570Y-146768528D01*
X274698570Y-146768528D02*
X274555713Y-146768528D01*
X274055714Y-147768528D02*
X274055714Y-146768528D01*
X274055714Y-146911385D02*
X273984285Y-146839957D01*
X273984285Y-146839957D02*
X273841428Y-146768528D01*
X273841428Y-146768528D02*
X273627142Y-146768528D01*
X273627142Y-146768528D02*
X273484285Y-146839957D01*
X273484285Y-146839957D02*
X273412857Y-146982814D01*
X273412857Y-146982814D02*
X273412857Y-147768528D01*
X273412857Y-146982814D02*
X273341428Y-146839957D01*
X273341428Y-146839957D02*
X273198571Y-146768528D01*
X273198571Y-146768528D02*
X272984285Y-146768528D01*
X272984285Y-146768528D02*
X272841428Y-146839957D01*
X272841428Y-146839957D02*
X272769999Y-146982814D01*
X272769999Y-146982814D02*
X272769999Y-147768528D01*
X271412857Y-147768528D02*
X271412857Y-146982814D01*
X271412857Y-146982814D02*
X271484285Y-146839957D01*
X271484285Y-146839957D02*
X271627142Y-146768528D01*
X271627142Y-146768528D02*
X271912857Y-146768528D01*
X271912857Y-146768528D02*
X272055714Y-146839957D01*
X271412857Y-147697100D02*
X271555714Y-147768528D01*
X271555714Y-147768528D02*
X271912857Y-147768528D01*
X271912857Y-147768528D02*
X272055714Y-147697100D01*
X272055714Y-147697100D02*
X272127142Y-147554242D01*
X272127142Y-147554242D02*
X272127142Y-147411385D01*
X272127142Y-147411385D02*
X272055714Y-147268528D01*
X272055714Y-147268528D02*
X271912857Y-147197100D01*
X271912857Y-147197100D02*
X271555714Y-147197100D01*
X271555714Y-147197100D02*
X271412857Y-147125671D01*
X270484285Y-147768528D02*
X270627142Y-147697100D01*
X270627142Y-147697100D02*
X270698571Y-147554242D01*
X270698571Y-147554242D02*
X270698571Y-146268528D01*
X268555714Y-147768528D02*
X268698571Y-147697100D01*
X268698571Y-147697100D02*
X268770000Y-147625671D01*
X268770000Y-147625671D02*
X268841428Y-147482814D01*
X268841428Y-147482814D02*
X268841428Y-147054242D01*
X268841428Y-147054242D02*
X268770000Y-146911385D01*
X268770000Y-146911385D02*
X268698571Y-146839957D01*
X268698571Y-146839957D02*
X268555714Y-146768528D01*
X268555714Y-146768528D02*
X268341428Y-146768528D01*
X268341428Y-146768528D02*
X268198571Y-146839957D01*
X268198571Y-146839957D02*
X268127143Y-146911385D01*
X268127143Y-146911385D02*
X268055714Y-147054242D01*
X268055714Y-147054242D02*
X268055714Y-147482814D01*
X268055714Y-147482814D02*
X268127143Y-147625671D01*
X268127143Y-147625671D02*
X268198571Y-147697100D01*
X268198571Y-147697100D02*
X268341428Y-147768528D01*
X268341428Y-147768528D02*
X268555714Y-147768528D01*
X267412857Y-147768528D02*
X267412857Y-146768528D01*
X267412857Y-147054242D02*
X267341428Y-146911385D01*
X267341428Y-146911385D02*
X267270000Y-146839957D01*
X267270000Y-146839957D02*
X267127142Y-146768528D01*
X267127142Y-146768528D02*
X266984285Y-146768528D01*
X265341429Y-147768528D02*
X265341429Y-146268528D01*
X264627143Y-146768528D02*
X264627143Y-147768528D01*
X264627143Y-146911385D02*
X264555714Y-146839957D01*
X264555714Y-146839957D02*
X264412857Y-146768528D01*
X264412857Y-146768528D02*
X264198571Y-146768528D01*
X264198571Y-146768528D02*
X264055714Y-146839957D01*
X264055714Y-146839957D02*
X263984286Y-146982814D01*
X263984286Y-146982814D02*
X263984286Y-147768528D01*
X263412857Y-146768528D02*
X263055714Y-147768528D01*
X263055714Y-147768528D02*
X262698571Y-146768528D01*
X261555714Y-147697100D02*
X261698571Y-147768528D01*
X261698571Y-147768528D02*
X261984286Y-147768528D01*
X261984286Y-147768528D02*
X262127143Y-147697100D01*
X262127143Y-147697100D02*
X262198571Y-147554242D01*
X262198571Y-147554242D02*
X262198571Y-146982814D01*
X262198571Y-146982814D02*
X262127143Y-146839957D01*
X262127143Y-146839957D02*
X261984286Y-146768528D01*
X261984286Y-146768528D02*
X261698571Y-146768528D01*
X261698571Y-146768528D02*
X261555714Y-146839957D01*
X261555714Y-146839957D02*
X261484286Y-146982814D01*
X261484286Y-146982814D02*
X261484286Y-147125671D01*
X261484286Y-147125671D02*
X262198571Y-147268528D01*
X260841429Y-147768528D02*
X260841429Y-146768528D01*
X260841429Y-147054242D02*
X260770000Y-146911385D01*
X260770000Y-146911385D02*
X260698572Y-146839957D01*
X260698572Y-146839957D02*
X260555714Y-146768528D01*
X260555714Y-146768528D02*
X260412857Y-146768528D01*
X260127143Y-146768528D02*
X259555715Y-146768528D01*
X259912858Y-146268528D02*
X259912858Y-147554242D01*
X259912858Y-147554242D02*
X259841429Y-147697100D01*
X259841429Y-147697100D02*
X259698572Y-147768528D01*
X259698572Y-147768528D02*
X259555715Y-147768528D01*
X258484286Y-147697100D02*
X258627143Y-147768528D01*
X258627143Y-147768528D02*
X258912858Y-147768528D01*
X258912858Y-147768528D02*
X259055715Y-147697100D01*
X259055715Y-147697100D02*
X259127143Y-147554242D01*
X259127143Y-147554242D02*
X259127143Y-146982814D01*
X259127143Y-146982814D02*
X259055715Y-146839957D01*
X259055715Y-146839957D02*
X258912858Y-146768528D01*
X258912858Y-146768528D02*
X258627143Y-146768528D01*
X258627143Y-146768528D02*
X258484286Y-146839957D01*
X258484286Y-146839957D02*
X258412858Y-146982814D01*
X258412858Y-146982814D02*
X258412858Y-147125671D01*
X258412858Y-147125671D02*
X259127143Y-147268528D01*
X257127144Y-147768528D02*
X257127144Y-146268528D01*
X257127144Y-147697100D02*
X257270001Y-147768528D01*
X257270001Y-147768528D02*
X257555715Y-147768528D01*
X257555715Y-147768528D02*
X257698572Y-147697100D01*
X257698572Y-147697100D02*
X257770001Y-147625671D01*
X257770001Y-147625671D02*
X257841429Y-147482814D01*
X257841429Y-147482814D02*
X257841429Y-147054242D01*
X257841429Y-147054242D02*
X257770001Y-146911385D01*
X257770001Y-146911385D02*
X257698572Y-146839957D01*
X257698572Y-146839957D02*
X257555715Y-146768528D01*
X257555715Y-146768528D02*
X257270001Y-146768528D01*
X257270001Y-146768528D02*
X257127144Y-146839957D01*
X256412858Y-147197100D02*
X255270001Y-147197100D01*
X254770000Y-146268528D02*
X253912858Y-146268528D01*
X254341429Y-147768528D02*
X254341429Y-146268528D01*
X251627144Y-147697100D02*
X251770001Y-147768528D01*
X251770001Y-147768528D02*
X252055715Y-147768528D01*
X252055715Y-147768528D02*
X252198572Y-147697100D01*
X252198572Y-147697100D02*
X252270001Y-147625671D01*
X252270001Y-147625671D02*
X252341429Y-147482814D01*
X252341429Y-147482814D02*
X252341429Y-147054242D01*
X252341429Y-147054242D02*
X252270001Y-146911385D01*
X252270001Y-146911385D02*
X252198572Y-146839957D01*
X252198572Y-146839957D02*
X252055715Y-146768528D01*
X252055715Y-146768528D02*
X251770001Y-146768528D01*
X251770001Y-146768528D02*
X251627144Y-146839957D01*
X250341430Y-146768528D02*
X250341430Y-147768528D01*
X250984287Y-146768528D02*
X250984287Y-147554242D01*
X250984287Y-147554242D02*
X250912858Y-147697100D01*
X250912858Y-147697100D02*
X250770001Y-147768528D01*
X250770001Y-147768528D02*
X250555715Y-147768528D01*
X250555715Y-147768528D02*
X250412858Y-147697100D01*
X250412858Y-147697100D02*
X250341430Y-147625671D01*
X249627144Y-147768528D02*
X249627144Y-146768528D01*
X249627144Y-147054242D02*
X249555715Y-146911385D01*
X249555715Y-146911385D02*
X249484287Y-146839957D01*
X249484287Y-146839957D02*
X249341429Y-146768528D01*
X249341429Y-146768528D02*
X249198572Y-146768528D01*
X248770001Y-147697100D02*
X248627144Y-147768528D01*
X248627144Y-147768528D02*
X248341430Y-147768528D01*
X248341430Y-147768528D02*
X248198573Y-147697100D01*
X248198573Y-147697100D02*
X248127144Y-147554242D01*
X248127144Y-147554242D02*
X248127144Y-147482814D01*
X248127144Y-147482814D02*
X248198573Y-147339957D01*
X248198573Y-147339957D02*
X248341430Y-147268528D01*
X248341430Y-147268528D02*
X248555716Y-147268528D01*
X248555716Y-147268528D02*
X248698573Y-147197100D01*
X248698573Y-147197100D02*
X248770001Y-147054242D01*
X248770001Y-147054242D02*
X248770001Y-146982814D01*
X248770001Y-146982814D02*
X248698573Y-146839957D01*
X248698573Y-146839957D02*
X248555716Y-146768528D01*
X248555716Y-146768528D02*
X248341430Y-146768528D01*
X248341430Y-146768528D02*
X248198573Y-146839957D01*
X247270001Y-147768528D02*
X247412858Y-147697100D01*
X247412858Y-147697100D02*
X247484287Y-147625671D01*
X247484287Y-147625671D02*
X247555715Y-147482814D01*
X247555715Y-147482814D02*
X247555715Y-147054242D01*
X247555715Y-147054242D02*
X247484287Y-146911385D01*
X247484287Y-146911385D02*
X247412858Y-146839957D01*
X247412858Y-146839957D02*
X247270001Y-146768528D01*
X247270001Y-146768528D02*
X247055715Y-146768528D01*
X247055715Y-146768528D02*
X246912858Y-146839957D01*
X246912858Y-146839957D02*
X246841430Y-146911385D01*
X246841430Y-146911385D02*
X246770001Y-147054242D01*
X246770001Y-147054242D02*
X246770001Y-147482814D01*
X246770001Y-147482814D02*
X246841430Y-147625671D01*
X246841430Y-147625671D02*
X246912858Y-147697100D01*
X246912858Y-147697100D02*
X247055715Y-147768528D01*
X247055715Y-147768528D02*
X247270001Y-147768528D01*
X246127144Y-147768528D02*
X246127144Y-146768528D01*
X246127144Y-147054242D02*
X246055715Y-146911385D01*
X246055715Y-146911385D02*
X245984287Y-146839957D01*
X245984287Y-146839957D02*
X245841429Y-146768528D01*
X245841429Y-146768528D02*
X245698572Y-146768528D01*
X245198573Y-147625671D02*
X245127144Y-147697100D01*
X245127144Y-147697100D02*
X245198573Y-147768528D01*
X245198573Y-147768528D02*
X245270001Y-147697100D01*
X245270001Y-147697100D02*
X245198573Y-147625671D01*
X245198573Y-147625671D02*
X245198573Y-147768528D01*
X250190000Y-66875671D02*
X250118571Y-66947100D01*
X250118571Y-66947100D02*
X250190000Y-67018528D01*
X250190000Y-67018528D02*
X250261428Y-66947100D01*
X250261428Y-66947100D02*
X250190000Y-66875671D01*
X250190000Y-66875671D02*
X250190000Y-67018528D01*
X250190000Y-66089957D02*
X250118571Y-66161385D01*
X250118571Y-66161385D02*
X250190000Y-66232814D01*
X250190000Y-66232814D02*
X250261428Y-66161385D01*
X250261428Y-66161385D02*
X250190000Y-66089957D01*
X250190000Y-66089957D02*
X250190000Y-66232814D01*
X193182856Y-66731385D02*
X193325713Y-66659957D01*
X193325713Y-66659957D02*
X193397142Y-66588528D01*
X193397142Y-66588528D02*
X193468570Y-66445671D01*
X193468570Y-66445671D02*
X193468570Y-66374242D01*
X193468570Y-66374242D02*
X193397142Y-66231385D01*
X193397142Y-66231385D02*
X193325713Y-66159957D01*
X193325713Y-66159957D02*
X193182856Y-66088528D01*
X193182856Y-66088528D02*
X192897142Y-66088528D01*
X192897142Y-66088528D02*
X192754285Y-66159957D01*
X192754285Y-66159957D02*
X192682856Y-66231385D01*
X192682856Y-66231385D02*
X192611427Y-66374242D01*
X192611427Y-66374242D02*
X192611427Y-66445671D01*
X192611427Y-66445671D02*
X192682856Y-66588528D01*
X192682856Y-66588528D02*
X192754285Y-66659957D01*
X192754285Y-66659957D02*
X192897142Y-66731385D01*
X192897142Y-66731385D02*
X193182856Y-66731385D01*
X193182856Y-66731385D02*
X193325713Y-66802814D01*
X193325713Y-66802814D02*
X193397142Y-66874242D01*
X193397142Y-66874242D02*
X193468570Y-67017100D01*
X193468570Y-67017100D02*
X193468570Y-67302814D01*
X193468570Y-67302814D02*
X193397142Y-67445671D01*
X193397142Y-67445671D02*
X193325713Y-67517100D01*
X193325713Y-67517100D02*
X193182856Y-67588528D01*
X193182856Y-67588528D02*
X192897142Y-67588528D01*
X192897142Y-67588528D02*
X192754285Y-67517100D01*
X192754285Y-67517100D02*
X192682856Y-67445671D01*
X192682856Y-67445671D02*
X192611427Y-67302814D01*
X192611427Y-67302814D02*
X192611427Y-67017100D01*
X192611427Y-67017100D02*
X192682856Y-66874242D01*
X192682856Y-66874242D02*
X192754285Y-66802814D01*
X192754285Y-66802814D02*
X192897142Y-66731385D01*
X280730000Y-86538528D02*
X281230000Y-85824242D01*
X281587143Y-86538528D02*
X281587143Y-85038528D01*
X281587143Y-85038528D02*
X281015714Y-85038528D01*
X281015714Y-85038528D02*
X280872857Y-85109957D01*
X280872857Y-85109957D02*
X280801428Y-85181385D01*
X280801428Y-85181385D02*
X280730000Y-85324242D01*
X280730000Y-85324242D02*
X280730000Y-85538528D01*
X280730000Y-85538528D02*
X280801428Y-85681385D01*
X280801428Y-85681385D02*
X280872857Y-85752814D01*
X280872857Y-85752814D02*
X281015714Y-85824242D01*
X281015714Y-85824242D02*
X281587143Y-85824242D01*
X280087143Y-86538528D02*
X280087143Y-85038528D01*
X278587142Y-85109957D02*
X278730000Y-85038528D01*
X278730000Y-85038528D02*
X278944285Y-85038528D01*
X278944285Y-85038528D02*
X279158571Y-85109957D01*
X279158571Y-85109957D02*
X279301428Y-85252814D01*
X279301428Y-85252814D02*
X279372857Y-85395671D01*
X279372857Y-85395671D02*
X279444285Y-85681385D01*
X279444285Y-85681385D02*
X279444285Y-85895671D01*
X279444285Y-85895671D02*
X279372857Y-86181385D01*
X279372857Y-86181385D02*
X279301428Y-86324242D01*
X279301428Y-86324242D02*
X279158571Y-86467100D01*
X279158571Y-86467100D02*
X278944285Y-86538528D01*
X278944285Y-86538528D02*
X278801428Y-86538528D01*
X278801428Y-86538528D02*
X278587142Y-86467100D01*
X278587142Y-86467100D02*
X278515714Y-86395671D01*
X278515714Y-86395671D02*
X278515714Y-85895671D01*
X278515714Y-85895671D02*
X278801428Y-85895671D01*
X277872857Y-86538528D02*
X277872857Y-85038528D01*
X277872857Y-85752814D02*
X277015714Y-85752814D01*
X277015714Y-86538528D02*
X277015714Y-85038528D01*
X276515713Y-85038528D02*
X275658571Y-85038528D01*
X276087142Y-86538528D02*
X276087142Y-85038528D01*
X84029999Y-123138528D02*
X83029999Y-123138528D01*
X83029999Y-123138528D02*
X84029999Y-124638528D01*
X84029999Y-124638528D02*
X83029999Y-124638528D01*
X235930000Y-124595671D02*
X235858571Y-124667100D01*
X235858571Y-124667100D02*
X235930000Y-124738528D01*
X235930000Y-124738528D02*
X236001428Y-124667100D01*
X236001428Y-124667100D02*
X235930000Y-124595671D01*
X235930000Y-124595671D02*
X235930000Y-124738528D01*
X145858570Y-85038528D02*
X145001428Y-85038528D01*
X145429999Y-86538528D02*
X145429999Y-85038528D01*
X183958571Y-84988528D02*
X183958571Y-86202814D01*
X183958571Y-86202814D02*
X183887142Y-86345671D01*
X183887142Y-86345671D02*
X183815714Y-86417100D01*
X183815714Y-86417100D02*
X183672856Y-86488528D01*
X183672856Y-86488528D02*
X183387142Y-86488528D01*
X183387142Y-86488528D02*
X183244285Y-86417100D01*
X183244285Y-86417100D02*
X183172856Y-86345671D01*
X183172856Y-86345671D02*
X183101428Y-86202814D01*
X183101428Y-86202814D02*
X183101428Y-84988528D01*
X59261427Y-67538528D02*
X60118570Y-67538528D01*
X59689999Y-67538528D02*
X59689999Y-66038528D01*
X59689999Y-66038528D02*
X59832856Y-66252814D01*
X59832856Y-66252814D02*
X59975713Y-66395671D01*
X59975713Y-66395671D02*
X60118570Y-66467100D01*
X256348571Y-143778528D02*
X257062857Y-143778528D01*
X257062857Y-143778528D02*
X257062857Y-142278528D01*
X255848571Y-142992814D02*
X255348571Y-142992814D01*
X255134285Y-143778528D02*
X255848571Y-143778528D01*
X255848571Y-143778528D02*
X255848571Y-142278528D01*
X255848571Y-142278528D02*
X255134285Y-142278528D01*
X253991428Y-142992814D02*
X254491428Y-142992814D01*
X254491428Y-143778528D02*
X254491428Y-142278528D01*
X254491428Y-142278528D02*
X253777142Y-142278528D01*
X253419999Y-142278528D02*
X252562857Y-142278528D01*
X252991428Y-143778528D02*
X252991428Y-142278528D01*
X269951428Y-105567100D02*
X269737143Y-105638528D01*
X269737143Y-105638528D02*
X269380000Y-105638528D01*
X269380000Y-105638528D02*
X269237143Y-105567100D01*
X269237143Y-105567100D02*
X269165714Y-105495671D01*
X269165714Y-105495671D02*
X269094285Y-105352814D01*
X269094285Y-105352814D02*
X269094285Y-105209957D01*
X269094285Y-105209957D02*
X269165714Y-105067100D01*
X269165714Y-105067100D02*
X269237143Y-104995671D01*
X269237143Y-104995671D02*
X269380000Y-104924242D01*
X269380000Y-104924242D02*
X269665714Y-104852814D01*
X269665714Y-104852814D02*
X269808571Y-104781385D01*
X269808571Y-104781385D02*
X269880000Y-104709957D01*
X269880000Y-104709957D02*
X269951428Y-104567100D01*
X269951428Y-104567100D02*
X269951428Y-104424242D01*
X269951428Y-104424242D02*
X269880000Y-104281385D01*
X269880000Y-104281385D02*
X269808571Y-104209957D01*
X269808571Y-104209957D02*
X269665714Y-104138528D01*
X269665714Y-104138528D02*
X269308571Y-104138528D01*
X269308571Y-104138528D02*
X269094285Y-104209957D01*
X268665714Y-104138528D02*
X267808572Y-104138528D01*
X268237143Y-105638528D02*
X268237143Y-104138528D01*
X267022857Y-104138528D02*
X266737143Y-104138528D01*
X266737143Y-104138528D02*
X266594286Y-104209957D01*
X266594286Y-104209957D02*
X266451429Y-104352814D01*
X266451429Y-104352814D02*
X266380000Y-104638528D01*
X266380000Y-104638528D02*
X266380000Y-105138528D01*
X266380000Y-105138528D02*
X266451429Y-105424242D01*
X266451429Y-105424242D02*
X266594286Y-105567100D01*
X266594286Y-105567100D02*
X266737143Y-105638528D01*
X266737143Y-105638528D02*
X267022857Y-105638528D01*
X267022857Y-105638528D02*
X267165715Y-105567100D01*
X267165715Y-105567100D02*
X267308572Y-105424242D01*
X267308572Y-105424242D02*
X267380000Y-105138528D01*
X267380000Y-105138528D02*
X267380000Y-104638528D01*
X267380000Y-104638528D02*
X267308572Y-104352814D01*
X267308572Y-104352814D02*
X267165715Y-104209957D01*
X267165715Y-104209957D02*
X267022857Y-104138528D01*
X265737143Y-105638528D02*
X265737143Y-104138528D01*
X265737143Y-104138528D02*
X265165714Y-104138528D01*
X265165714Y-104138528D02*
X265022857Y-104209957D01*
X265022857Y-104209957D02*
X264951428Y-104281385D01*
X264951428Y-104281385D02*
X264880000Y-104424242D01*
X264880000Y-104424242D02*
X264880000Y-104638528D01*
X264880000Y-104638528D02*
X264951428Y-104781385D01*
X264951428Y-104781385D02*
X265022857Y-104852814D01*
X265022857Y-104852814D02*
X265165714Y-104924242D01*
X265165714Y-104924242D02*
X265737143Y-104924242D01*
X263165714Y-104067100D02*
X264451428Y-105995671D01*
X261951428Y-105638528D02*
X262665714Y-105638528D01*
X262665714Y-105638528D02*
X262665714Y-104138528D01*
X261451428Y-105638528D02*
X261451428Y-104138528D01*
X260808570Y-105567100D02*
X260594285Y-105638528D01*
X260594285Y-105638528D02*
X260237142Y-105638528D01*
X260237142Y-105638528D02*
X260094285Y-105567100D01*
X260094285Y-105567100D02*
X260022856Y-105495671D01*
X260022856Y-105495671D02*
X259951427Y-105352814D01*
X259951427Y-105352814D02*
X259951427Y-105209957D01*
X259951427Y-105209957D02*
X260022856Y-105067100D01*
X260022856Y-105067100D02*
X260094285Y-104995671D01*
X260094285Y-104995671D02*
X260237142Y-104924242D01*
X260237142Y-104924242D02*
X260522856Y-104852814D01*
X260522856Y-104852814D02*
X260665713Y-104781385D01*
X260665713Y-104781385D02*
X260737142Y-104709957D01*
X260737142Y-104709957D02*
X260808570Y-104567100D01*
X260808570Y-104567100D02*
X260808570Y-104424242D01*
X260808570Y-104424242D02*
X260737142Y-104281385D01*
X260737142Y-104281385D02*
X260665713Y-104209957D01*
X260665713Y-104209957D02*
X260522856Y-104138528D01*
X260522856Y-104138528D02*
X260165713Y-104138528D01*
X260165713Y-104138528D02*
X259951427Y-104209957D01*
X259522856Y-104138528D02*
X258665714Y-104138528D01*
X259094285Y-105638528D02*
X259094285Y-104138528D01*
X295030000Y-143708528D02*
X295530000Y-142994242D01*
X295887143Y-143708528D02*
X295887143Y-142208528D01*
X295887143Y-142208528D02*
X295315714Y-142208528D01*
X295315714Y-142208528D02*
X295172857Y-142279957D01*
X295172857Y-142279957D02*
X295101428Y-142351385D01*
X295101428Y-142351385D02*
X295030000Y-142494242D01*
X295030000Y-142494242D02*
X295030000Y-142708528D01*
X295030000Y-142708528D02*
X295101428Y-142851385D01*
X295101428Y-142851385D02*
X295172857Y-142922814D01*
X295172857Y-142922814D02*
X295315714Y-142994242D01*
X295315714Y-142994242D02*
X295887143Y-142994242D01*
X294387143Y-143708528D02*
X294387143Y-142208528D01*
X292887142Y-142279957D02*
X293030000Y-142208528D01*
X293030000Y-142208528D02*
X293244285Y-142208528D01*
X293244285Y-142208528D02*
X293458571Y-142279957D01*
X293458571Y-142279957D02*
X293601428Y-142422814D01*
X293601428Y-142422814D02*
X293672857Y-142565671D01*
X293672857Y-142565671D02*
X293744285Y-142851385D01*
X293744285Y-142851385D02*
X293744285Y-143065671D01*
X293744285Y-143065671D02*
X293672857Y-143351385D01*
X293672857Y-143351385D02*
X293601428Y-143494242D01*
X293601428Y-143494242D02*
X293458571Y-143637100D01*
X293458571Y-143637100D02*
X293244285Y-143708528D01*
X293244285Y-143708528D02*
X293101428Y-143708528D01*
X293101428Y-143708528D02*
X292887142Y-143637100D01*
X292887142Y-143637100D02*
X292815714Y-143565671D01*
X292815714Y-143565671D02*
X292815714Y-143065671D01*
X292815714Y-143065671D02*
X293101428Y-143065671D01*
X292172857Y-143708528D02*
X292172857Y-142208528D01*
X292172857Y-142922814D02*
X291315714Y-142922814D01*
X291315714Y-143708528D02*
X291315714Y-142208528D01*
X290815713Y-142208528D02*
X289958571Y-142208528D01*
X290387142Y-143708528D02*
X290387142Y-142208528D01*
X169308571Y-105588528D02*
X169308571Y-104088528D01*
X169308571Y-104802814D02*
X168451428Y-104802814D01*
X168451428Y-105588528D02*
X168451428Y-104088528D01*
X298445713Y-124717100D02*
X298231428Y-124788528D01*
X298231428Y-124788528D02*
X297874285Y-124788528D01*
X297874285Y-124788528D02*
X297731428Y-124717100D01*
X297731428Y-124717100D02*
X297659999Y-124645671D01*
X297659999Y-124645671D02*
X297588570Y-124502814D01*
X297588570Y-124502814D02*
X297588570Y-124359957D01*
X297588570Y-124359957D02*
X297659999Y-124217100D01*
X297659999Y-124217100D02*
X297731428Y-124145671D01*
X297731428Y-124145671D02*
X297874285Y-124074242D01*
X297874285Y-124074242D02*
X298159999Y-124002814D01*
X298159999Y-124002814D02*
X298302856Y-123931385D01*
X298302856Y-123931385D02*
X298374285Y-123859957D01*
X298374285Y-123859957D02*
X298445713Y-123717100D01*
X298445713Y-123717100D02*
X298445713Y-123574242D01*
X298445713Y-123574242D02*
X298374285Y-123431385D01*
X298374285Y-123431385D02*
X298302856Y-123359957D01*
X298302856Y-123359957D02*
X298159999Y-123288528D01*
X298159999Y-123288528D02*
X297802856Y-123288528D01*
X297802856Y-123288528D02*
X297588570Y-123359957D01*
X296945714Y-124788528D02*
X296945714Y-123288528D01*
X296945714Y-124002814D02*
X296088571Y-124002814D01*
X296088571Y-124788528D02*
X296088571Y-123288528D01*
X295374285Y-124788528D02*
X295374285Y-123288528D01*
X294159999Y-124002814D02*
X294659999Y-124002814D01*
X294659999Y-124788528D02*
X294659999Y-123288528D01*
X294659999Y-123288528D02*
X293945713Y-123288528D01*
X293588570Y-123288528D02*
X292731428Y-123288528D01*
X293159999Y-124788528D02*
X293159999Y-123288528D01*
X154704285Y-66038528D02*
X154989999Y-66038528D01*
X154989999Y-66038528D02*
X155132856Y-66109957D01*
X155132856Y-66109957D02*
X155204285Y-66181385D01*
X155204285Y-66181385D02*
X155347142Y-66395671D01*
X155347142Y-66395671D02*
X155418570Y-66681385D01*
X155418570Y-66681385D02*
X155418570Y-67252814D01*
X155418570Y-67252814D02*
X155347142Y-67395671D01*
X155347142Y-67395671D02*
X155275713Y-67467100D01*
X155275713Y-67467100D02*
X155132856Y-67538528D01*
X155132856Y-67538528D02*
X154847142Y-67538528D01*
X154847142Y-67538528D02*
X154704285Y-67467100D01*
X154704285Y-67467100D02*
X154632856Y-67395671D01*
X154632856Y-67395671D02*
X154561427Y-67252814D01*
X154561427Y-67252814D02*
X154561427Y-66895671D01*
X154561427Y-66895671D02*
X154632856Y-66752814D01*
X154632856Y-66752814D02*
X154704285Y-66681385D01*
X154704285Y-66681385D02*
X154847142Y-66609957D01*
X154847142Y-66609957D02*
X155132856Y-66609957D01*
X155132856Y-66609957D02*
X155275713Y-66681385D01*
X155275713Y-66681385D02*
X155347142Y-66752814D01*
X155347142Y-66752814D02*
X155418570Y-66895671D01*
X103079999Y-123138528D02*
X102079999Y-124638528D01*
X102079999Y-123138528D02*
X103079999Y-124638528D01*
X88922857Y-84988528D02*
X88565714Y-86488528D01*
X88565714Y-86488528D02*
X88280000Y-85417100D01*
X88280000Y-85417100D02*
X87994285Y-86488528D01*
X87994285Y-86488528D02*
X87637143Y-84988528D01*
X149387142Y-104059957D02*
X149530000Y-103988528D01*
X149530000Y-103988528D02*
X149744285Y-103988528D01*
X149744285Y-103988528D02*
X149958571Y-104059957D01*
X149958571Y-104059957D02*
X150101428Y-104202814D01*
X150101428Y-104202814D02*
X150172857Y-104345671D01*
X150172857Y-104345671D02*
X150244285Y-104631385D01*
X150244285Y-104631385D02*
X150244285Y-104845671D01*
X150244285Y-104845671D02*
X150172857Y-105131385D01*
X150172857Y-105131385D02*
X150101428Y-105274242D01*
X150101428Y-105274242D02*
X149958571Y-105417100D01*
X149958571Y-105417100D02*
X149744285Y-105488528D01*
X149744285Y-105488528D02*
X149601428Y-105488528D01*
X149601428Y-105488528D02*
X149387142Y-105417100D01*
X149387142Y-105417100D02*
X149315714Y-105345671D01*
X149315714Y-105345671D02*
X149315714Y-104845671D01*
X149315714Y-104845671D02*
X149601428Y-104845671D01*
X315229998Y-71140385D02*
X315287141Y-71083242D01*
X315287141Y-71083242D02*
X315401427Y-70911814D01*
X315401427Y-70911814D02*
X315458570Y-70797528D01*
X315458570Y-70797528D02*
X315515712Y-70626100D01*
X315515712Y-70626100D02*
X315572855Y-70340385D01*
X315572855Y-70340385D02*
X315572855Y-70111814D01*
X315572855Y-70111814D02*
X315515712Y-69826100D01*
X315515712Y-69826100D02*
X315458570Y-69654671D01*
X315458570Y-69654671D02*
X315401427Y-69540385D01*
X315401427Y-69540385D02*
X315287141Y-69368957D01*
X315287141Y-69368957D02*
X315229998Y-69311814D01*
X314772855Y-70683242D02*
X314772855Y-69483242D01*
X314201426Y-69883242D02*
X314201426Y-70683242D01*
X314201426Y-69997528D02*
X314144283Y-69940385D01*
X314144283Y-69940385D02*
X314029998Y-69883242D01*
X314029998Y-69883242D02*
X313858569Y-69883242D01*
X313858569Y-69883242D02*
X313744283Y-69940385D01*
X313744283Y-69940385D02*
X313687141Y-70054671D01*
X313687141Y-70054671D02*
X313687141Y-70683242D01*
X313172855Y-70626100D02*
X313058569Y-70683242D01*
X313058569Y-70683242D02*
X312829998Y-70683242D01*
X312829998Y-70683242D02*
X312715712Y-70626100D01*
X312715712Y-70626100D02*
X312658569Y-70511814D01*
X312658569Y-70511814D02*
X312658569Y-70454671D01*
X312658569Y-70454671D02*
X312715712Y-70340385D01*
X312715712Y-70340385D02*
X312829998Y-70283242D01*
X312829998Y-70283242D02*
X313001427Y-70283242D01*
X313001427Y-70283242D02*
X313115712Y-70226100D01*
X313115712Y-70226100D02*
X313172855Y-70111814D01*
X313172855Y-70111814D02*
X313172855Y-70054671D01*
X313172855Y-70054671D02*
X313115712Y-69940385D01*
X313115712Y-69940385D02*
X313001427Y-69883242D01*
X313001427Y-69883242D02*
X312829998Y-69883242D01*
X312829998Y-69883242D02*
X312715712Y-69940385D01*
X312315712Y-69883242D02*
X311858569Y-69883242D01*
X312144283Y-69483242D02*
X312144283Y-70511814D01*
X312144283Y-70511814D02*
X312087140Y-70626100D01*
X312087140Y-70626100D02*
X311972855Y-70683242D01*
X311972855Y-70683242D02*
X311858569Y-70683242D01*
X310944284Y-70683242D02*
X310944284Y-70054671D01*
X310944284Y-70054671D02*
X311001426Y-69940385D01*
X311001426Y-69940385D02*
X311115712Y-69883242D01*
X311115712Y-69883242D02*
X311344284Y-69883242D01*
X311344284Y-69883242D02*
X311458569Y-69940385D01*
X310944284Y-70626100D02*
X311058569Y-70683242D01*
X311058569Y-70683242D02*
X311344284Y-70683242D01*
X311344284Y-70683242D02*
X311458569Y-70626100D01*
X311458569Y-70626100D02*
X311515712Y-70511814D01*
X311515712Y-70511814D02*
X311515712Y-70397528D01*
X311515712Y-70397528D02*
X311458569Y-70283242D01*
X311458569Y-70283242D02*
X311344284Y-70226100D01*
X311344284Y-70226100D02*
X311058569Y-70226100D01*
X311058569Y-70226100D02*
X310944284Y-70168957D01*
X310201427Y-70683242D02*
X310315712Y-70626100D01*
X310315712Y-70626100D02*
X310372855Y-70511814D01*
X310372855Y-70511814D02*
X310372855Y-69483242D01*
X309572856Y-70683242D02*
X309687141Y-70626100D01*
X309687141Y-70626100D02*
X309744284Y-70511814D01*
X309744284Y-70511814D02*
X309744284Y-69483242D01*
X308029999Y-70683242D02*
X308144284Y-70626100D01*
X308144284Y-70626100D02*
X308201427Y-70568957D01*
X308201427Y-70568957D02*
X308258570Y-70454671D01*
X308258570Y-70454671D02*
X308258570Y-70111814D01*
X308258570Y-70111814D02*
X308201427Y-69997528D01*
X308201427Y-69997528D02*
X308144284Y-69940385D01*
X308144284Y-69940385D02*
X308029999Y-69883242D01*
X308029999Y-69883242D02*
X307858570Y-69883242D01*
X307858570Y-69883242D02*
X307744284Y-69940385D01*
X307744284Y-69940385D02*
X307687142Y-69997528D01*
X307687142Y-69997528D02*
X307629999Y-70111814D01*
X307629999Y-70111814D02*
X307629999Y-70454671D01*
X307629999Y-70454671D02*
X307687142Y-70568957D01*
X307687142Y-70568957D02*
X307744284Y-70626100D01*
X307744284Y-70626100D02*
X307858570Y-70683242D01*
X307858570Y-70683242D02*
X308029999Y-70683242D01*
X307115713Y-69883242D02*
X307115713Y-70683242D01*
X307115713Y-69997528D02*
X307058570Y-69940385D01*
X307058570Y-69940385D02*
X306944285Y-69883242D01*
X306944285Y-69883242D02*
X306772856Y-69883242D01*
X306772856Y-69883242D02*
X306658570Y-69940385D01*
X306658570Y-69940385D02*
X306601428Y-70054671D01*
X306601428Y-70054671D02*
X306601428Y-70683242D01*
X305858571Y-70683242D02*
X305972856Y-70626100D01*
X305972856Y-70626100D02*
X306029999Y-70511814D01*
X306029999Y-70511814D02*
X306029999Y-69483242D01*
X305515714Y-69883242D02*
X305230000Y-70683242D01*
X304944285Y-69883242D02*
X305230000Y-70683242D01*
X305230000Y-70683242D02*
X305344285Y-70968957D01*
X305344285Y-70968957D02*
X305401428Y-71026100D01*
X305401428Y-71026100D02*
X305515714Y-71083242D01*
X303687142Y-69883242D02*
X303458571Y-70683242D01*
X303458571Y-70683242D02*
X303229999Y-70111814D01*
X303229999Y-70111814D02*
X303001428Y-70683242D01*
X303001428Y-70683242D02*
X302772856Y-69883242D01*
X302315713Y-70683242D02*
X302315713Y-69483242D01*
X301801428Y-70683242D02*
X301801428Y-70054671D01*
X301801428Y-70054671D02*
X301858570Y-69940385D01*
X301858570Y-69940385D02*
X301972856Y-69883242D01*
X301972856Y-69883242D02*
X302144285Y-69883242D01*
X302144285Y-69883242D02*
X302258570Y-69940385D01*
X302258570Y-69940385D02*
X302315713Y-69997528D01*
X300772856Y-70626100D02*
X300887142Y-70683242D01*
X300887142Y-70683242D02*
X301115714Y-70683242D01*
X301115714Y-70683242D02*
X301229999Y-70626100D01*
X301229999Y-70626100D02*
X301287142Y-70511814D01*
X301287142Y-70511814D02*
X301287142Y-70054671D01*
X301287142Y-70054671D02*
X301229999Y-69940385D01*
X301229999Y-69940385D02*
X301115714Y-69883242D01*
X301115714Y-69883242D02*
X300887142Y-69883242D01*
X300887142Y-69883242D02*
X300772856Y-69940385D01*
X300772856Y-69940385D02*
X300715714Y-70054671D01*
X300715714Y-70054671D02*
X300715714Y-70168957D01*
X300715714Y-70168957D02*
X301287142Y-70283242D01*
X300201428Y-69883242D02*
X300201428Y-70683242D01*
X300201428Y-69997528D02*
X300144285Y-69940385D01*
X300144285Y-69940385D02*
X300030000Y-69883242D01*
X300030000Y-69883242D02*
X299858571Y-69883242D01*
X299858571Y-69883242D02*
X299744285Y-69940385D01*
X299744285Y-69940385D02*
X299687143Y-70054671D01*
X299687143Y-70054671D02*
X299687143Y-70683242D01*
X315715713Y-72615242D02*
X315715713Y-71415242D01*
X315144284Y-72615242D02*
X315144284Y-71415242D01*
X315144284Y-71415242D02*
X314458570Y-72615242D01*
X314458570Y-72615242D02*
X314458570Y-71415242D01*
X314058570Y-71415242D02*
X313658570Y-72615242D01*
X313658570Y-72615242D02*
X313258570Y-71415242D01*
X312858570Y-72158100D02*
X311944285Y-72158100D01*
X311544285Y-71415242D02*
X310858571Y-71415242D01*
X311201428Y-72615242D02*
X311201428Y-71415242D01*
X309372856Y-72615242D02*
X309487141Y-72558100D01*
X309487141Y-72558100D02*
X309544284Y-72500957D01*
X309544284Y-72500957D02*
X309601427Y-72386671D01*
X309601427Y-72386671D02*
X309601427Y-72043814D01*
X309601427Y-72043814D02*
X309544284Y-71929528D01*
X309544284Y-71929528D02*
X309487141Y-71872385D01*
X309487141Y-71872385D02*
X309372856Y-71815242D01*
X309372856Y-71815242D02*
X309201427Y-71815242D01*
X309201427Y-71815242D02*
X309087141Y-71872385D01*
X309087141Y-71872385D02*
X309029999Y-71929528D01*
X309029999Y-71929528D02*
X308972856Y-72043814D01*
X308972856Y-72043814D02*
X308972856Y-72386671D01*
X308972856Y-72386671D02*
X309029999Y-72500957D01*
X309029999Y-72500957D02*
X309087141Y-72558100D01*
X309087141Y-72558100D02*
X309201427Y-72615242D01*
X309201427Y-72615242D02*
X309372856Y-72615242D01*
X308458570Y-71815242D02*
X308458570Y-73015242D01*
X308458570Y-71872385D02*
X308344285Y-71815242D01*
X308344285Y-71815242D02*
X308115713Y-71815242D01*
X308115713Y-71815242D02*
X308001427Y-71872385D01*
X308001427Y-71872385D02*
X307944285Y-71929528D01*
X307944285Y-71929528D02*
X307887142Y-72043814D01*
X307887142Y-72043814D02*
X307887142Y-72386671D01*
X307887142Y-72386671D02*
X307944285Y-72500957D01*
X307944285Y-72500957D02*
X308001427Y-72558100D01*
X308001427Y-72558100D02*
X308115713Y-72615242D01*
X308115713Y-72615242D02*
X308344285Y-72615242D01*
X308344285Y-72615242D02*
X308458570Y-72558100D01*
X307544285Y-71815242D02*
X307087142Y-71815242D01*
X307372856Y-71415242D02*
X307372856Y-72443814D01*
X307372856Y-72443814D02*
X307315713Y-72558100D01*
X307315713Y-72558100D02*
X307201428Y-72615242D01*
X307201428Y-72615242D02*
X307087142Y-72615242D01*
X306687142Y-72615242D02*
X306687142Y-71815242D01*
X306687142Y-71415242D02*
X306744285Y-71472385D01*
X306744285Y-71472385D02*
X306687142Y-71529528D01*
X306687142Y-71529528D02*
X306629999Y-71472385D01*
X306629999Y-71472385D02*
X306687142Y-71415242D01*
X306687142Y-71415242D02*
X306687142Y-71529528D01*
X305944285Y-72615242D02*
X306058570Y-72558100D01*
X306058570Y-72558100D02*
X306115713Y-72500957D01*
X306115713Y-72500957D02*
X306172856Y-72386671D01*
X306172856Y-72386671D02*
X306172856Y-72043814D01*
X306172856Y-72043814D02*
X306115713Y-71929528D01*
X306115713Y-71929528D02*
X306058570Y-71872385D01*
X306058570Y-71872385D02*
X305944285Y-71815242D01*
X305944285Y-71815242D02*
X305772856Y-71815242D01*
X305772856Y-71815242D02*
X305658570Y-71872385D01*
X305658570Y-71872385D02*
X305601428Y-71929528D01*
X305601428Y-71929528D02*
X305544285Y-72043814D01*
X305544285Y-72043814D02*
X305544285Y-72386671D01*
X305544285Y-72386671D02*
X305601428Y-72500957D01*
X305601428Y-72500957D02*
X305658570Y-72558100D01*
X305658570Y-72558100D02*
X305772856Y-72615242D01*
X305772856Y-72615242D02*
X305944285Y-72615242D01*
X305029999Y-71815242D02*
X305029999Y-72615242D01*
X305029999Y-71929528D02*
X304972856Y-71872385D01*
X304972856Y-71872385D02*
X304858571Y-71815242D01*
X304858571Y-71815242D02*
X304687142Y-71815242D01*
X304687142Y-71815242D02*
X304572856Y-71872385D01*
X304572856Y-71872385D02*
X304515714Y-71986671D01*
X304515714Y-71986671D02*
X304515714Y-72615242D01*
X302515714Y-71815242D02*
X302515714Y-72615242D01*
X303029999Y-71815242D02*
X303029999Y-72443814D01*
X303029999Y-72443814D02*
X302972856Y-72558100D01*
X302972856Y-72558100D02*
X302858571Y-72615242D01*
X302858571Y-72615242D02*
X302687142Y-72615242D01*
X302687142Y-72615242D02*
X302572856Y-72558100D01*
X302572856Y-72558100D02*
X302515714Y-72500957D01*
X302001428Y-72558100D02*
X301887142Y-72615242D01*
X301887142Y-72615242D02*
X301658571Y-72615242D01*
X301658571Y-72615242D02*
X301544285Y-72558100D01*
X301544285Y-72558100D02*
X301487142Y-72443814D01*
X301487142Y-72443814D02*
X301487142Y-72386671D01*
X301487142Y-72386671D02*
X301544285Y-72272385D01*
X301544285Y-72272385D02*
X301658571Y-72215242D01*
X301658571Y-72215242D02*
X301830000Y-72215242D01*
X301830000Y-72215242D02*
X301944285Y-72158100D01*
X301944285Y-72158100D02*
X302001428Y-72043814D01*
X302001428Y-72043814D02*
X302001428Y-71986671D01*
X302001428Y-71986671D02*
X301944285Y-71872385D01*
X301944285Y-71872385D02*
X301830000Y-71815242D01*
X301830000Y-71815242D02*
X301658571Y-71815242D01*
X301658571Y-71815242D02*
X301544285Y-71872385D01*
X300515713Y-72558100D02*
X300629999Y-72615242D01*
X300629999Y-72615242D02*
X300858571Y-72615242D01*
X300858571Y-72615242D02*
X300972856Y-72558100D01*
X300972856Y-72558100D02*
X301029999Y-72443814D01*
X301029999Y-72443814D02*
X301029999Y-71986671D01*
X301029999Y-71986671D02*
X300972856Y-71872385D01*
X300972856Y-71872385D02*
X300858571Y-71815242D01*
X300858571Y-71815242D02*
X300629999Y-71815242D01*
X300629999Y-71815242D02*
X300515713Y-71872385D01*
X300515713Y-71872385D02*
X300458571Y-71986671D01*
X300458571Y-71986671D02*
X300458571Y-72100957D01*
X300458571Y-72100957D02*
X301029999Y-72215242D01*
X299430000Y-72615242D02*
X299430000Y-71415242D01*
X299430000Y-72558100D02*
X299544285Y-72615242D01*
X299544285Y-72615242D02*
X299772857Y-72615242D01*
X299772857Y-72615242D02*
X299887142Y-72558100D01*
X299887142Y-72558100D02*
X299944285Y-72500957D01*
X299944285Y-72500957D02*
X300001428Y-72386671D01*
X300001428Y-72386671D02*
X300001428Y-72043814D01*
X300001428Y-72043814D02*
X299944285Y-71929528D01*
X299944285Y-71929528D02*
X299887142Y-71872385D01*
X299887142Y-71872385D02*
X299772857Y-71815242D01*
X299772857Y-71815242D02*
X299544285Y-71815242D01*
X299544285Y-71815242D02*
X299430000Y-71872385D01*
X298972857Y-73072385D02*
X298915714Y-73015242D01*
X298915714Y-73015242D02*
X298801428Y-72843814D01*
X298801428Y-72843814D02*
X298744286Y-72729528D01*
X298744286Y-72729528D02*
X298687143Y-72558100D01*
X298687143Y-72558100D02*
X298630000Y-72272385D01*
X298630000Y-72272385D02*
X298630000Y-72043814D01*
X298630000Y-72043814D02*
X298687143Y-71758100D01*
X298687143Y-71758100D02*
X298744286Y-71586671D01*
X298744286Y-71586671D02*
X298801428Y-71472385D01*
X298801428Y-71472385D02*
X298915714Y-71300957D01*
X298915714Y-71300957D02*
X298972857Y-71243814D01*
X125915714Y-86488528D02*
X126415714Y-85774242D01*
X126772857Y-86488528D02*
X126772857Y-84988528D01*
X126772857Y-84988528D02*
X126201428Y-84988528D01*
X126201428Y-84988528D02*
X126058571Y-85059957D01*
X126058571Y-85059957D02*
X125987142Y-85131385D01*
X125987142Y-85131385D02*
X125915714Y-85274242D01*
X125915714Y-85274242D02*
X125915714Y-85488528D01*
X125915714Y-85488528D02*
X125987142Y-85631385D01*
X125987142Y-85631385D02*
X126058571Y-85702814D01*
X126058571Y-85702814D02*
X126201428Y-85774242D01*
X126201428Y-85774242D02*
X126772857Y-85774242D01*
X112072857Y-105488528D02*
X112072857Y-103988528D01*
X112072857Y-103988528D02*
X111715714Y-103988528D01*
X111715714Y-103988528D02*
X111501428Y-104059957D01*
X111501428Y-104059957D02*
X111358571Y-104202814D01*
X111358571Y-104202814D02*
X111287142Y-104345671D01*
X111287142Y-104345671D02*
X111215714Y-104631385D01*
X111215714Y-104631385D02*
X111215714Y-104845671D01*
X111215714Y-104845671D02*
X111287142Y-105131385D01*
X111287142Y-105131385D02*
X111358571Y-105274242D01*
X111358571Y-105274242D02*
X111501428Y-105417100D01*
X111501428Y-105417100D02*
X111715714Y-105488528D01*
X111715714Y-105488528D02*
X112072857Y-105488528D01*
X281781279Y-124203528D02*
X281781279Y-122703528D01*
X281781279Y-122703528D02*
X280924136Y-124203528D01*
X280924136Y-124203528D02*
X280924136Y-122703528D01*
X279995564Y-124203528D02*
X280138421Y-124132100D01*
X280138421Y-124132100D02*
X280209850Y-124060671D01*
X280209850Y-124060671D02*
X280281278Y-123917814D01*
X280281278Y-123917814D02*
X280281278Y-123489242D01*
X280281278Y-123489242D02*
X280209850Y-123346385D01*
X280209850Y-123346385D02*
X280138421Y-123274957D01*
X280138421Y-123274957D02*
X279995564Y-123203528D01*
X279995564Y-123203528D02*
X279781278Y-123203528D01*
X279781278Y-123203528D02*
X279638421Y-123274957D01*
X279638421Y-123274957D02*
X279566993Y-123346385D01*
X279566993Y-123346385D02*
X279495564Y-123489242D01*
X279495564Y-123489242D02*
X279495564Y-123917814D01*
X279495564Y-123917814D02*
X279566993Y-124060671D01*
X279566993Y-124060671D02*
X279638421Y-124132100D01*
X279638421Y-124132100D02*
X279781278Y-124203528D01*
X279781278Y-124203528D02*
X279995564Y-124203528D01*
X278852707Y-124203528D02*
X278852707Y-123203528D01*
X278852707Y-123489242D02*
X278781278Y-123346385D01*
X278781278Y-123346385D02*
X278709850Y-123274957D01*
X278709850Y-123274957D02*
X278566992Y-123203528D01*
X278566992Y-123203528D02*
X278424135Y-123203528D01*
X277924136Y-124203528D02*
X277924136Y-123203528D01*
X277924136Y-123346385D02*
X277852707Y-123274957D01*
X277852707Y-123274957D02*
X277709850Y-123203528D01*
X277709850Y-123203528D02*
X277495564Y-123203528D01*
X277495564Y-123203528D02*
X277352707Y-123274957D01*
X277352707Y-123274957D02*
X277281279Y-123417814D01*
X277281279Y-123417814D02*
X277281279Y-124203528D01*
X277281279Y-123417814D02*
X277209850Y-123274957D01*
X277209850Y-123274957D02*
X277066993Y-123203528D01*
X277066993Y-123203528D02*
X276852707Y-123203528D01*
X276852707Y-123203528D02*
X276709850Y-123274957D01*
X276709850Y-123274957D02*
X276638421Y-123417814D01*
X276638421Y-123417814D02*
X276638421Y-124203528D01*
X275924136Y-124060671D02*
X275852707Y-124132100D01*
X275852707Y-124132100D02*
X275924136Y-124203528D01*
X275924136Y-124203528D02*
X275995564Y-124132100D01*
X275995564Y-124132100D02*
X275924136Y-124060671D01*
X275924136Y-124060671D02*
X275924136Y-124203528D01*
X275924136Y-123274957D02*
X275852707Y-123346385D01*
X275852707Y-123346385D02*
X275924136Y-123417814D01*
X275924136Y-123417814D02*
X275995564Y-123346385D01*
X275995564Y-123346385D02*
X275924136Y-123274957D01*
X275924136Y-123274957D02*
X275924136Y-123417814D01*
X273209850Y-124203528D02*
X273709850Y-123489242D01*
X274066993Y-124203528D02*
X274066993Y-122703528D01*
X274066993Y-122703528D02*
X273495564Y-122703528D01*
X273495564Y-122703528D02*
X273352707Y-122774957D01*
X273352707Y-122774957D02*
X273281278Y-122846385D01*
X273281278Y-122846385D02*
X273209850Y-122989242D01*
X273209850Y-122989242D02*
X273209850Y-123203528D01*
X273209850Y-123203528D02*
X273281278Y-123346385D01*
X273281278Y-123346385D02*
X273352707Y-123417814D01*
X273352707Y-123417814D02*
X273495564Y-123489242D01*
X273495564Y-123489242D02*
X274066993Y-123489242D01*
X272566993Y-123417814D02*
X272066993Y-123417814D01*
X271852707Y-124203528D02*
X272566993Y-124203528D01*
X272566993Y-124203528D02*
X272566993Y-122703528D01*
X272566993Y-122703528D02*
X271852707Y-122703528D01*
X271209850Y-124203528D02*
X271209850Y-122703528D01*
X271209850Y-122703528D02*
X270638421Y-122703528D01*
X270638421Y-122703528D02*
X270495564Y-122774957D01*
X270495564Y-122774957D02*
X270424135Y-122846385D01*
X270424135Y-122846385D02*
X270352707Y-122989242D01*
X270352707Y-122989242D02*
X270352707Y-123203528D01*
X270352707Y-123203528D02*
X270424135Y-123346385D01*
X270424135Y-123346385D02*
X270495564Y-123417814D01*
X270495564Y-123417814D02*
X270638421Y-123489242D01*
X270638421Y-123489242D02*
X271209850Y-123489242D01*
X269709850Y-123417814D02*
X269209850Y-123417814D01*
X268995564Y-124203528D02*
X269709850Y-124203528D01*
X269709850Y-124203528D02*
X269709850Y-122703528D01*
X269709850Y-122703528D02*
X268995564Y-122703528D01*
X268424135Y-123774957D02*
X267709850Y-123774957D01*
X268566992Y-124203528D02*
X268066992Y-122703528D01*
X268066992Y-122703528D02*
X267566992Y-124203528D01*
X267281278Y-122703528D02*
X266424136Y-122703528D01*
X266852707Y-124203528D02*
X266852707Y-122703528D01*
X281781279Y-126618528D02*
X281781279Y-125118528D01*
X281066993Y-125618528D02*
X281066993Y-126618528D01*
X281066993Y-125761385D02*
X280995564Y-125689957D01*
X280995564Y-125689957D02*
X280852707Y-125618528D01*
X280852707Y-125618528D02*
X280638421Y-125618528D01*
X280638421Y-125618528D02*
X280495564Y-125689957D01*
X280495564Y-125689957D02*
X280424136Y-125832814D01*
X280424136Y-125832814D02*
X280424136Y-126618528D01*
X279852707Y-125618528D02*
X279495564Y-126618528D01*
X279495564Y-126618528D02*
X279138421Y-125618528D01*
X278566993Y-126047100D02*
X277424136Y-126047100D01*
X276924135Y-125118528D02*
X276066993Y-125118528D01*
X276495564Y-126618528D02*
X276495564Y-125118528D01*
X275566993Y-126475671D02*
X275495564Y-126547100D01*
X275495564Y-126547100D02*
X275566993Y-126618528D01*
X275566993Y-126618528D02*
X275638421Y-126547100D01*
X275638421Y-126547100D02*
X275566993Y-126475671D01*
X275566993Y-126475671D02*
X275566993Y-126618528D01*
X275566993Y-125689957D02*
X275495564Y-125761385D01*
X275495564Y-125761385D02*
X275566993Y-125832814D01*
X275566993Y-125832814D02*
X275638421Y-125761385D01*
X275638421Y-125761385D02*
X275566993Y-125689957D01*
X275566993Y-125689957D02*
X275566993Y-125832814D01*
X273709850Y-125118528D02*
X273709850Y-126332814D01*
X273709850Y-126332814D02*
X273638421Y-126475671D01*
X273638421Y-126475671D02*
X273566993Y-126547100D01*
X273566993Y-126547100D02*
X273424135Y-126618528D01*
X273424135Y-126618528D02*
X273138421Y-126618528D01*
X273138421Y-126618528D02*
X272995564Y-126547100D01*
X272995564Y-126547100D02*
X272924135Y-126475671D01*
X272924135Y-126475671D02*
X272852707Y-126332814D01*
X272852707Y-126332814D02*
X272852707Y-125118528D01*
X272138421Y-126618528D02*
X272138421Y-125118528D01*
X272138421Y-125118528D02*
X271566992Y-125118528D01*
X271566992Y-125118528D02*
X271424135Y-125189957D01*
X271424135Y-125189957D02*
X271352706Y-125261385D01*
X271352706Y-125261385D02*
X271281278Y-125404242D01*
X271281278Y-125404242D02*
X271281278Y-125618528D01*
X271281278Y-125618528D02*
X271352706Y-125761385D01*
X271352706Y-125761385D02*
X271424135Y-125832814D01*
X271424135Y-125832814D02*
X271566992Y-125904242D01*
X271566992Y-125904242D02*
X272138421Y-125904242D01*
D13*
X312823333Y-130197319D02*
X312823333Y-130911604D01*
X312823333Y-130911604D02*
X312870952Y-131054461D01*
X312870952Y-131054461D02*
X312966190Y-131149700D01*
X312966190Y-131149700D02*
X313109047Y-131197319D01*
X313109047Y-131197319D02*
X313204285Y-131197319D01*
X312347142Y-131197319D02*
X312347142Y-130197319D01*
X312347142Y-130197319D02*
X311966190Y-130197319D01*
X311966190Y-130197319D02*
X311870952Y-130244938D01*
X311870952Y-130244938D02*
X311823333Y-130292557D01*
X311823333Y-130292557D02*
X311775714Y-130387795D01*
X311775714Y-130387795D02*
X311775714Y-130530652D01*
X311775714Y-130530652D02*
X311823333Y-130625890D01*
X311823333Y-130625890D02*
X311870952Y-130673509D01*
X311870952Y-130673509D02*
X311966190Y-130721128D01*
X311966190Y-130721128D02*
X312347142Y-130721128D01*
X310823333Y-131197319D02*
X311394761Y-131197319D01*
X311109047Y-131197319D02*
X311109047Y-130197319D01*
X311109047Y-130197319D02*
X311204285Y-130340176D01*
X311204285Y-130340176D02*
X311299523Y-130435414D01*
X311299523Y-130435414D02*
X311394761Y-130483033D01*
X304363332Y-130227319D02*
X303744285Y-130227319D01*
X303744285Y-130227319D02*
X304077618Y-130608271D01*
X304077618Y-130608271D02*
X303934761Y-130608271D01*
X303934761Y-130608271D02*
X303839523Y-130655890D01*
X303839523Y-130655890D02*
X303791904Y-130703509D01*
X303791904Y-130703509D02*
X303744285Y-130798747D01*
X303744285Y-130798747D02*
X303744285Y-131036842D01*
X303744285Y-131036842D02*
X303791904Y-131132080D01*
X303791904Y-131132080D02*
X303839523Y-131179700D01*
X303839523Y-131179700D02*
X303934761Y-131227319D01*
X303934761Y-131227319D02*
X304220475Y-131227319D01*
X304220475Y-131227319D02*
X304315713Y-131179700D01*
X304315713Y-131179700D02*
X304363332Y-131132080D01*
X308944285Y-131227319D02*
X309515713Y-131227319D01*
X309229999Y-131227319D02*
X309229999Y-130227319D01*
X309229999Y-130227319D02*
X309325237Y-130370176D01*
X309325237Y-130370176D02*
X309420475Y-130465414D01*
X309420475Y-130465414D02*
X309515713Y-130513033D01*
X313003333Y-132657319D02*
X313003333Y-133371604D01*
X313003333Y-133371604D02*
X313050952Y-133514461D01*
X313050952Y-133514461D02*
X313146190Y-133609700D01*
X313146190Y-133609700D02*
X313289047Y-133657319D01*
X313289047Y-133657319D02*
X313384285Y-133657319D01*
X312527142Y-133657319D02*
X312527142Y-132657319D01*
X312527142Y-132657319D02*
X312146190Y-132657319D01*
X312146190Y-132657319D02*
X312050952Y-132704938D01*
X312050952Y-132704938D02*
X312003333Y-132752557D01*
X312003333Y-132752557D02*
X311955714Y-132847795D01*
X311955714Y-132847795D02*
X311955714Y-132990652D01*
X311955714Y-132990652D02*
X312003333Y-133085890D01*
X312003333Y-133085890D02*
X312050952Y-133133509D01*
X312050952Y-133133509D02*
X312146190Y-133181128D01*
X312146190Y-133181128D02*
X312527142Y-133181128D01*
X311574761Y-132752557D02*
X311527142Y-132704938D01*
X311527142Y-132704938D02*
X311431904Y-132657319D01*
X311431904Y-132657319D02*
X311193809Y-132657319D01*
X311193809Y-132657319D02*
X311098571Y-132704938D01*
X311098571Y-132704938D02*
X311050952Y-132752557D01*
X311050952Y-132752557D02*
X311003333Y-132847795D01*
X311003333Y-132847795D02*
X311003333Y-132943033D01*
X311003333Y-132943033D02*
X311050952Y-133085890D01*
X311050952Y-133085890D02*
X311622380Y-133657319D01*
X311622380Y-133657319D02*
X311003333Y-133657319D01*
X304393332Y-132707319D02*
X303774285Y-132707319D01*
X303774285Y-132707319D02*
X304107618Y-133088271D01*
X304107618Y-133088271D02*
X303964761Y-133088271D01*
X303964761Y-133088271D02*
X303869523Y-133135890D01*
X303869523Y-133135890D02*
X303821904Y-133183509D01*
X303821904Y-133183509D02*
X303774285Y-133278747D01*
X303774285Y-133278747D02*
X303774285Y-133516842D01*
X303774285Y-133516842D02*
X303821904Y-133612080D01*
X303821904Y-133612080D02*
X303869523Y-133659700D01*
X303869523Y-133659700D02*
X303964761Y-133707319D01*
X303964761Y-133707319D02*
X304250475Y-133707319D01*
X304250475Y-133707319D02*
X304345713Y-133659700D01*
X304345713Y-133659700D02*
X304393332Y-133612080D01*
X308974285Y-133707319D02*
X309545713Y-133707319D01*
X309259999Y-133707319D02*
X309259999Y-132707319D01*
X309259999Y-132707319D02*
X309355237Y-132850176D01*
X309355237Y-132850176D02*
X309450475Y-132945414D01*
X309450475Y-132945414D02*
X309545713Y-132993033D01*
D10*
X308680000Y-131072500D02*
X308680000Y-130472500D01*
X308030000Y-129772500D02*
X305230000Y-129772500D01*
X305230000Y-131772500D02*
X308030000Y-131772500D01*
X304580000Y-130472500D02*
X304580000Y-131072500D01*
X307980000Y-131772500D02*
G75*
G03*
X308680000Y-131072500I1J699999D01*
G01*
X308680000Y-130472500D02*
G75*
G03*
X307980000Y-129772500I-699999J1D01*
G01*
X304580000Y-131072500D02*
G75*
G03*
X305280000Y-131772500I700000J0D01*
G01*
X305280000Y-129772500D02*
G75*
G03*
X304580000Y-130472500I0J-700000D01*
G01*
X308710000Y-133552500D02*
X308710000Y-132952500D01*
X308060000Y-132252500D02*
X305260000Y-132252500D01*
X305260000Y-134252500D02*
X308060000Y-134252500D01*
X304610000Y-132952500D02*
X304610000Y-133552500D01*
X308010000Y-134252500D02*
G75*
G03*
X308710000Y-133552500I1J699999D01*
G01*
X308710000Y-132952500D02*
G75*
G03*
X308010000Y-132252500I-699999J1D01*
G01*
X304610000Y-133552500D02*
G75*
G03*
X305310000Y-134252500I700000J0D01*
G01*
X305310000Y-132252500D02*
G75*
G03*
X304610000Y-132952500I0J-700000D01*
G01*
M02*
