M48
; DRILL file {KiCad 7.0.6} date Fri Feb  2 16:23:34 2024
; FORMAT={-:-/ absolute / inch / decimal}
; #@! TF.CreationDate,2024-02-02T16:23:34-05:00
; #@! TF.GenerationSoftware,Kicad,Pcbnew,7.0.6
; #@! TF.FileFunction,Plated,1,2,PTH
FMAT,2
INCH
; #@! TA.AperFunction,Plated,PTH,ViaDrill
T1C0.0157
; #@! TA.AperFunction,Plated,PTH,ComponentDrill
T2C0.0354
; #@! TA.AperFunction,Plated,PTH,ComponentDrill
T3C0.0394
; #@! TA.AperFunction,Plated,PTH,ComponentDrill
T4C0.0591
%
G90
G05
T1
X2.2929Y-1.9838
X2.5232Y-2.0977
X2.8791Y-3.6115
X2.9547Y-2.1383
X3.0075Y-2.8981
X3.0508Y-2.8469
X3.1154Y-3.6107
X3.1335Y-3.1284
X3.1961Y-2.1098
X3.2441Y-2.0812
X3.2476Y-2.8942
X3.4972Y-4.3903
X3.5154Y-1.9838
X3.5469Y-3.5005
X3.5547Y-2.5399
X3.5941Y-2.2485
X3.7122Y-2.0281
X3.8791Y-3.5721
X3.9177Y-1.9966
X3.972Y-2.8863
X4.0051Y-3.6422
X4.1689Y-2.7603
X4.2319Y-2.6501
X4.2437Y-2.8115
X4.2923Y-3.5999
X4.3177Y-2.0607
X4.61Y-3.5389
X4.787Y-3.406
X4.8083Y-3.6332
X4.8382Y-3.5005
X4.9248Y-2.7603
X5.0421Y-3.5999
X5.161Y-2.8814
X5.5705Y-3.5005
X5.6492Y-2.8076
X5.8933Y-2.7603
X6.0469Y-2.8863
X6.0681Y-3.406
X6.1291Y-2.6658
X6.1744Y-3.5999
X6.3362Y-3.6351
X6.3736Y-2.8469
X6.589Y-4.2623
X6.7732Y-2.0607
X6.7988Y-3.3725
X6.8693Y-2.7288
X7.0012Y-4.3903
X7.0902Y-3.5005
X7.1689Y-2.8706
X7.3264Y-2.8076
X7.9327Y-2.7367
X7.9618Y-4.3223
X8.1315Y-3.3725
X8.3201Y-3.5389
X8.3335Y-2.7682
X8.3949Y-3.6588
X8.5232Y-2.0281
X8.5839Y-3.5999
X8.9579Y-3.406
X9.0406Y-3.5999
X9.2335Y-4.2178
X9.2594Y-2.7564
X9.5705Y-2.469
X9.575Y-2.7288
X9.7728Y-3.5665
X9.8697Y-4.2178
X9.9091Y-3.5005
X10.0193Y-1.9966
X10.034Y-3.6265
X10.2744Y-2.0603
X10.3894Y-2.8076
X10.5154Y-4.3223
X10.5445Y-3.5999
X10.9654Y-4.095
X11.2398Y-2.0281
X11.5238Y-5.02
X11.548Y-4.9808
X11.6724Y-4.982
X11.7661Y-5.1454
X12.0189Y-4.8859
X12.072Y-4.9804
X12.1819Y-5.0513
T3
X2.5547Y-1.8942
X2.6547Y-1.8942
X2.7547Y-1.8942
X2.8547Y-1.8942
X2.9547Y-1.8942
X3.0547Y-1.8942
X3.1547Y-1.8942
X3.2547Y-1.8942
X3.6177Y-1.8942
X3.7177Y-1.8942
X3.8177Y-1.8942
X3.9177Y-1.8942
X4.0177Y-1.8942
X4.1177Y-1.8942
X4.2177Y-1.8942
X4.3177Y-1.8942
T4
X1.825Y-3.0875
X1.9947Y-3.8375
X2.075Y-2.9875
X2.2Y-2.3375
X2.2447Y-3.7375
X2.3Y-4.5875
X2.45Y-2.2375
X2.55Y-4.4875
X2.575Y-3.0875
X2.7447Y-3.8375
X2.825Y-2.9875
X2.95Y-2.3375
X2.9947Y-3.7375
X3.1375Y-4.5875
X3.2Y-2.2375
X3.325Y-3.0875
X3.3875Y-4.4875
X3.4947Y-3.8375
X3.575Y-2.9875
X3.7Y-2.3375
X3.7447Y-3.7375
X3.8875Y-4.5875
X3.95Y-2.2375
X4.075Y-3.0875
X4.1375Y-4.4875
X4.2447Y-3.8375
X4.325Y-2.9875
X4.45Y-2.3375
X4.4947Y-3.7375
X4.6375Y-4.5875
X4.7Y-2.2375
X4.825Y-3.0875
X4.8875Y-4.4875
X4.9947Y-3.8375
X5.075Y-2.9875
X5.2Y-2.3375
X5.2447Y-3.7375
X5.3875Y-4.5875
X5.45Y-2.2375
X5.575Y-3.0875
X5.6375Y-4.4875
X5.7447Y-3.8375
X5.825Y-2.9875
X5.95Y-2.3375
X5.9947Y-3.7375
X6.1375Y-4.5875
X6.2Y-2.2375
X6.325Y-3.0875
X6.3875Y-4.4875
X6.4947Y-3.8375
X6.575Y-2.9875
X6.7Y-2.3375
X6.7447Y-3.7375
X6.8Y-5.3375
X6.8875Y-4.5875
X6.95Y-2.2375
X7.05Y-5.2375
X7.075Y-3.0875
X7.1375Y-4.4875
X7.2447Y-3.8375
X7.325Y-2.9875
X7.45Y-2.3375
X7.4947Y-3.7375
X7.6375Y-4.5875
X7.7Y-2.2375
X7.825Y-3.0875
X7.8875Y-4.4875
X7.9947Y-3.8375
X8.075Y-2.9875
X8.2Y-2.3375
X8.2447Y-3.7375
X8.3875Y-4.5875
X8.45Y-2.2375
X8.575Y-3.0875
X8.6375Y-4.4875
X8.7554Y-3.8375
X8.825Y-2.9875
X8.95Y-2.3375
X9.0054Y-3.7375
X9.1375Y-4.5875
X9.2Y-2.2375
X9.325Y-3.0875
X9.3875Y-4.4875
X9.5054Y-3.8375
X9.575Y-2.9875
X9.7Y-2.3375
X9.7554Y-3.7375
X9.8875Y-4.5875
X9.8875Y-5.3375
X9.95Y-2.2375
X10.0625Y-3.0875
X10.1375Y-4.4875
X10.1375Y-5.2375
X10.2554Y-3.8375
X10.3125Y-2.9875
X10.45Y-2.3375
X10.5054Y-3.7375
X10.6375Y-4.5875
X10.6375Y-5.3375
X10.7Y-2.2375
X10.825Y-3.0875
X10.8875Y-4.4875
X10.8875Y-5.2375
X11.075Y-2.9875
X11.2Y-2.3375
X11.3875Y-5.3375
X11.45Y-2.2375
X11.475Y-3.8375
X11.4875Y-4.5875
X11.6375Y-5.2375
X11.725Y-3.7375
X11.7375Y-4.4875
X11.7625Y-3.0875
X11.95Y-2.3375
X12.0125Y-2.9875
X12.2Y-2.2375
T2
G00X1.8835Y-2.9611
M15
G01X1.8618Y-2.9611
M16
G05
G00X2.0531Y-3.7111
M15
G01X2.0315Y-3.7111
M16
G05
G00X2.1482Y-2.9916
M15
G01X2.1482Y-3.0133
M16
G05
G00X2.2585Y-2.2111
M15
G01X2.2368Y-2.2111
M16
G05
G00X2.3179Y-3.7416
M15
G01X2.3179Y-3.7633
M16
G05
G00X2.3585Y-4.4611
M15
G01X2.3368Y-4.4611
M16
G05
G00X2.5232Y-2.2416
M15
G01X2.5232Y-2.2633
M16
G05
G00X2.6335Y-2.9611
M15
G01X2.6118Y-2.9611
M16
G05
G00X2.6232Y-4.4916
M15
G01X2.6232Y-4.5133
M16
G05
G00X2.8031Y-3.7111
M15
G01X2.7815Y-3.7111
M16
G05
G00X2.8982Y-2.9916
M15
G01X2.8982Y-3.0133
M16
G05
G00X3.0085Y-2.2111
M15
G01X2.9868Y-2.2111
M16
G05
G00X3.0679Y-3.7416
M15
G01X3.0679Y-3.7633
M16
G05
G00X3.196Y-4.4611
M15
G01X3.1743Y-4.4611
M16
G05
G00X3.2732Y-2.2416
M15
G01X3.2732Y-2.2633
M16
G05
G00X3.3835Y-2.9611
M15
G01X3.3618Y-2.9611
M16
G05
G00X3.4607Y-4.4916
M15
G01X3.4607Y-4.5133
M16
G05
G00X3.5531Y-3.7111
M15
G01X3.5315Y-3.7111
M16
G05
G00X3.6482Y-2.9916
M15
G01X3.6482Y-3.0133
M16
G05
G00X3.7585Y-2.2111
M15
G01X3.7368Y-2.2111
M16
G05
G00X3.8179Y-3.7416
M15
G01X3.8179Y-3.7633
M16
G05
G00X3.946Y-4.4611
M15
G01X3.9243Y-4.4611
M16
G05
G00X4.0232Y-2.2416
M15
G01X4.0232Y-2.2633
M16
G05
G00X4.1335Y-2.9611
M15
G01X4.1118Y-2.9611
M16
G05
G00X4.2107Y-4.4916
M15
G01X4.2107Y-4.5133
M16
G05
G00X4.3031Y-3.7111
M15
G01X4.2815Y-3.7111
M16
G05
G00X4.3982Y-2.9916
M15
G01X4.3982Y-3.0133
M16
G05
G00X4.5085Y-2.2111
M15
G01X4.4868Y-2.2111
M16
G05
G00X4.5679Y-3.7416
M15
G01X4.5679Y-3.7633
M16
G05
G00X4.696Y-4.4611
M15
G01X4.6743Y-4.4611
M16
G05
G00X4.7732Y-2.2416
M15
G01X4.7732Y-2.2633
M16
G05
G00X4.8835Y-2.9611
M15
G01X4.8618Y-2.9611
M16
G05
G00X4.9607Y-4.4916
M15
G01X4.9607Y-4.5133
M16
G05
G00X5.0531Y-3.7111
M15
G01X5.0315Y-3.7111
M16
G05
G00X5.1482Y-2.9916
M15
G01X5.1482Y-3.0133
M16
G05
G00X5.2585Y-2.2111
M15
G01X5.2368Y-2.2111
M16
G05
G00X5.3179Y-3.7416
M15
G01X5.3179Y-3.7633
M16
G05
G00X5.446Y-4.4611
M15
G01X5.4243Y-4.4611
M16
G05
G00X5.5232Y-2.2416
M15
G01X5.5232Y-2.2633
M16
G05
G00X5.6335Y-2.9611
M15
G01X5.6118Y-2.9611
M16
G05
G00X5.7107Y-4.4916
M15
G01X5.7107Y-4.5133
M16
G05
G00X5.8031Y-3.7111
M15
G01X5.7815Y-3.7111
M16
G05
G00X5.8982Y-2.9916
M15
G01X5.8982Y-3.0133
M16
G05
G00X6.0085Y-2.2111
M15
G01X5.9868Y-2.2111
M16
G05
G00X6.0679Y-3.7416
M15
G01X6.0679Y-3.7633
M16
G05
G00X6.196Y-4.4611
M15
G01X6.1743Y-4.4611
M16
G05
G00X6.2732Y-2.2416
M15
G01X6.2732Y-2.2633
M16
G05
G00X6.3835Y-2.9611
M15
G01X6.3618Y-2.9611
M16
G05
G00X6.4607Y-4.4916
M15
G01X6.4607Y-4.5133
M16
G05
G00X6.5531Y-3.7111
M15
G01X6.5315Y-3.7111
M16
G05
G00X6.6482Y-2.9916
M15
G01X6.6482Y-3.0133
M16
G05
G00X6.7585Y-2.2111
M15
G01X6.7368Y-2.2111
M16
G05
G00X6.8179Y-3.7416
M15
G01X6.8179Y-3.7633
M16
G05
G00X6.8585Y-5.2111
M15
G01X6.8368Y-5.2111
M16
G05
G00X6.946Y-4.4611
M15
G01X6.9243Y-4.4611
M16
G05
G00X7.0232Y-2.2416
M15
G01X7.0232Y-2.2633
M16
G05
G00X7.1335Y-2.9611
M15
G01X7.1118Y-2.9611
M16
G05
G00X7.1232Y-5.2416
M15
G01X7.1232Y-5.2633
M16
G05
G00X7.2107Y-4.4916
M15
G01X7.2107Y-4.5133
M16
G05
G00X7.3031Y-3.7111
M15
G01X7.2815Y-3.7111
M16
G05
G00X7.3982Y-2.9916
M15
G01X7.3982Y-3.0133
M16
G05
G00X7.5085Y-2.2111
M15
G01X7.4868Y-2.2111
M16
G05
G00X7.5679Y-3.7416
M15
G01X7.5679Y-3.7633
M16
G05
G00X7.696Y-4.4611
M15
G01X7.6743Y-4.4611
M16
G05
G00X7.7732Y-2.2416
M15
G01X7.7732Y-2.2633
M16
G05
G00X7.8835Y-2.9611
M15
G01X7.8618Y-2.9611
M16
G05
G00X7.9607Y-4.4916
M15
G01X7.9607Y-4.5133
M16
G05
G00X8.0531Y-3.7111
M15
G01X8.0315Y-3.7111
M16
G05
G00X8.1482Y-2.9916
M15
G01X8.1482Y-3.0133
M16
G05
G00X8.2585Y-2.2111
M15
G01X8.2368Y-2.2111
M16
G05
G00X8.3179Y-3.7416
M15
G01X8.3179Y-3.7633
M16
G05
G00X8.446Y-4.4611
M15
G01X8.4243Y-4.4611
M16
G05
G00X8.5232Y-2.2416
M15
G01X8.5232Y-2.2633
M16
G05
G00X8.6335Y-2.9611
M15
G01X8.6118Y-2.9611
M16
G05
G00X8.7107Y-4.4916
M15
G01X8.7107Y-4.5133
M16
G05
G00X8.8139Y-3.7111
M15
G01X8.7922Y-3.7111
M16
G05
G00X8.8982Y-2.9916
M15
G01X8.8982Y-3.0133
M16
G05
G00X9.0085Y-2.2111
M15
G01X8.9868Y-2.2111
M16
G05
G00X9.0786Y-3.7416
M15
G01X9.0786Y-3.7633
M16
G05
G00X9.196Y-4.4611
M15
G01X9.1743Y-4.4611
M16
G05
G00X9.2732Y-2.2416
M15
G01X9.2732Y-2.2633
M16
G05
G00X9.3835Y-2.9611
M15
G01X9.3618Y-2.9611
M16
G05
G00X9.4607Y-4.4916
M15
G01X9.4607Y-4.5133
M16
G05
G00X9.5639Y-3.7111
M15
G01X9.5422Y-3.7111
M16
G05
G00X9.6482Y-2.9916
M15
G01X9.6482Y-3.0133
M16
G05
G00X9.7585Y-2.2111
M15
G01X9.7368Y-2.2111
M16
G05
G00X9.8286Y-3.7416
M15
G01X9.8286Y-3.7633
M16
G05
G00X9.946Y-4.4611
M15
G01X9.9243Y-4.4611
M16
G05
G00X9.946Y-5.2111
M15
G01X9.9243Y-5.2111
M16
G05
G00X10.0232Y-2.2416
M15
G01X10.0232Y-2.2633
M16
G05
G00X10.121Y-2.9611
M15
G01X10.0993Y-2.9611
M16
G05
G00X10.2107Y-4.4916
M15
G01X10.2107Y-4.5133
M16
G05
G00X10.2107Y-5.2416
M15
G01X10.2107Y-5.2633
M16
G05
G00X10.3139Y-3.7111
M15
G01X10.2922Y-3.7111
M16
G05
G00X10.3857Y-2.9916
M15
G01X10.3857Y-3.0133
M16
G05
G00X10.5085Y-2.2111
M15
G01X10.4868Y-2.2111
M16
G05
G00X10.5786Y-3.7416
M15
G01X10.5786Y-3.7633
M16
G05
G00X10.696Y-4.4611
M15
G01X10.6743Y-4.4611
M16
G05
G00X10.696Y-5.2111
M15
G01X10.6743Y-5.2111
M16
G05
G00X10.7732Y-2.2416
M15
G01X10.7732Y-2.2633
M16
G05
G00X10.8835Y-2.9611
M15
G01X10.8618Y-2.9611
M16
G05
G00X10.9607Y-4.4916
M15
G01X10.9607Y-4.5133
M16
G05
G00X10.9607Y-5.2416
M15
G01X10.9607Y-5.2633
M16
G05
G00X11.1482Y-2.9916
M15
G01X11.1482Y-3.0133
M16
G05
G00X11.2585Y-2.2111
M15
G01X11.2368Y-2.2111
M16
G05
G00X11.446Y-5.2111
M15
G01X11.4243Y-5.2111
M16
G05
G00X11.5335Y-3.7111
M15
G01X11.5118Y-3.7111
M16
G05
G00X11.5232Y-2.2416
M15
G01X11.5232Y-2.2633
M16
G05
G00X11.546Y-4.4611
M15
G01X11.5243Y-4.4611
M16
G05
G00X11.7107Y-5.2416
M15
G01X11.7107Y-5.2633
M16
G05
G00X11.7982Y-3.7416
M15
G01X11.7982Y-3.7633
M16
G05
G00X11.821Y-2.9611
M15
G01X11.7993Y-2.9611
M16
G05
G00X11.8107Y-4.4916
M15
G01X11.8107Y-4.5133
M16
G05
G00X12.0085Y-2.2111
M15
G01X11.9868Y-2.2111
M16
G05
G00X12.0857Y-2.9916
M15
G01X12.0857Y-3.0133
M16
G05
G00X12.2732Y-2.2416
M15
G01X12.2732Y-2.2633
M16
G05
T0
M30
