G04 #@! TF.GenerationSoftware,KiCad,Pcbnew,7.0.6*
G04 #@! TF.CreationDate,2024-02-02T16:23:30-05:00*
G04 #@! TF.ProjectId,Galaksija-mx,47616c61-6b73-4696-9a61-2d6d782e6b69,1.0*
G04 #@! TF.SameCoordinates,Original*
G04 #@! TF.FileFunction,Soldermask,Top*
G04 #@! TF.FilePolarity,Negative*
%FSLAX46Y46*%
G04 Gerber Fmt 4.6, Leading zero omitted, Abs format (unit mm)*
G04 Created by KiCad (PCBNEW 7.0.6) date 2024-02-02 16:23:30*
%MOMM*%
%LPD*%
G01*
G04 APERTURE LIST*
%ADD10C,3.050000*%
%ADD11C,4.000000*%
%ADD12C,1.700000*%
%ADD13C,5.100000*%
%ADD14C,2.200000*%
%ADD15O,1.900000X2.450000*%
%ADD16O,2.450000X1.900000*%
%ADD17R,1.700000X1.700000*%
%ADD18O,1.700000X1.700000*%
G04 APERTURE END LIST*
D10*
X126530000Y-131112500D03*
D11*
X126530000Y-146352500D03*
D12*
X171450000Y-138112500D03*
D13*
X176530000Y-138112500D03*
D12*
X181610000Y-138112500D03*
D10*
X226530000Y-131112500D03*
D11*
X226530000Y-146352500D03*
D14*
X179070000Y-133032500D03*
D15*
X180930000Y-133412500D03*
D14*
X172720000Y-135572500D03*
D16*
X173930000Y-132362500D03*
D12*
X287972500Y-138112500D03*
D13*
X293052500Y-138112500D03*
D12*
X298132500Y-138112500D03*
D14*
X295592500Y-133032500D03*
D15*
X297452500Y-133412500D03*
D14*
X289242500Y-135572500D03*
D16*
X290452500Y-132362500D03*
D12*
X144645000Y-100012500D03*
D13*
X149725000Y-100012500D03*
D12*
X154805000Y-100012500D03*
D14*
X152265000Y-94932500D03*
D15*
X154125000Y-95312500D03*
D14*
X145915000Y-97472500D03*
D16*
X147125000Y-94262500D03*
D12*
X273685000Y-80962500D03*
D13*
X278765000Y-80962500D03*
D12*
X283845000Y-80962500D03*
D14*
X281305000Y-75882500D03*
D15*
X283165000Y-76262500D03*
D14*
X274955000Y-78422500D03*
D16*
X276165000Y-75212500D03*
D12*
X121285000Y-80962500D03*
D13*
X126365000Y-80962500D03*
D12*
X131445000Y-80962500D03*
D14*
X128905000Y-75882500D03*
D15*
X130765000Y-76262500D03*
D14*
X122555000Y-78422500D03*
D16*
X123765000Y-75212500D03*
D12*
X297497500Y-80962500D03*
D13*
X302577500Y-80962500D03*
D12*
X307657500Y-80962500D03*
D14*
X305117500Y-75882500D03*
D15*
X306977500Y-76262500D03*
D14*
X298767500Y-78422500D03*
D16*
X299977500Y-75212500D03*
D12*
X116522500Y-119062500D03*
D13*
X121602500Y-119062500D03*
D12*
X126682500Y-119062500D03*
D14*
X124142500Y-113982500D03*
D15*
X126002500Y-114362500D03*
D14*
X117792500Y-116522500D03*
D16*
X119002500Y-113312500D03*
D12*
X221117500Y-100012500D03*
D13*
X226197500Y-100012500D03*
D12*
X231277500Y-100012500D03*
D14*
X228737500Y-94932500D03*
D15*
X230597500Y-95312500D03*
D14*
X222387500Y-97472500D03*
D16*
X223597500Y-94262500D03*
D12*
X135572500Y-119062500D03*
D13*
X140652500Y-119062500D03*
D12*
X145732500Y-119062500D03*
D14*
X143192500Y-113982500D03*
D15*
X145052500Y-114362500D03*
D14*
X136842500Y-116522500D03*
D16*
X138052500Y-113312500D03*
D12*
X57150000Y-119062500D03*
D13*
X62230000Y-119062500D03*
D12*
X67310000Y-119062500D03*
D14*
X64770000Y-113982500D03*
D15*
X66630000Y-114362500D03*
D14*
X58420000Y-116522500D03*
D16*
X59630000Y-113312500D03*
D12*
X264160000Y-61912500D03*
D13*
X269240000Y-61912500D03*
D12*
X274320000Y-61912500D03*
D14*
X271780000Y-56832500D03*
D15*
X273640000Y-57212500D03*
D14*
X265430000Y-59372500D03*
D16*
X266640000Y-56162500D03*
D12*
X149860000Y-61912500D03*
D13*
X154940000Y-61912500D03*
D12*
X160020000Y-61912500D03*
D14*
X157480000Y-56832500D03*
D15*
X159340000Y-57212500D03*
D14*
X151130000Y-59372500D03*
D16*
X152340000Y-56162500D03*
D12*
X102235000Y-80962500D03*
D13*
X107315000Y-80962500D03*
D12*
X112395000Y-80962500D03*
D14*
X109855000Y-75882500D03*
D15*
X111715000Y-76262500D03*
D14*
X103505000Y-78422500D03*
D16*
X104715000Y-75212500D03*
D12*
X73660000Y-61912500D03*
D13*
X78740000Y-61912500D03*
D12*
X83820000Y-61912500D03*
D14*
X81280000Y-56832500D03*
D15*
X83140000Y-57212500D03*
D14*
X74930000Y-59372500D03*
D16*
X76140000Y-56162500D03*
D12*
X78422500Y-119062500D03*
D13*
X83502500Y-119062500D03*
D12*
X88582500Y-119062500D03*
D14*
X86042500Y-113982500D03*
D15*
X87902500Y-114362500D03*
D14*
X79692500Y-116522500D03*
D16*
X80902500Y-113312500D03*
D12*
X178435000Y-80962500D03*
D13*
X183515000Y-80962500D03*
D12*
X188595000Y-80962500D03*
D14*
X186055000Y-75882500D03*
D15*
X187915000Y-76262500D03*
D14*
X179705000Y-78422500D03*
D16*
X180915000Y-75212500D03*
D12*
X259217500Y-100012500D03*
D13*
X264297500Y-100012500D03*
D12*
X269377500Y-100012500D03*
D14*
X266837500Y-94932500D03*
D15*
X268697500Y-95312500D03*
D14*
X260487500Y-97472500D03*
D16*
X261697500Y-94262500D03*
D12*
X240167500Y-100012500D03*
D13*
X245247500Y-100012500D03*
D12*
X250327500Y-100012500D03*
D14*
X247787500Y-94932500D03*
D15*
X249647500Y-95312500D03*
D14*
X241437500Y-97472500D03*
D16*
X242647500Y-94262500D03*
D12*
X154622500Y-119062500D03*
D13*
X159702500Y-119062500D03*
D12*
X164782500Y-119062500D03*
D14*
X162242500Y-113982500D03*
D15*
X164102500Y-114362500D03*
D14*
X155892500Y-116522500D03*
D16*
X157102500Y-113312500D03*
D12*
X283210000Y-61912500D03*
D13*
X288290000Y-61912500D03*
D12*
X293370000Y-61912500D03*
D14*
X290830000Y-56832500D03*
D15*
X292690000Y-57212500D03*
D14*
X284480000Y-59372500D03*
D16*
X285690000Y-56162500D03*
D12*
X92710000Y-61912500D03*
D13*
X97790000Y-61912500D03*
D12*
X102870000Y-61912500D03*
D14*
X100330000Y-56832500D03*
D15*
X102190000Y-57212500D03*
D14*
X93980000Y-59372500D03*
D16*
X95190000Y-56162500D03*
D12*
X197485000Y-80962500D03*
D13*
X202565000Y-80962500D03*
D12*
X207645000Y-80962500D03*
D14*
X205105000Y-75882500D03*
D15*
X206965000Y-76262500D03*
D14*
X198755000Y-78422500D03*
D16*
X199965000Y-75212500D03*
D12*
X211772500Y-119062500D03*
D13*
X216852500Y-119062500D03*
D12*
X221932500Y-119062500D03*
D14*
X219392500Y-113982500D03*
D15*
X221252500Y-114362500D03*
D14*
X213042500Y-116522500D03*
D16*
X214252500Y-113312500D03*
D12*
X192722500Y-119062500D03*
D13*
X197802500Y-119062500D03*
D12*
X202882500Y-119062500D03*
D14*
X200342500Y-113982500D03*
D15*
X202202500Y-114362500D03*
D14*
X193992500Y-116522500D03*
D16*
X195202500Y-113312500D03*
D12*
X87495000Y-100012500D03*
D13*
X92575000Y-100012500D03*
D12*
X97655000Y-100012500D03*
D14*
X95115000Y-94932500D03*
D15*
X96975000Y-95312500D03*
D14*
X88765000Y-97472500D03*
D16*
X89975000Y-94262500D03*
D12*
X235585000Y-80962500D03*
D13*
X240665000Y-80962500D03*
D12*
X245745000Y-80962500D03*
D14*
X243205000Y-75882500D03*
D15*
X245065000Y-76262500D03*
D14*
X236855000Y-78422500D03*
D16*
X238065000Y-75212500D03*
D12*
X45085000Y-80962500D03*
D13*
X50165000Y-80962500D03*
D12*
X55245000Y-80962500D03*
D14*
X52705000Y-75882500D03*
D15*
X54565000Y-76262500D03*
D14*
X46355000Y-78422500D03*
D16*
X47565000Y-75212500D03*
D12*
X68445000Y-100012500D03*
D13*
X73525000Y-100012500D03*
D12*
X78605000Y-100012500D03*
D14*
X76065000Y-94932500D03*
D15*
X77925000Y-95312500D03*
D14*
X69715000Y-97472500D03*
D16*
X70925000Y-94262500D03*
D12*
X111760000Y-61912500D03*
D13*
X116840000Y-61912500D03*
D12*
X121920000Y-61912500D03*
D14*
X119380000Y-56832500D03*
D15*
X121240000Y-57212500D03*
D14*
X113030000Y-59372500D03*
D16*
X114240000Y-56162500D03*
D12*
X249872500Y-119062500D03*
D13*
X254952500Y-119062500D03*
D12*
X260032500Y-119062500D03*
D14*
X257492500Y-113982500D03*
D15*
X259352500Y-114362500D03*
D14*
X251142500Y-116522500D03*
D16*
X252352500Y-113312500D03*
D12*
X201795000Y-100012500D03*
D13*
X206875000Y-100012500D03*
D12*
X211955000Y-100012500D03*
D14*
X209415000Y-94932500D03*
D15*
X211275000Y-95312500D03*
D14*
X203065000Y-97472500D03*
D16*
X204275000Y-94262500D03*
D12*
X268922500Y-138112500D03*
D13*
X274002500Y-138112500D03*
D12*
X279082500Y-138112500D03*
D14*
X276542500Y-133032500D03*
D15*
X278402500Y-133412500D03*
D14*
X270192500Y-135572500D03*
D16*
X271402500Y-132362500D03*
D12*
X182745000Y-100012500D03*
D13*
X187825000Y-100012500D03*
D12*
X192905000Y-100012500D03*
D14*
X190365000Y-94932500D03*
D15*
X192225000Y-95312500D03*
D14*
X184015000Y-97472500D03*
D16*
X185225000Y-94262500D03*
D17*
X64890000Y-48112500D03*
D18*
X67430000Y-48112500D03*
X69970000Y-48112500D03*
X72510000Y-48112500D03*
X75050000Y-48112500D03*
X77590000Y-48112500D03*
X80130000Y-48112500D03*
X82670000Y-48112500D03*
D12*
X159385000Y-80962500D03*
D13*
X164465000Y-80962500D03*
D12*
X169545000Y-80962500D03*
D14*
X167005000Y-75882500D03*
D15*
X168865000Y-76262500D03*
D14*
X160655000Y-78422500D03*
D16*
X161865000Y-75212500D03*
D12*
X140335000Y-80962500D03*
D13*
X145415000Y-80962500D03*
D12*
X150495000Y-80962500D03*
D14*
X147955000Y-75882500D03*
D15*
X149815000Y-76262500D03*
D14*
X141605000Y-78422500D03*
D16*
X142815000Y-75212500D03*
D12*
X290512500Y-119062500D03*
D13*
X295592500Y-119062500D03*
D12*
X300672500Y-119062500D03*
D14*
X298132500Y-113982500D03*
D15*
X299992500Y-114362500D03*
D14*
X291782500Y-116522500D03*
D16*
X292992500Y-113312500D03*
D10*
X283375000Y-93012500D03*
D11*
X283375000Y-108252500D03*
D12*
X290195000Y-100012500D03*
D13*
X295275000Y-100012500D03*
D12*
X300355000Y-100012500D03*
D10*
X307175000Y-93012500D03*
D11*
X307175000Y-108252500D03*
D14*
X297815000Y-94932500D03*
D15*
X299675000Y-95312500D03*
D14*
X291465000Y-97472500D03*
D16*
X292675000Y-94262500D03*
D12*
X207010000Y-61912500D03*
D13*
X212090000Y-61912500D03*
D12*
X217170000Y-61912500D03*
D14*
X214630000Y-56832500D03*
D15*
X216490000Y-57212500D03*
D14*
X208280000Y-59372500D03*
D16*
X209490000Y-56162500D03*
D12*
X216535000Y-80962500D03*
D13*
X221615000Y-80962500D03*
D12*
X226695000Y-80962500D03*
D14*
X224155000Y-75882500D03*
D15*
X226015000Y-76262500D03*
D14*
X217805000Y-78422500D03*
D16*
X219015000Y-75212500D03*
D12*
X168910000Y-61912500D03*
D13*
X173990000Y-61912500D03*
D12*
X179070000Y-61912500D03*
D14*
X176530000Y-56832500D03*
D15*
X178390000Y-57212500D03*
D14*
X170180000Y-59372500D03*
D16*
X171390000Y-56162500D03*
D12*
X230822500Y-119062500D03*
D13*
X235902500Y-119062500D03*
D12*
X240982500Y-119062500D03*
D14*
X238442500Y-113982500D03*
D15*
X240302500Y-114362500D03*
D14*
X232092500Y-116522500D03*
D16*
X233302500Y-113312500D03*
D12*
X125595000Y-100012500D03*
D13*
X130675000Y-100012500D03*
D12*
X135755000Y-100012500D03*
D14*
X133215000Y-94932500D03*
D15*
X135075000Y-95312500D03*
D14*
X126865000Y-97472500D03*
D16*
X128075000Y-94262500D03*
D17*
X91890000Y-48112500D03*
D18*
X94430000Y-48112500D03*
X96970000Y-48112500D03*
X99510000Y-48112500D03*
X102050000Y-48112500D03*
X104590000Y-48112500D03*
X107130000Y-48112500D03*
X109670000Y-48112500D03*
D12*
X254317500Y-80962500D03*
D13*
X259397500Y-80962500D03*
D12*
X264477500Y-80962500D03*
D14*
X261937500Y-75882500D03*
D15*
X263797500Y-76262500D03*
D14*
X255587500Y-78422500D03*
D16*
X256797500Y-75212500D03*
D12*
X130810000Y-61912500D03*
D13*
X135890000Y-61912500D03*
D12*
X140970000Y-61912500D03*
D14*
X138430000Y-56832500D03*
D15*
X140290000Y-57212500D03*
D14*
X132080000Y-59372500D03*
D16*
X133290000Y-56162500D03*
D12*
X226060000Y-61912500D03*
D13*
X231140000Y-61912500D03*
D12*
X236220000Y-61912500D03*
D14*
X233680000Y-56832500D03*
D15*
X235540000Y-57212500D03*
D14*
X227330000Y-59372500D03*
D16*
X228540000Y-56162500D03*
D12*
X49395000Y-100012500D03*
D13*
X54475000Y-100012500D03*
D12*
X59555000Y-100012500D03*
D14*
X57015000Y-94932500D03*
D15*
X58875000Y-95312500D03*
D14*
X50665000Y-97472500D03*
D16*
X51875000Y-94262500D03*
D12*
X302260000Y-61912500D03*
D13*
X307340000Y-61912500D03*
D12*
X312420000Y-61912500D03*
D14*
X309880000Y-56832500D03*
D15*
X311740000Y-57212500D03*
D14*
X303530000Y-59372500D03*
D16*
X304740000Y-56162500D03*
D12*
X187960000Y-61912500D03*
D13*
X193040000Y-61912500D03*
D12*
X198120000Y-61912500D03*
D14*
X195580000Y-56832500D03*
D15*
X197440000Y-57212500D03*
D14*
X189230000Y-59372500D03*
D16*
X190440000Y-56162500D03*
D12*
X97472500Y-119062500D03*
D13*
X102552500Y-119062500D03*
D12*
X107632500Y-119062500D03*
D14*
X105092500Y-113982500D03*
D15*
X106952500Y-114362500D03*
D14*
X98742500Y-116522500D03*
D16*
X99952500Y-113312500D03*
D12*
X106545000Y-100012500D03*
D13*
X111625000Y-100012500D03*
D12*
X116705000Y-100012500D03*
D14*
X114165000Y-94932500D03*
D15*
X116025000Y-95312500D03*
D14*
X107815000Y-97472500D03*
D16*
X109025000Y-94262500D03*
D12*
X83185000Y-80962500D03*
D13*
X88265000Y-80962500D03*
D12*
X93345000Y-80962500D03*
D14*
X90805000Y-75882500D03*
D15*
X92665000Y-76262500D03*
D14*
X84455000Y-78422500D03*
D16*
X85665000Y-75212500D03*
D12*
X268922500Y-119062500D03*
D13*
X274002500Y-119062500D03*
D12*
X279082500Y-119062500D03*
D14*
X276542500Y-113982500D03*
D15*
X278402500Y-114362500D03*
D14*
X270192500Y-116522500D03*
D16*
X271402500Y-113312500D03*
D12*
X245110000Y-61912500D03*
D13*
X250190000Y-61912500D03*
D12*
X255270000Y-61912500D03*
D14*
X252730000Y-56832500D03*
D15*
X254590000Y-57212500D03*
D14*
X246380000Y-59372500D03*
D16*
X247590000Y-56162500D03*
D12*
X163695000Y-100012500D03*
D13*
X168775000Y-100012500D03*
D12*
X173855000Y-100012500D03*
D14*
X171315000Y-94932500D03*
D15*
X173175000Y-95312500D03*
D14*
X164965000Y-97472500D03*
D16*
X166175000Y-94262500D03*
D12*
X54610000Y-61912500D03*
D13*
X59690000Y-61912500D03*
D12*
X64770000Y-61912500D03*
D14*
X62230000Y-56832500D03*
D15*
X64090000Y-57212500D03*
D14*
X55880000Y-59372500D03*
D16*
X57090000Y-56162500D03*
D12*
X64135000Y-80962500D03*
D13*
X69215000Y-80962500D03*
D12*
X74295000Y-80962500D03*
D14*
X71755000Y-75882500D03*
D15*
X73615000Y-76262500D03*
D14*
X65405000Y-78422500D03*
D16*
X66615000Y-75212500D03*
D12*
X173672500Y-119062500D03*
D13*
X178752500Y-119062500D03*
D12*
X183832500Y-119062500D03*
D14*
X181292500Y-113982500D03*
D15*
X183152500Y-114362500D03*
D14*
X174942500Y-116522500D03*
D16*
X176152500Y-113312500D03*
D12*
X249872500Y-138112500D03*
D13*
X254952500Y-138112500D03*
D12*
X260032500Y-138112500D03*
D14*
X257492500Y-133032500D03*
D15*
X259352500Y-133412500D03*
D14*
X251142500Y-135572500D03*
D16*
X252352500Y-132362500D03*
M02*
